SplineFontDB: 3.0
FontName: TerminalVector
FullName: TerminalVector
FamilyName: TerminalVector
Weight: Regular
Copyright: Released to the public domain. Inspired by the work of George Yohng. Based on the bitmap fonts of Bitstream Inc. (vga850/852/857/863/866/oem, ega80woa), Microsoft Corp. (vga775/855), KADA Satya Ltd. (vga775), Computer Logic R&D S.A. (vga869) and ATI.
Version: 2.1
ItalicAngle: 0
UnderlinePosition: 0
UnderlineWidth: 0
Ascent: 1704
Descent: 344
LayerCount: 2
Layer: 0 1 "Back"  1
Layer: 1 1 "Fore"  0
XUID: [1021 295 18731 817]
FSType: 8
OS2Version: 0
OS2_WeightWidthSlopeOnly: 0
OS2_UseTypoMetrics: 1
CreationTime: 1440765649
ModificationTime: 1440765649
PfmFamily: 49
TTFWeight: 400
TTFWidth: 5
LineGap: 0
VLineGap: 0
Panose: 2 0 5 9 0 0 0 0 0 0
OS2TypoAscent: 0
OS2TypoAOffset: 1
OS2TypoDescent: 0
OS2TypoDOffset: 1
OS2TypoLinegap: 0
OS2WinAscent: 0
OS2WinAOffset: 1
OS2WinDescent: 0
OS2WinDOffset: 1
HheadAscent: 0
HheadAOffset: 1
HheadDescent: 0
HheadDOffset: 1
OS2FamilyClass: 2057
OS2Vendor: 'PfEd'
DEI: 91125
LangName: 1033 "" "" "" "" "" "" "" "" "" "" "" "http://terminalvector.adoxa.vze.com/"
GaspTable: 2 13 1 65535 0 0
Encoding: UnicodeBmp
Compacted: 1
UnicodeInterp: none
NameList: Adobe Glyph List
DisplaySize: -24
AntiAlias: 0
FitToEm: 1
WinInfo: 0 32 16
BeginChars: 65536

StartChar: uni0000
Encoding: 0 0
Width: 1328
Flags: W
LayerCount: 2
Fore
SplineSet
EndSplineSet
EndChar

StartChar: uni0001
Encoding: 1 1
Width: 1328
Flags: W
LayerCount: 2
Fore
SplineSet
0 1700 m 1
1162 1700 l 1
1162 -170 l 1
0 -170 l 1
0 1700 l 1
996 1530 m 1
166 1530 l 1
166 0 l 1
996 0 l 1
996 1530 l 1
498 1360 m 1
664 1360 l 1
664 1190 l 1
830 1190 l 1
830 850 l 1
664 850 l 1
664 510 l 1
498 510 l 1
498 850 l 1
664 851 l 1
663 1190 l 1
498 1190 l 1
498 1020 l 1
332 1020 l 1
332 1190 l 1
498 1191 l 1
498 1360 l 1
498 340 m 1
664 340 l 1
664 170 l 1
498 170 l 1
498 340 l 1
EndSplineSet
EndChar

StartChar: uni0002
Encoding: 2 2
Width: 1328
Flags: W
LayerCount: 2
Fore
SplineSet
166 1530 m 1
1162 1530 l 1
1162 1360 l 1
1328 1360 l 1
1328 170 l 1
1162 170 l 1
1162 0 l 1
166 0 l 1
166 170 l 1
0 170 l 1
0 1360 l 1
166 1360 l 1
166 1530 l 1
498 1020 m 1
332 1020 l 1
332 850 l 1
498 850 l 1
498 1020 l 1
996 1020 m 1
830 1020 l 1
830 850 l 1
996 850 l 1
996 1020 l 1
996 680 m 1
332 680 l 1
332 510 l 1
498 510 l 1
498 340 l 1
830 340 l 1
830 510 l 1
996 510 l 1
996 680 l 1
EndSplineSet
EndChar

StartChar: uni0003
Encoding: 3 3
Width: 1328
Flags: W
LayerCount: 2
Fore
SplineSet
166 1360 m 1
332 1360 l 1
332 1190 l 1
498 1190 l 1
498 1020 l 1
664 1020 l 1
664 1190 l 1
830 1190 l 1
830 1360 l 1
996 1360 l 1
996 1190 l 1
1162 1190 l 1
1162 510 l 1
996 510 l 1
996 340 l 1
830 340 l 1
830 170 l 1
664 170 l 1
664 0 l 1
498 0 l 1
498 170 l 1
332 170 l 1
332 340 l 1
166 340 l 1
166 510 l 1
0 510 l 1
0 1190 l 1
166 1190 l 1
166 1360 l 1
EndSplineSet
EndChar

StartChar: uni0004
Encoding: 4 4
Width: 1328
Flags: W
LayerCount: 2
Fore
SplineSet
498 1530 m 1
664 1530 l 1
664 1360 l 1
830 1360 l 1
830 1190 l 1
996 1190 l 1
996 1020 l 1
1162 1020 l 1
1162 680 l 1
996 680 l 1
996 510 l 1
830 510 l 1
830 340 l 1
664 340 l 1
664 170 l 1
498 170 l 1
498 340 l 1
332 340 l 1
332 510 l 1
166 510 l 1
166 680 l 1
0 680 l 1
0 1020 l 1
166 1020 l 1
166 1190 l 1
332 1190 l 1
332 1360 l 1
498 1360 l 1
498 1530 l 1
EndSplineSet
EndChar

StartChar: uni0005
Encoding: 5 5
Width: 1328
Flags: W
LayerCount: 2
Fore
SplineSet
498 1530 m 1
830 1530 l 1
830 1360 l 1
996 1360 l 1
996 1020 l 1
830 1020 l 1
830 850 l 1
1162 850 l 1
1162 680 l 1
1328 680 l 1
1328 510 l 1
1162 510 l 1
1162 340 l 1
830 340 l 1
830 510 l 1
498 510 l 1
498 340 l 1
166 340 l 1
166 510 l 1
0 510 l 1
0 680 l 1
166 680 l 1
166 850 l 1
498 850 l 1
498 1020 l 1
332 1020 l 1
332 1360 l 1
498 1360 l 1
498 1530 l 1
499 340 m 1
830 339 l 1
830 170 l 1
1162 170 l 1
1162 0 l 1
166 0 l 1
166 170 l 1
498 170 l 1
499 340 l 1
EndSplineSet
EndChar

StartChar: uni0006
Encoding: 6 6
Width: 1328
Flags: W
LayerCount: 2
Fore
SplineSet
498 1530 m 1
830 1530 l 1
830 1360 l 1
996 1360 l 1
996 1190 l 1
1162 1190 l 1
1162 1020 l 1
1328 1020 l 1
1328 680 l 1
1162 680 l 1
1162 510 l 1
830 510 l 1
830 170 l 1
1162 170 l 1
1162 0 l 1
166 0 l 1
166 170 l 1
498 170 l 1
498 510 l 1
166 510 l 1
166 680 l 1
0 680 l 1
0 1020 l 1
166 1020 l 1
166 1190 l 1
332 1190 l 1
332 1360 l 1
498 1360 l 1
498 1530 l 1
EndSplineSet
EndChar

StartChar: uni0007
Encoding: 7 7
Width: 1328
Flags: W
LayerCount: 2
Fore
SplineSet
332 1020 m 1
996 1020 l 1
996 850 l 1
1162 850 l 1
1162 510 l 1
996 510 l 1
996 340 l 1
332 340 l 1
332 510 l 1
166 510 l 1
166 850 l 1
332 850 l 1
332 1020 l 1
EndSplineSet
EndChar

StartChar: uni0008
Encoding: 8 8
Width: 1328
Flags: W
LayerCount: 2
Fore
SplineSet
0 1700 m 1
1328 1700 l 1
1328 -340 l 1
0 -340 l 1
0 1700 l 1
996 1020 m 1
332 1020 l 1
332 850 l 1
166 850 l 1
166 510 l 1
332 510 l 1
332 340 l 1
996 340 l 1
996 510 l 1
1162 510 l 1
1162 850 l 1
996 850 l 1
996 1020 l 1
EndSplineSet
EndChar

StartChar: uni0009
Encoding: 9 9
Width: 1328
Flags: W
LayerCount: 2
Fore
SplineSet
332 1190 m 1
996 1190 l 1
996 1020 l 1
1162 1020 l 1
1162 340 l 1
996 340 l 1
996 170 l 1
332 170 l 1
332 340 l 1
166 340 l 1
166 1020 l 1
332 1020 l 1
332 1190 l 1
830 1020 m 1
498 1020 l 1
498 850 l 1
332 850 l 1
332 510 l 1
498 510 l 1
498 340 l 1
830 340 l 1
830 510 l 1
996 510 l 1
996 850 l 1
830 850 l 1
830 1020 l 1
EndSplineSet
EndChar

StartChar: uni000A
Encoding: 10 10
Width: 1328
Flags: W
LayerCount: 2
Fore
SplineSet
0 1700 m 1
1328 1700 l 1
1328 -340 l 1
0 -340 l 1
0 1700 l 1
996 1190 m 1
332 1190 l 1
332 1020 l 1
166 1020 l 1
166 340 l 1
332 340 l 1
332 170 l 1
996 170 l 1
996 340 l 1
1162 340 l 1
1162 1020 l 1
996 1020 l 1
996 1190 l 1
498 1020 m 1
830 1020 l 1
830 850 l 1
996 850 l 1
996 510 l 1
830 510 l 1
830 340 l 1
498 340 l 1
498 510 l 1
332 510 l 1
332 850 l 1
498 850 l 1
498 1020 l 1
EndSplineSet
EndChar

StartChar: uni000B
Encoding: 11 11
Width: 1328
Flags: W
LayerCount: 2
Fore
SplineSet
332 1530 m 1
1162 1530 l 1
1162 850 l 1
996 850 l 1
996 1190 l 1
830 1190 l 1
830 1020 l 1
664 1020 l 1
664 850 l 1
830 850 l 1
830 680 l 1
996 680 l 1
996 170 l 1
830 170 l 1
830 0 l 1
166 0 l 1
166 170 l 1
0 170 l 1
0 850 l 1
166 850 l 1
166 1020 l 1
332 1020 l 1
332 1190 l 1
664 1190 l 1
664 1360 l 1
332 1360 l 1
332 1530 l 1
664 680 m 1
332 680 l 1
332 170 l 1
664 170 l 1
664 680 l 1
EndSplineSet
EndChar

StartChar: uni000C
Encoding: 12 12
Width: 1328
Flags: W
LayerCount: 2
Fore
SplineSet
332 1530 m 1
996 1530 l 1
996 1360 l 1
1162 1360 l 1
1162 850 l 1
996 850 l 1
996 680 l 1
830 680 l 1
830 510 l 1
1162 510 l 1
1162 340 l 1
830 340 l 1
830 0 l 1
498 0 l 1
498 340 l 1
166 340 l 1
166 510 l 1
498 510 l 1
498 680 l 1
332 680 l 1
332 850 l 1
166 850 l 1
166 1360 l 1
332 1360 l 1
332 1530 l 1
830 1360 m 1
498 1360 l 1
498 850 l 1
830 850 l 1
830 1360 l 1
EndSplineSet
EndChar

StartChar: uni000D
Encoding: 13 13
Width: 1328
Flags: W
LayerCount: 2
Fore
SplineSet
498 1530 m 1
830 1530 l 1
830 1360 l 1
996 1360 l 1
996 1190 l 1
1162 1190 l 1
1162 1020 l 1
1328 1020 l 1
1328 680 l 1
1162 680 l 1
1162 850 l 1
996 850 l 1
996 1020 l 1
830 1020 l 1
830 170 l 1
664 170 l 1
664 0 l 1
166 0 l 1
166 170 l 1
0 170 l 1
0 340 l 1
166 340 l 1
166 510 l 1
498 510 l 1
498 1530 l 1
EndSplineSet
EndChar

StartChar: uni000E
Encoding: 14 14
Width: 1328
Flags: W
LayerCount: 2
Fore
SplineSet
332 1530 m 1
1328 1530 l 1
1328 0 l 1
1162 0 l 1
1162 -170 l 1
830 -170 l 1
830 0 l 1
664 0 l 1
664 170 l 1
830 170 l 1
830 340 l 1
996 340 l 1
996 1020 l 1
664 1020 l 1
664 340 l 1
498 340 l 1
498 170 l 1
166 170 l 1
166 340 l 1
0 340 l 1
0 510 l 1
166 510 l 1
166 680 l 1
332 680 l 1
332 1530 l 1
996 1360 m 1
664 1360 l 1
664 1190 l 1
996 1190 l 1
996 1360 l 1
EndSplineSet
EndChar

StartChar: uni000F
Encoding: 15 15
Width: 1328
Flags: W
LayerCount: 2
Fore
SplineSet
498 1360 m 1
830 1360 l 1
830 1020 l 1
996 1020 l 1
996 1190 l 1
1328 1190 l 1
1328 1020 l 1
1162 1020 l 1
1162 850 l 1
1328 850 l 1
1328 510 l 1
1162 510 l 1
1162 340 l 1
1328 340 l 1
1328 170 l 1
996 170 l 1
996 340 l 1
830 340 l 1
830 0 l 1
498 0 l 1
498 340 l 1
332 340 l 1
332 170 l 1
0 170 l 1
0 340 l 1
166 340 l 1
166 510 l 1
0 510 l 1
0 850 l 1
166 850 l 1
166 1020 l 1
0 1020 l 1
0 1190 l 1
332 1190 l 1
332 1020 l 1
498 1020 l 1
498 1360 l 1
830 850 m 1
498 850 l 1
498 510 l 1
830 510 l 1
830 850 l 1
EndSplineSet
EndChar

StartChar: uni0010
Encoding: 16 16
Width: 1328
Flags: W
LayerCount: 2
Fore
SplineSet
0 1530 m 1
166 1530 l 1
166 1360 l 1
332 1360 l 1
332 1190 l 1
498 1190 l 1
498 1020 l 1
830 1020 l 1
830 850 l 1
1162 850 l 1
1162 680 l 1
830 680 l 1
830 510 l 1
498 510 l 1
498 340 l 1
332 340 l 1
332 170 l 1
166 170 l 1
166 0 l 1
0 0 l 1
0 1530 l 1
EndSplineSet
EndChar

StartChar: uni0011
Encoding: 17 17
Width: 1328
Flags: W
LayerCount: 2
Fore
SplineSet
996 1530 m 1
1162 1530 l 1
1162 0 l 1
996 0 l 1
996 170 l 1
830 170 l 1
830 340 l 1
664 340 l 1
664 510 l 1
332 510 l 1
332 680 l 1
0 680 l 1
0 850 l 1
332 850 l 1
332 1020 l 1
664 1020 l 1
664 1190 l 1
830 1190 l 1
830 1360 l 1
996 1360 l 1
996 1530 l 1
EndSplineSet
EndChar

StartChar: uni0012
Encoding: 18 18
Width: 1328
Flags: W
LayerCount: 2
Fore
SplineSet
498 1530 m 1
830 1530 l 1
830 1360 l 1
996 1360 l 1
996 1190 l 1
1162 1190 l 1
1162 1020 l 1
830 1020 l 1
830 510 l 1
1162 510 l 1
1162 340 l 1
996 340 l 1
996 170 l 1
830 170 l 1
830 0 l 1
498 0 l 1
498 170 l 1
332 170 l 1
332 340 l 1
166 340 l 1
166 510 l 1
498 510 l 1
498 1020 l 1
166 1020 l 1
166 1190 l 1
332 1190 l 1
332 1360 l 1
498 1360 l 1
498 1530 l 1
EndSplineSet
EndChar

StartChar: uni0013
Encoding: 19 19
Width: 1328
Flags: W
LayerCount: 2
Fore
SplineSet
166 1530 m 1
498 1530 l 1
498 680 l 1
166 680 l 1
166 1530 l 1
830 1530 m 1
1162 1530 l 1
1162 680 l 1
830 680 l 1
830 1530 l 1
166 340 m 1
498 340 l 1
498 0 l 1
166 0 l 1
166 340 l 1
830 340 m 1
1162 340 l 1
1162 0 l 1
830 0 l 1
830 340 l 1
EndSplineSet
EndChar

StartChar: uni0014
Encoding: 20 20
Width: 1328
Flags: W
LayerCount: 2
Fore
SplineSet
166 1530 m 1
1328 1530 l 1
1328 0 l 1
996 0 l 1
996 1360 l 1
830 1360 l 1
830 0 l 1
498 0 l 1
498 680 l 1
166 680 l 1
166 850 l 1
0 850 l 1
0 1360 l 1
166 1360 l 1
166 1530 l 1
EndSplineSet
EndChar

StartChar: uni0015
Encoding: 21 21
Width: 1328
Flags: W
LayerCount: 2
Fore
SplineSet
332 1700 m 1
996 1700 l 1
996 1530 l 1
1162 1530 l 1
1162 1360 l 1
830 1360 l 1
830 1530 l 1
498 1530 l 1
498 1190 l 1
830 1190 l 1
830 1020 l 1
996 1020 l 1
996 850 l 1
1162 850 l 1
1162 510 l 1
996 510 l 1
996 340 l 1
1162 340 l 1
1162 0 l 1
996 0 l 1
996 -170 l 1
332 -170 l 1
332 0 l 1
166 0 l 1
166 170 l 1
498 170 l 1
498 0 l 1
830 0 l 1
830 340 l 1
498 340 l 1
498 510 l 1
332 510 l 1
332 680 l 1
166 680 l 1
166 1020 l 1
332 1020 l 1
332 1190 l 1
166 1190 l 1
166 1530 l 1
332 1530 l 1
332 1700 l 1
664 1020 m 1
498 1020 l 1
498 680 l 1
664 680 l 1
664 510 l 1
830 510 l 1
830 850 l 1
664 850 l 1
664 1020 l 1
EndSplineSet
EndChar

StartChar: uni0016
Encoding: 22 22
Width: 1328
Flags: W
LayerCount: 2
Fore
SplineSet
166 1190 m 1
1162 1190 l 1
1162 510 l 1
166 510 l 1
166 1190 l 1
EndSplineSet
EndChar

StartChar: uni0017
Encoding: 23 23
Width: 1328
Flags: W
LayerCount: 2
Fore
SplineSet
498 1530 m 1
830 1530 l 1
830 1360 l 1
996 1360 l 1
996 1190 l 1
1162 1190 l 1
1162 1020 l 1
830 1020 l 1
830 510 l 1
1162 510 l 1
1162 340 l 1
996 340 l 1
996 170 l 1
830 170 l 1
830 0 l 1
1162 0 l 1
1162 -170 l 1
166 -170 l 1
166 0 l 1
498 0 l 1
498 170 l 1
332 170 l 1
332 340 l 1
166 340 l 1
166 510 l 1
498 510 l 1
498 1020 l 1
166 1020 l 1
166 1190 l 1
332 1190 l 1
332 1360 l 1
498 1360 l 1
498 1530 l 1
EndSplineSet
EndChar

StartChar: uni0018
Encoding: 24 24
Width: 1328
Flags: W
LayerCount: 2
Fore
SplineSet
498 1530 m 1
830 1530 l 1
830 1360 l 1
996 1360 l 1
996 1190 l 1
1162 1190 l 1
1162 1020 l 1
830 1020 l 1
830 0 l 1
498 0 l 1
498 1020 l 1
166 1020 l 1
166 1190 l 1
332 1190 l 1
332 1360 l 1
498 1360 l 1
498 1530 l 1
EndSplineSet
EndChar

StartChar: uni0019
Encoding: 25 25
Width: 1328
Flags: W
LayerCount: 2
Fore
SplineSet
498 1530 m 1
830 1530 l 1
830 510 l 1
1162 510 l 1
1162 340 l 1
996 340 l 1
996 170 l 1
830 170 l 1
830 0 l 1
498 0 l 1
498 170 l 1
332 170 l 1
332 340 l 1
166 340 l 1
166 510 l 1
498 510 l 1
498 1530 l 1
EndSplineSet
EndChar

StartChar: uni001A
Encoding: 26 26
Width: 1328
Flags: W
LayerCount: 2
Fore
SplineSet
498 1190 m 1
830 1190 l 1
830 1020 l 1
996 1020 l 1
996 850 l 1
1162 850 l 1
1162 680 l 1
996 680 l 1
996 510 l 1
830 510 l 1
830 340 l 1
498 340 l 1
498 510 l 1
664 510 l 1
664 680 l 1
0 680 l 1
0 850 l 1
664 850 l 1
664 1020 l 1
498 1020 l 1
498 1190 l 1
EndSplineSet
EndChar

StartChar: uni001B
Encoding: 27 27
Width: 1328
Flags: W
LayerCount: 2
Fore
SplineSet
332 1190 m 1
664 1190 l 1
664 1020 l 1
498 1020 l 1
498 850 l 1
1162 850 l 1
1162 680 l 1
498 680 l 1
498 510 l 1
664 510 l 1
664 340 l 1
332 340 l 1
332 510 l 1
166 510 l 1
166 680 l 1
0 680 l 1
0 850 l 1
166 850 l 1
166 1020 l 1
332 1020 l 1
332 1190 l 1
EndSplineSet
EndChar

StartChar: uni001C
Encoding: 28 28
Width: 1328
Flags: W
LayerCount: 2
Fore
SplineSet
0 1020 m 1
332 1020 l 1
332 510 l 1
1162 510 l 1
1162 340 l 1
0 340 l 1
0 1020 l 1
EndSplineSet
EndChar

StartChar: uni001D
Encoding: 29 29
Width: 1328
Flags: W
LayerCount: 2
Fore
SplineSet
332 1190 m 1
498 1190 l 1
498 850 l 1
830 850 l 1
830 1190 l 1
996 1190 l 1
996 1020 l 1
1162 1020 l 1
1162 850 l 1
1328 850 l 1
1328 680 l 1
1162 680 l 1
1162 510 l 1
996 510 l 1
996 340 l 1
830 340 l 1
830 680 l 1
498 680 l 1
498 340 l 1
332 340 l 1
332 510 l 1
166 510 l 1
166 680 l 1
0 680 l 1
0 850 l 1
166 850 l 1
166 1020 l 1
332 1020 l 1
332 1190 l 1
EndSplineSet
EndChar

StartChar: uni001E
Encoding: 30 30
Width: 1328
Flags: W
LayerCount: 2
Fore
SplineSet
498 1360 m 1
664 1360 l 1
664 1020 l 1
830 1020 l 1
830 680 l 1
996 680 l 1
996 340 l 1
1162 340 l 1
1162 0 l 1
0 0 l 1
0 340 l 1
166 340 l 1
166 680 l 1
332 680 l 1
332 1020 l 1
498 1020 l 1
498 1360 l 1
EndSplineSet
EndChar

StartChar: uni001F
Encoding: 31 31
Width: 1328
Flags: W
LayerCount: 2
Fore
SplineSet
0 1360 m 1
1162 1360 l 1
1162 1020 l 1
996 1020 l 1
996 680 l 1
830 680 l 1
830 340 l 1
664 340 l 1
664 0 l 1
498 0 l 1
498 340 l 1
332 340 l 1
332 680 l 1
166 680 l 1
166 1020 l 1
0 1020 l 1
0 1360 l 1
EndSplineSet
EndChar

StartChar: exclam
Encoding: 33 33
Width: 1328
Flags: W
LayerCount: 2
Fore
SplineSet
332 1530 m 1
664 1530 l 1
664 1360 l 1
830 1360 l 1
830 850 l 1
664 850 l 1
664 510 l 1
332 510 l 1
332 850 l 1
166 850 l 1
166 1360 l 1
332 1360 l 1
332 1530 l 1
332 340 m 1
664 340 l 1
664 0 l 1
332 0 l 1
332 340 l 1
EndSplineSet
EndChar

StartChar: quotedbl
Encoding: 34 34
Width: 1328
Flags: W
LayerCount: 2
Fore
SplineSet
166 1530 m 1
498 1530 l 1
498 850 l 1
332 850 l 1
332 1020 l 1
166 1020 l 1
166 1530 l 1
830 1530 m 1
1162 1530 l 1
1162 1020 l 1
996 1020 l 1
996 850 l 1
830 850 l 1
830 1530 l 1
EndSplineSet
EndChar

StartChar: numbersign
Encoding: 35 35
Width: 1328
Flags: W
LayerCount: 2
Fore
SplineSet
166 1530 m 1
498 1530 l 1
498 1190 l 1
664 1190 l 1
664 1530 l 1
996 1530 l 1
996 1190 l 1
1162 1190 l 1
1162 1020 l 1
996 1020 l 1
996 510 l 1
1162 510 l 1
1162 340 l 1
996 340 l 1
996 0 l 1
664 0 l 1
664 340 l 1
498 340 l 1
498 0 l 1
166 0 l 1
166 340 l 1
0 340 l 1
0 510 l 1
166 510 l 1
166 1020 l 1
0 1020 l 1
0 1190 l 1
166 1190 l 1
166 1530 l 1
664 1020 m 1
498 1020 l 1
498 510 l 1
664 510 l 1
664 1020 l 1
EndSplineSet
EndChar

StartChar: dollar
Encoding: 36 36
Width: 1328
Flags: W
LayerCount: 2
Fore
SplineSet
332 1700 m 1
664 1700 l 1
664 1360 l 1
996 1360 l 1
996 1190 l 1
332 1190 l 1
332 850 l 1
830 850 l 1
830 680 l 1
996 680 l 1
996 340 l 1
830 340 l 1
830 170 l 1
664 170 l 1
664 -170 l 1
332 -170 l 1
332 170 l 1
0 170 l 1
0 340 l 1
664 340 l 1
664 680 l 1
166 680 l 1
166 850 l 1
0 850 l 1
0 1190 l 1
166 1190 l 1
166 1360 l 1
332 1360 l 1
332 1700 l 1
EndSplineSet
EndChar

StartChar: percent
Encoding: 37 37
Width: 1328
Flags: W
LayerCount: 2
Fore
SplineSet
0 1190 m 1
332 1190 l 1
332 850 l 1
0 850 l 1
0 1190 l 1
830 1190 m 1
996 1190 l 1
996 850 l 1
830 850 l 1
830 680 l 1
664 680 l 1
664 510 l 1
498 510 l 1
498 340 l 1
332 340 l 1
332 170 l 1
166 170 l 1
166 0 l 1
0 0 l 1
0 340 l 1
166 340 l 1
166 510 l 1
332 510 l 1
332 680 l 1
498 680 l 1
498 850 l 1
664 850 l 1
664 1020 l 1
830 1020 l 1
830 1190 l 1
664 340 m 1
996 340 l 1
996 0 l 1
664 0 l 1
664 340 l 1
EndSplineSet
EndChar

StartChar: ampersand
Encoding: 38 38
Width: 1328
Flags: W
LayerCount: 2
Fore
SplineSet
166 1530 m 1
664 1530 l 1
664 1360 l 1
830 1360 l 1
830 1020 l 1
664 1020 l 1
664 850 l 1
830 850 l 1
830 680 l 1
996 680 l 1
996 850 l 1
1162 850 l 1
1162 510 l 1
996 510 l 1
996 170 l 1
1162 170 l 1
1162 0 l 1
830 0 l 1
830 170 l 1
664 170 l 1
664 0 l 1
166 0 l 1
166 170 l 1
0 170 l 1
0 850 l 1
166 850 l 1
166 1020 l 1
0 1020 l 1
0 1360 l 1
166 1360 l 1
166 1530 l 1
498 1360 m 1
332 1360 l 1
332 1020 l 1
498 1020 l 1
498 1360 l 1
498 680 m 1
332 680 l 1
332 170 l 1
498 170 l 1
498 340 l 1
664 340 l 1
664 510 l 1
498 510 l 1
498 680 l 1
EndSplineSet
EndChar

StartChar: quotesingle
Encoding: 39 39
Width: 1328
Flags: W
LayerCount: 2
Fore
SplineSet
332 1530 m 1
664 1530 l 1
664 1020 l 1
498 1020 l 1
498 850 l 1
166 850 l 1
166 1020 l 1
332 1020 l 1
332 1530 l 1
EndSplineSet
EndChar

StartChar: parenleft
Encoding: 40 40
Width: 1328
Flags: W
LayerCount: 2
Fore
SplineSet
664 1530 m 1
996 1530 l 1
996 1360 l 1
830 1360 l 1
830 1190 l 1
664 1190 l 1
664 1020 l 1
498 1020 l 1
498 510 l 1
664 510 l 1
664 340 l 1
830 340 l 1
830 170 l 1
996 170 l 1
996 0 l 1
664 0 l 1
664 170 l 1
498 170 l 1
498 340 l 1
332 340 l 1
332 510 l 1
166 510 l 1
166 1020 l 1
332 1020 l 1
332 1190 l 1
498 1190 l 1
498 1360 l 1
664 1360 l 1
664 1530 l 1
EndSplineSet
EndChar

StartChar: parenright
Encoding: 41 41
Width: 1328
Flags: W
LayerCount: 2
Fore
SplineSet
166 1530 m 1
498 1530 l 1
498 1360 l 1
664 1360 l 1
664 1190 l 1
830 1190 l 1
830 1020 l 1
996 1020 l 1
996 510 l 1
830 510 l 1
830 340 l 1
664 340 l 1
664 170 l 1
498 170 l 1
498 0 l 1
166 0 l 1
166 170 l 1
332 170 l 1
332 340 l 1
498 340 l 1
498 510 l 1
664 510 l 1
664 1020 l 1
498 1020 l 1
498 1190 l 1
332 1190 l 1
332 1360 l 1
166 1360 l 1
166 1530 l 1
EndSplineSet
EndChar

StartChar: asterisk
Encoding: 42 42
Width: 1328
Flags: W
LayerCount: 2
Fore
SplineSet
166 1190 m 1
498 1190 l 1
498 1020 l 1
830 1020 l 1
830 1190 l 1
1162 1190 l 1
1162 1020 l 1
996 1020 l 1
996 850 l 1
1328 850 l 1
1328 680 l 1
996 680 l 1
996 510 l 1
1162 510 l 1
1162 340 l 1
830 340 l 1
830 510 l 1
498 510 l 1
498 340 l 1
166 340 l 1
166 510 l 1
332 510 l 1
332 680 l 1
0 680 l 1
0 850 l 1
332 850 l 1
332 1020 l 1
166 1020 l 1
166 1190 l 1
EndSplineSet
EndChar

StartChar: plus
Encoding: 43 43
Width: 1328
Flags: W
LayerCount: 2
Fore
SplineSet
498 1190 m 1
830 1190 l 1
830 850 l 1
1162 850 l 1
1162 680 l 1
830 680 l 1
830 340 l 1
498 340 l 1
498 680 l 1
166 680 l 1
166 850 l 1
498 850 l 1
498 1190 l 1
EndSplineSet
EndChar

StartChar: comma
Encoding: 44 44
Width: 1328
Flags: W
LayerCount: 2
Fore
SplineSet
332 340 m 1
830 340 l 1
830 0 l 1
498 0 l 1
498 -170 l 1
166 -170 l 1
166 0 l 1
332 0 l 1
332 340 l 1
EndSplineSet
EndChar

StartChar: hyphen
Encoding: 45 45
Width: 1328
Flags: W
LayerCount: 2
Fore
SplineSet
0 850 m 1
1162 850 l 1
1162 680 l 1
0 680 l 1
0 850 l 1
EndSplineSet
EndChar

StartChar: period
Encoding: 46 46
Width: 1328
Flags: W
LayerCount: 2
Fore
SplineSet
332 340 m 1
830 340 l 1
830 0 l 1
332 0 l 1
332 340 l 1
EndSplineSet
EndChar

StartChar: slash
Encoding: 47 47
Width: 1328
Flags: W
LayerCount: 2
Fore
SplineSet
996 1360 m 1
1162 1360 l 1
1162 1020 l 1
996 1020 l 1
996 850 l 1
830 850 l 1
830 680 l 1
664 680 l 1
664 510 l 1
498 510 l 1
498 340 l 1
332 340 l 1
332 170 l 1
166 170 l 1
166 0 l 1
0 0 l 1
0 340 l 1
166 340 l 1
166 510 l 1
332 510 l 1
332 680 l 1
498 680 l 1
498 850 l 1
664 850 l 1
664 1020 l 1
830 1020 l 1
830 1190 l 1
996 1190 l 1
996 1360 l 1
EndSplineSet
EndChar

StartChar: zero
Encoding: 48 48
Width: 1328
Flags: W
LayerCount: 2
Fore
SplineSet
166 1530 m 1
996 1530 l 1
996 1360 l 1
1162 1360 l 1
1162 170 l 1
996 170 l 1
996 0 l 1
166 0 l 1
166 170 l 1
0 170 l 1
0 1360 l 1
166 1360 l 1
166 1530 l 1
830 1360 m 1
332 1360 l 1
332 680 l 1
498 680 l 1
498 1020 l 1
664 1020 l 1
664 1190 l 1
830 1190 l 1
830 1360 l 1
830 850 m 1
664 850 l 1
664 510 l 1
498 510 l 1
498 340 l 1
332 340 l 1
332 170 l 1
830 170 l 1
830 850 l 1
EndSplineSet
EndChar

StartChar: one
Encoding: 49 49
Width: 1328
Flags: W
LayerCount: 2
Fore
SplineSet
498 1530 m 1
664 1530 l 1
664 170 l 1
996 170 l 1
996 0 l 1
0 0 l 1
0 170 l 1
332 170 l 1
332 1020 l 1
0 1020 l 1
0 1190 l 1
332 1190 l 1
332 1360 l 1
498 1360 l 1
498 1530 l 1
EndSplineSet
EndChar

StartChar: two
Encoding: 50 50
Width: 1328
Flags: W
LayerCount: 2
Fore
SplineSet
166 1530 m 1
830 1530 l 1
830 1360 l 1
996 1360 l 1
996 850 l 1
830 850 l 1
830 680 l 1
664 680 l 1
664 510 l 1
498 510 l 1
498 340 l 1
332 340 l 1
332 170 l 1
664 170 l 1
664 340 l 1
996 340 l 1
996 0 l 1
0 0 l 1
0 340 l 1
166 340 l 1
166 510 l 1
332 510 l 1
332 680 l 1
498 680 l 1
498 850 l 1
664 850 l 1
664 1360 l 1
332 1360 l 1
332 1020 l 1
0 1020 l 1
0 1360 l 1
166 1360 l 1
166 1530 l 1
EndSplineSet
EndChar

StartChar: three
Encoding: 51 51
Width: 1328
Flags: W
LayerCount: 2
Fore
SplineSet
166 1530 m 1
830 1530 l 1
830 1360 l 1
996 1360 l 1
996 850 l 1
830 850 l 1
830 680 l 1
996 680 l 1
996 170 l 1
830 170 l 1
830 0 l 1
166 0 l 1
166 170 l 1
0 170 l 1
0 340 l 1
332 340 l 1
332 170 l 1
664 170 l 1
664 680 l 1
332 680 l 1
332 850 l 1
664 850 l 1
664 1360 l 1
332 1360 l 1
332 1190 l 1
0 1190 l 1
0 1360 l 1
166 1360 l 1
166 1530 l 1
EndSplineSet
EndChar

StartChar: four
Encoding: 52 52
Width: 1328
Flags: W
LayerCount: 2
Fore
SplineSet
664 1530 m 1
996 1530 l 1
996 680 l 1
1162 680 l 1
1162 510 l 1
996 510 l 1
996 170 l 1
1162 170 l 1
1162 0 l 1
498 0 l 1
498 170 l 1
664 170 l 1
664 510 l 1
0 510 l 1
0 850 l 1
166 850 l 1
166 1020 l 1
332 1020 l 1
332 1190 l 1
498 1190 l 1
498 1360 l 1
664 1360 l 1
664 1530 l 1
664 1020 m 1
498 1020 l 1
498 850 l 1
332 850 l 1
332 680 l 1
664 680 l 1
664 1020 l 1
EndSplineSet
EndChar

StartChar: five
Encoding: 53 53
Width: 1328
Flags: W
LayerCount: 2
Fore
SplineSet
0 1530 m 1
996 1530 l 1
996 1360 l 1
332 1360 l 1
332 850 l 1
830 850 l 1
830 680 l 1
996 680 l 1
996 170 l 1
830 170 l 1
830 0 l 1
166 0 l 1
166 170 l 1
0 170 l 1
0 340 l 1
332 340 l 1
332 170 l 1
664 170 l 1
664 680 l 1
0 680 l 1
0 1530 l 1
EndSplineSet
EndChar

StartChar: six
Encoding: 54 54
Width: 1328
Flags: W
LayerCount: 2
Fore
SplineSet
332 1530 m 1
830 1530 l 1
830 1360 l 1
498 1360 l 1
498 1190 l 1
332 1190 l 1
332 850 l 1
830 850 l 1
830 680 l 1
996 680 l 1
996 170 l 1
830 170 l 1
830 0 l 1
166 0 l 1
166 170 l 1
0 170 l 1
0 1190 l 1
166 1190 l 1
166 1360 l 1
332 1360 l 1
332 1530 l 1
664 680 m 1
332 680 l 1
332 170 l 1
664 170 l 1
664 680 l 1
EndSplineSet
EndChar

StartChar: seven
Encoding: 55 55
Width: 1328
Flags: W
LayerCount: 2
Fore
SplineSet
0 1530 m 1
1162 1530 l 1
1162 850 l 1
996 850 l 1
996 680 l 1
830 680 l 1
830 510 l 1
664 510 l 1
664 0 l 1
332 0 l 1
332 510 l 1
498 510 l 1
498 680 l 1
664 680 l 1
664 850 l 1
830 850 l 1
830 1360 l 1
332 1360 l 1
332 1020 l 1
0 1020 l 1
0 1530 l 1
EndSplineSet
EndChar

StartChar: eight
Encoding: 56 56
Width: 1328
Flags: W
LayerCount: 2
Fore
SplineSet
166 1530 m 1
830 1530 l 1
830 1360 l 1
996 1360 l 1
996 850 l 1
830 850 l 1
830 680 l 1
996 680 l 1
996 170 l 1
830 170 l 1
830 0 l 1
166 0 l 1
166 170 l 1
0 170 l 1
0 680 l 1
166 680 l 1
166 850 l 1
0 850 l 1
0 1360 l 1
166 1360 l 1
166 1530 l 1
664 1360 m 1
332 1360 l 1
332 1020 l 1
498 1020 l 1
498 850 l 1
664 850 l 1
664 1360 l 1
498 680 m 1
332 680 l 1
332 170 l 1
664 170 l 1
664 510 l 1
498 510 l 1
498 680 l 1
EndSplineSet
EndChar

StartChar: nine
Encoding: 57 57
Width: 1328
Flags: W
LayerCount: 2
Fore
SplineSet
166 1530 m 1
830 1530 l 1
830 1360 l 1
996 1360 l 1
996 680 l 1
830 680 l 1
830 340 l 1
664 340 l 1
664 0 l 1
166 0 l 1
166 170 l 1
332 170 l 1
332 340 l 1
498 340 l 1
498 680 l 1
166 680 l 1
166 850 l 1
0 850 l 1
0 1360 l 1
166 1360 l 1
166 1530 l 1
664 1360 m 1
332 1360 l 1
332 850 l 1
664 850 l 1
664 1360 l 1
EndSplineSet
EndChar

StartChar: colon
Encoding: 58 58
Width: 1328
Flags: W
LayerCount: 2
Fore
SplineSet
332 1190 m 1
830 1190 l 1
830 850 l 1
332 850 l 1
332 1190 l 1
332 510 m 1
830 510 l 1
830 170 l 1
332 170 l 1
332 510 l 1
EndSplineSet
EndChar

StartChar: semicolon
Encoding: 59 59
Width: 1328
Flags: W
LayerCount: 2
Fore
SplineSet
332 1190 m 1
830 1190 l 1
830 850 l 1
332 850 l 1
332 1190 l 1
332 510 m 1
830 510 l 1
830 0 l 1
664 0 l 1
664 -170 l 1
332 -170 l 1
332 0 l 1
498 0 l 1
498 170 l 1
332 170 l 1
332 510 l 1
EndSplineSet
EndChar

StartChar: less
Encoding: 60 60
Width: 1328
Flags: W
LayerCount: 2
Fore
SplineSet
664 1530 m 1
996 1530 l 1
996 1360 l 1
830 1360 l 1
830 1190 l 1
664 1190 l 1
664 1020 l 1
498 1020 l 1
498 850 l 1
332 850 l 1
332 680 l 1
498 680 l 1
498 510 l 1
664 510 l 1
664 340 l 1
830 340 l 1
830 170 l 1
996 170 l 1
996 0 l 1
664 0 l 1
664 170 l 1
498 170 l 1
498 340 l 1
332 340 l 1
332 510 l 1
166 510 l 1
166 680 l 1
0 680 l 1
0 850 l 1
166 850 l 1
166 1020 l 1
332 1020 l 1
332 1190 l 1
498 1190 l 1
498 1360 l 1
664 1360 l 1
664 1530 l 1
EndSplineSet
EndChar

StartChar: equal
Encoding: 61 61
Width: 1328
Flags: W
LayerCount: 2
Fore
SplineSet
166 1020 m 1
1162 1020 l 1
1162 850 l 1
166 850 l 1
166 1020 l 1
166 680 m 1
1162 680 l 1
1162 510 l 1
166 510 l 1
166 680 l 1
EndSplineSet
EndChar

StartChar: greater
Encoding: 62 62
Width: 1328
Flags: W
LayerCount: 2
Fore
SplineSet
166 1530 m 1
498 1530 l 1
498 1360 l 1
664 1360 l 1
664 1190 l 1
830 1190 l 1
830 1020 l 1
996 1020 l 1
996 850 l 1
1162 850 l 1
1162 680 l 1
996 680 l 1
996 510 l 1
830 510 l 1
830 340 l 1
664 340 l 1
664 170 l 1
498 170 l 1
498 0 l 1
166 0 l 1
166 170 l 1
332 170 l 1
332 340 l 1
498 340 l 1
498 510 l 1
664 510 l 1
664 680 l 1
830 680 l 1
830 850 l 1
664 850 l 1
664 1020 l 1
498 1020 l 1
498 1190 l 1
332 1190 l 1
332 1360 l 1
166 1360 l 1
166 1530 l 1
EndSplineSet
EndChar

StartChar: question
Encoding: 63 63
Width: 1328
Flags: W
LayerCount: 2
Fore
SplineSet
166 1530 m 1
830 1530 l 1
830 1360 l 1
996 1360 l 1
996 1020 l 1
830 1020 l 1
830 850 l 1
664 850 l 1
664 510 l 1
332 510 l 1
332 850 l 1
498 850 l 1
498 1020 l 1
664 1020 l 1
664 1360 l 1
332 1360 l 1
332 1190 l 1
0 1190 l 1
0 1360 l 1
166 1360 l 1
166 1530 l 1
332 340 m 1
664 340 l 1
664 0 l 1
332 0 l 1
332 340 l 1
EndSplineSet
EndChar

StartChar: at
Encoding: 64 64
Width: 1328
Flags: W
LayerCount: 2
Fore
SplineSet
166 1530 m 1
996 1530 l 1
996 1360 l 1
1162 1360 l 1
1162 510 l 1
498 510 l 1
498 1020 l 1
830 1020 l 1
830 1360 l 1
332 1360 l 1
332 170 l 1
996 170 l 1
996 0 l 1
166 0 l 1
166 170 l 1
0 170 l 1
0 1360 l 1
166 1360 l 1
166 1530 l 1
EndSplineSet
EndChar

StartChar: A
Encoding: 65 65
Width: 1328
Flags: W
LayerCount: 2
Fore
SplineSet
332 1530 m 1
664 1530 l 1
664 1360 l 1
830 1360 l 1
830 1190 l 1
996 1190 l 1
996 0 l 1
664 0 l 1
664 510 l 1
332 510 l 1
332 0 l 1
0 0 l 1
0 1190 l 1
166 1190 l 1
166 1360 l 1
332 1360 l 1
332 1530 l 1
664 1190 m 1
332 1190 l 1
332 680 l 1
664 680 l 1
664 1190 l 1
EndSplineSet
EndChar

StartChar: B
Encoding: 66 66
Width: 1328
Flags: W
LayerCount: 2
Fore
SplineSet
0 1530 m 1
996 1530 l 1
996 1360 l 1
1162 1360 l 1
1162 850 l 1
996 850 l 1
996 680 l 1
1162 680 l 1
1162 170 l 1
996 170 l 1
996 0 l 1
0 0 l 1
0 170 l 1
166 170 l 1
166 1360 l 1
0 1360 l 1
0 1530 l 1
830 1360 m 1
498 1360 l 1
498 850 l 1
830 850 l 1
830 1360 l 1
830 680 m 1
498 680 l 1
498 170 l 1
830 170 l 1
830 680 l 1
EndSplineSet
EndChar

StartChar: C
Encoding: 67 67
Width: 1328
Flags: W
LayerCount: 2
Fore
SplineSet
332 1530 m 1
996 1530 l 1
996 1360 l 1
1162 1360 l 1
1162 1020 l 1
830 1020 l 1
830 1360 l 1
498 1360 l 1
498 1190 l 1
332 1190 l 1
332 340 l 1
498 340 l 1
498 170 l 1
830 170 l 1
830 510 l 1
1162 510 l 1
1162 170 l 1
996 170 l 1
996 0 l 1
332 0 l 1
332 170 l 1
166 170 l 1
166 340 l 1
0 340 l 1
0 1190 l 1
166 1190 l 1
166 1360 l 1
332 1360 l 1
332 1530 l 1
EndSplineSet
EndChar

StartChar: D
Encoding: 68 68
Width: 1328
Flags: W
LayerCount: 2
Fore
SplineSet
0 1530 m 1
830 1530 l 1
830 1360 l 1
996 1360 l 1
996 1190 l 1
1162 1190 l 1
1162 340 l 1
996 340 l 1
996 170 l 1
830 170 l 1
830 0 l 1
0 0 l 1
0 170 l 1
166 170 l 1
166 1360 l 1
0 1360 l 1
0 1530 l 1
664 1360 m 1
498 1360 l 1
498 170 l 1
664 170 l 1
664 340 l 1
830 340 l 1
830 1190 l 1
664 1190 l 1
664 1360 l 1
EndSplineSet
EndChar

StartChar: E
Encoding: 69 69
Width: 1328
Flags: W
LayerCount: 2
Fore
SplineSet
0 1530 m 1
1162 1530 l 1
1162 1190 l 1
996 1190 l 1
996 1360 l 1
498 1360 l 1
498 850 l 1
830 850 l 1
830 1020 l 1
996 1020 l 1
996 510 l 1
830 510 l 1
830 680 l 1
498 680 l 1
498 170 l 1
996 170 l 1
996 340 l 1
1162 340 l 1
1162 0 l 1
0 0 l 1
0 170 l 1
166 170 l 1
166 1360 l 1
0 1360 l 1
0 1530 l 1
EndSplineSet
EndChar

StartChar: F
Encoding: 70 70
Width: 1328
Flags: W
LayerCount: 2
Fore
SplineSet
0 1530 m 1
1162 1530 l 1
1162 1020 l 1
996 1020 l 1
996 510 l 1
830 510 l 1
830 680 l 1
498 680 l 1
498 170 l 1
664 170 l 1
664 0 l 1
0 0 l 1
0 170 l 1
166 170 l 1
166 1360 l 1
0 1360 l 1
0 1530 l 1
830 1360 m 1
498 1360 l 1
498 850 l 1
830 850 l 1
830 1020 l 1
996 1021 l 1
996 1190 l 1
830 1190 l 1
830 1360 l 1
EndSplineSet
EndChar

StartChar: G
Encoding: 71 71
Width: 1328
Flags: W
LayerCount: 2
Fore
SplineSet
332 1530 m 1
996 1530 l 1
996 1360 l 1
1162 1360 l 1
1162 1020 l 1
830 1020 l 1
830 1360 l 1
498 1360 l 1
498 1190 l 1
332 1190 l 1
332 340 l 1
498 340 l 1
498 170 l 1
830 170 l 1
830 510 l 1
664 510 l 1
664 680 l 1
1162 680 l 1
1162 0 l 1
332 0 l 1
332 170 l 1
166 170 l 1
166 340 l 1
0 340 l 1
0 1190 l 1
166 1190 l 1
166 1360 l 1
332 1360 l 1
332 1530 l 1
EndSplineSet
EndChar

StartChar: H
Encoding: 72 72
Width: 1328
Flags: W
LayerCount: 2
Fore
SplineSet
0 1530 m 1
332 1530 l 1
332 850 l 1
664 850 l 1
664 1530 l 1
996 1530 l 1
996 0 l 1
664 0 l 1
664 680 l 1
332 680 l 1
332 0 l 1
0 0 l 1
0 1530 l 1
EndSplineSet
EndChar

StartChar: I
Encoding: 73 73
Width: 1328
Flags: W
LayerCount: 2
Fore
SplineSet
166 1530 m 1
830 1530 l 1
830 1360 l 1
664 1360 l 1
664 170 l 1
830 170 l 1
830 0 l 1
166 0 l 1
166 170 l 1
332 170 l 1
332 1360 l 1
166 1360 l 1
166 1530 l 1
EndSplineSet
EndChar

StartChar: J
Encoding: 74 74
Width: 1328
Flags: W
LayerCount: 2
Fore
SplineSet
498 1530 m 1
1162 1530 l 1
1162 1360 l 1
996 1360 l 1
996 170 l 1
830 170 l 1
830 0 l 1
166 0 l 1
166 170 l 1
0 170 l 1
0 680 l 1
332 680 l 1
332 170 l 1
664 170 l 1
664 1360 l 1
498 1360 l 1
498 1530 l 1
EndSplineSet
EndChar

StartChar: K
Encoding: 75 75
Width: 1328
Flags: W
LayerCount: 2
Fore
SplineSet
0 1530 m 1
498 1530 l 1
498 850 l 1
664 850 l 1
664 1190 l 1
830 1190 l 1
830 1530 l 1
1162 1530 l 1
1162 1190 l 1
996 1190 l 1
996 850 l 1
830 850 l 1
830 680 l 1
996 680 l 1
996 340 l 1
1162 340 l 1
1162 0 l 1
830 0 l 1
830 340 l 1
664 340 l 1
664 680 l 1
498 680 l 1
498 0 l 1
0 0 l 1
0 170 l 1
166 170 l 1
166 1360 l 1
0 1360 l 1
0 1530 l 1
EndSplineSet
EndChar

StartChar: L
Encoding: 76 76
Width: 1328
Flags: W
LayerCount: 2
Fore
SplineSet
0 1530 m 1
664 1530 l 1
664 1360 l 1
498 1360 l 1
498 170 l 1
830 170 l 1
830 510 l 1
996 510 l 1
996 680 l 1
1162 680 l 1
1162 0 l 1
0 0 l 1
0 170 l 1
166 170 l 1
166 1360 l 1
0 1360 l 1
0 1530 l 1
EndSplineSet
EndChar

StartChar: M
Encoding: 77 77
Width: 1328
Flags: W
LayerCount: 2
Fore
SplineSet
0 1530 m 1
332 1530 l 1
332 1360 l 1
498 1360 l 1
498 1190 l 1
664 1190 l 1
664 1360 l 1
830 1360 l 1
830 1530 l 1
1162 1530 l 1
1162 0 l 1
830 0 l 1
830 850 l 1
664 850 l 1
664 680 l 1
498 680 l 1
498 850 l 1
332 850 l 1
332 0 l 1
0 0 l 1
0 1530 l 1
EndSplineSet
EndChar

StartChar: N
Encoding: 78 78
Width: 1328
Flags: W
LayerCount: 2
Fore
SplineSet
0 1530 m 1
332 1530 l 1
332 1190 l 1
498 1190 l 1
498 1020 l 1
664 1020 l 1
664 850 l 1
830 850 l 1
830 1530 l 1
1162 1530 l 1
1162 0 l 1
830 0 l 1
830 340 l 1
664 340 l 1
664 510 l 1
498 510 l 1
498 680 l 1
332 680 l 1
332 0 l 1
0 0 l 1
0 1530 l 1
EndSplineSet
EndChar

StartChar: O
Encoding: 79 79
Width: 1328
Flags: W
LayerCount: 2
Fore
SplineSet
332 1530 m 1
830 1530 l 1
830 1360 l 1
996 1360 l 1
996 1190 l 1
1162 1190 l 1
1162 340 l 1
996 340 l 1
996 170 l 1
830 170 l 1
830 0 l 1
332 0 l 1
332 170 l 1
166 170 l 1
166 340 l 1
0 340 l 1
0 1190 l 1
166 1190 l 1
166 1360 l 1
332 1360 l 1
332 1530 l 1
664 1360 m 1
498 1360 l 1
498 1190 l 1
332 1190 l 1
332 340 l 1
498 340 l 1
498 170 l 1
664 170 l 1
664 340 l 1
830 340 l 1
830 1190 l 1
664 1190 l 1
664 1360 l 1
EndSplineSet
EndChar

StartChar: P
Encoding: 80 80
Width: 1328
Flags: W
LayerCount: 2
Fore
SplineSet
0 1530 m 1
996 1530 l 1
996 1360 l 1
1162 1360 l 1
1162 850 l 1
996 850 l 1
996 680 l 1
498 680 l 1
498 170 l 1
664 170 l 1
664 0 l 1
0 0 l 1
0 170 l 1
166 170 l 1
166 1360 l 1
0 1360 l 1
0 1530 l 1
830 1360 m 1
498 1360 l 1
498 850 l 1
830 850 l 1
830 1360 l 1
EndSplineSet
EndChar

StartChar: Q
Encoding: 81 81
Width: 1328
Flags: W
LayerCount: 2
Fore
SplineSet
332 1530 m 1
830 1530 l 1
830 1360 l 1
996 1360 l 1
996 1190 l 1
1162 1190 l 1
1162 340 l 1
996 340 l 1
996 170 l 1
830 170 l 1
830 0 l 1
996 0 l 1
996 -170 l 1
1328 -170 l 1
1328 -340 l 1
830 -340 l 1
830 -170 l 1
664 -170 l 1
664 0 l 1
498 0 l 1
498 -170 l 1
166 -170 l 1
166 0 l 1
332 0 l 1
332 170 l 1
166 170 l 1
166 340 l 1
0 340 l 1
0 1190 l 1
166 1190 l 1
166 1360 l 1
332 1360 l 1
332 1530 l 1
664 1360 m 1
498 1360 l 1
498 1190 l 1
332 1190 l 1
332 340 l 1
498 340 l 1
498 170 l 1
664 170 l 1
664 340 l 1
830 340 l 1
830 1190 l 1
664 1190 l 1
664 1360 l 1
EndSplineSet
EndChar

StartChar: R
Encoding: 82 82
Width: 1328
Flags: W
LayerCount: 2
Fore
SplineSet
0 1530 m 1
996 1530 l 1
996 1360 l 1
1162 1360 l 1
1162 850 l 1
996 850 l 1
996 510 l 1
1162 510 l 1
1162 0 l 1
830 0 l 1
830 510 l 1
664 510 l 1
664 680 l 1
498 680 l 1
498 0 l 1
0 0 l 1
0 170 l 1
166 170 l 1
166 1360 l 1
0 1360 l 1
0 1530 l 1
830 1360 m 1
498 1360 l 1
498 850 l 1
830 850 l 1
830 1360 l 1
EndSplineSet
EndChar

StartChar: S
Encoding: 83 83
Width: 1328
Flags: W
LayerCount: 2
Fore
SplineSet
166 1530 m 1
830 1530 l 1
830 1360 l 1
996 1360 l 1
996 1020 l 1
664 1020 l 1
664 1360 l 1
332 1360 l 1
332 850 l 1
664 850 l 1
664 680 l 1
830 680 l 1
830 510 l 1
996 510 l 1
996 170 l 1
830 170 l 1
830 0 l 1
166 0 l 1
166 170 l 1
0 170 l 1
0 510 l 1
332 510 l 1
332 170 l 1
664 170 l 1
664 510 l 1
498 510 l 1
498 680 l 1
166 680 l 1
166 850 l 1
0 850 l 1
0 1360 l 1
166 1360 l 1
166 1530 l 1
EndSplineSet
EndChar

StartChar: T
Encoding: 84 84
Width: 1328
Flags: W
LayerCount: 2
Fore
SplineSet
0 1530 m 1
996 1530 l 1
996 1190 l 1
830 1190 l 1
830 1360 l 1
664 1360 l 1
664 170 l 1
830 170 l 1
830 0 l 1
166 0 l 1
166 170 l 1
332 170 l 1
332 1360 l 1
166 1360 l 1
166 1190 l 1
0 1190 l 1
0 1530 l 1
EndSplineSet
EndChar

StartChar: U
Encoding: 85 85
Width: 1328
Flags: W
LayerCount: 2
Fore
SplineSet
0 1530 m 1
332 1530 l 1
332 170 l 1
664 170 l 1
664 1530 l 1
996 1530 l 1
996 170 l 1
830 170 l 1
830 0 l 1
166 0 l 1
166 170 l 1
0 170 l 1
0 1530 l 1
EndSplineSet
EndChar

StartChar: V
Encoding: 86 86
Width: 1328
Flags: W
LayerCount: 2
Fore
SplineSet
0 1530 m 1
332 1530 l 1
332 340 l 1
664 340 l 1
664 1530 l 1
996 1530 l 1
996 340 l 1
830 340 l 1
830 170 l 1
664 170 l 1
664 0 l 1
332 0 l 1
332 170 l 1
166 170 l 1
166 340 l 1
0 340 l 1
0 1530 l 1
EndSplineSet
EndChar

StartChar: W
Encoding: 87 87
Width: 1328
Flags: W
LayerCount: 2
Fore
SplineSet
0 1530 m 1
332 1530 l 1
332 510 l 1
498 510 l 1
498 0 l 1
166 0 l 1
166 510 l 1
0 510 l 1
0 1530 l 1
830 1530 m 1
1162 1530 l 1
1162 510 l 1
996 510 l 1
996 0 l 1
664 0 l 1
664 510 l 1
498 511 l 1
498 850 l 1
664 850 l 1
665 510 l 1
830 510 l 1
830 1530 l 1
EndSplineSet
EndChar

StartChar: X
Encoding: 88 88
Width: 1328
Flags: W
LayerCount: 2
Fore
SplineSet
0 1530 m 1
332 1530 l 1
332 1020 l 1
664 1020 l 1
664 1530 l 1
996 1530 l 1
996 1020 l 1
830 1020 l 1
830 850 l 1
664 850 l 1
664 680 l 1
830 680 l 1
830 510 l 1
996 510 l 1
996 0 l 1
664 0 l 1
664 510 l 1
332 510 l 1
332 0 l 1
0 0 l 1
0 510 l 1
166 510 l 1
166 680 l 1
332 680 l 1
332 850 l 1
166 850 l 1
166 1020 l 1
0 1020 l 1
0 1530 l 1
EndSplineSet
EndChar

StartChar: Y
Encoding: 89 89
Width: 1328
Flags: W
LayerCount: 2
Fore
SplineSet
0 1530 m 1
332 1530 l 1
332 850 l 1
664 850 l 1
664 1530 l 1
996 1530 l 1
996 850 l 1
830 850 l 1
830 680 l 1
664 680 l 1
664 170 l 1
830 170 l 1
830 0 l 1
166 0 l 1
166 170 l 1
332 170 l 1
332 680 l 1
166 680 l 1
166 850 l 1
0 850 l 1
0 1530 l 1
EndSplineSet
EndChar

StartChar: Z
Encoding: 90 90
Width: 1328
Flags: W
LayerCount: 2
Fore
SplineSet
0 1530 m 1
1162 1530 l 1
1162 1360 l 1
996 1360 l 1
996 1190 l 1
830 1190 l 1
830 850 l 1
664 850 l 1
664 680 l 1
498 680 l 1
498 340 l 1
332 340 l 1
332 170 l 1
830 170 l 1
830 340 l 1
996 340 l 1
996 510 l 1
1162 510 l 1
1162 0 l 1
0 0 l 1
0 340 l 1
166 340 l 1
166 680 l 1
332 680 l 1
332 850 l 1
498 850 l 1
498 1190 l 1
664 1190 l 1
664 1360 l 1
332 1360 l 1
332 1190 l 1
166 1190 l 1
166 1020 l 1
0 1020 l 1
0 1530 l 1
EndSplineSet
EndChar

StartChar: bracketleft
Encoding: 91 91
Width: 1328
Flags: W
LayerCount: 2
Fore
SplineSet
332 1530 m 1
996 1530 l 1
996 1360 l 1
664 1360 l 1
664 170 l 1
996 170 l 1
996 0 l 1
332 0 l 1
332 1530 l 1
EndSplineSet
EndChar

StartChar: backslash
Encoding: 92 92
Width: 1328
Flags: W
LayerCount: 2
Fore
SplineSet
0 1360 m 1
166 1360 l 1
166 1190 l 1
332 1190 l 1
332 1020 l 1
498 1020 l 1
498 850 l 1
664 850 l 1
664 680 l 1
830 680 l 1
830 510 l 1
996 510 l 1
996 340 l 1
1162 340 l 1
1162 0 l 1
996 0 l 1
996 170 l 1
830 170 l 1
830 340 l 1
664 340 l 1
664 510 l 1
498 510 l 1
498 680 l 1
332 680 l 1
332 850 l 1
166 850 l 1
166 1020 l 1
0 1020 l 1
0 1360 l 1
EndSplineSet
EndChar

StartChar: bracketright
Encoding: 93 93
Width: 1328
Flags: W
LayerCount: 2
Fore
SplineSet
332 1530 m 1
996 1530 l 1
996 0 l 1
332 0 l 1
332 170 l 1
664 170 l 1
664 1360 l 1
332 1360 l 1
332 1530 l 1
EndSplineSet
EndChar

StartChar: asciicircum
Encoding: 94 94
Width: 1328
Flags: W
LayerCount: 2
Fore
SplineSet
498 1700 m 1
664 1700 l 1
664 1530 l 1
830 1530 l 1
830 1360 l 1
996 1360 l 1
996 1190 l 1
1162 1190 l 1
1162 1020 l 1
830 1020 l 1
830 1190 l 1
664 1190 l 1
664 1360 l 1
498 1360 l 1
498 1190 l 1
332 1190 l 1
332 1020 l 1
0 1020 l 1
0 1190 l 1
166 1190 l 1
166 1360 l 1
332 1360 l 1
332 1530 l 1
498 1530 l 1
498 1700 l 1
EndSplineSet
EndChar

StartChar: underscore
Encoding: 95 95
Width: 1328
Flags: W
LayerCount: 2
Fore
SplineSet
0 0 m 1
1328 0 l 1
1328 -170 l 1
0 -170 l 1
0 0 l 1
EndSplineSet
EndChar

StartChar: grave
Encoding: 96 96
Width: 1328
Flags: W
LayerCount: 2
Fore
SplineSet
332 1530 m 1
664 1530 l 1
664 1020 l 1
830 1020 l 1
830 850 l 1
498 850 l 1
498 1020 l 1
332 1020 l 1
332 1530 l 1
EndSplineSet
EndChar

StartChar: a
Encoding: 97 97
Width: 1328
Flags: W
LayerCount: 2
Fore
SplineSet
166 1020 m 1
830 1020 l 1
830 850 l 1
996 850 l 1
996 170 l 1
1162 170 l 1
1162 0 l 1
830 0 l 1
830 170 l 1
664 170 l 1
664 0 l 1
166 0 l 1
166 170 l 1
0 170 l 1
0 510 l 1
166 510 l 1
166 680 l 1
664 680 l 1
664 850 l 1
166 850 l 1
166 1020 l 1
664 510 m 1
332 510 l 1
332 170 l 1
664 171 l 1
664 510 l 1
EndSplineSet
EndChar

StartChar: b
Encoding: 98 98
Width: 1328
Flags: W
LayerCount: 2
Fore
SplineSet
0 1530 m 1
498 1530 l 1
498 1020 l 1
996 1020 l 1
996 850 l 1
1162 850 l 1
1162 170 l 1
996 170 l 1
996 0 l 1
498 0 l 1
498 170 l 1
332 170 l 1
332 0 l 1
0 0 l 1
0 170 l 1
166 170 l 1
166 1360 l 1
0 1360 l 1
0 1530 l 1
830 850 m 1
498 850 l 1
499 170 l 1
830 170 l 1
830 850 l 1
EndSplineSet
EndChar

StartChar: c
Encoding: 99 99
Width: 1328
Flags: W
LayerCount: 2
Fore
SplineSet
166 1020 m 1
830 1020 l 1
830 850 l 1
996 850 l 1
996 680 l 1
664 680 l 1
664 850 l 1
332 850 l 1
332 170 l 1
664 170 l 1
664 340 l 1
996 340 l 1
996 170 l 1
830 170 l 1
830 0 l 1
166 0 l 1
166 170 l 1
0 170 l 1
0 850 l 1
166 850 l 1
166 1020 l 1
EndSplineSet
EndChar

StartChar: d
Encoding: 100 100
Width: 1328
Flags: W
LayerCount: 2
Fore
SplineSet
498 1530 m 1
996 1530 l 1
996 170 l 1
1162 170 l 1
1162 0 l 1
830 0 l 1
830 170 l 1
664 170 l 1
664 0 l 1
166 0 l 1
166 170 l 1
0 170 l 1
0 850 l 1
166 850 l 1
166 1020 l 1
664 1020 l 1
664 1360 l 1
498 1360 l 1
498 1530 l 1
664 850 m 1
332 850 l 1
332 170 l 1
664 171 l 1
664 850 l 1
EndSplineSet
EndChar

StartChar: e
Encoding: 101 101
Width: 1328
Flags: W
LayerCount: 2
Fore
SplineSet
166 1020 m 1
830 1020 l 1
830 850 l 1
996 850 l 1
996 510 l 1
332 510 l 1
332 170 l 1
664 170 l 1
664 340 l 1
996 340 l 1
996 170 l 1
830 170 l 1
830 0 l 1
166 0 l 1
166 170 l 1
0 170 l 1
0 850 l 1
166 850 l 1
166 1020 l 1
664 850 m 1
332 850 l 1
332 680 l 1
664 680 l 1
664 850 l 1
EndSplineSet
EndChar

StartChar: f
Encoding: 102 102
Width: 1328
Flags: W
LayerCount: 2
Fore
SplineSet
332 1530 m 1
830 1530 l 1
830 1360 l 1
996 1360 l 1
996 1190 l 1
664 1190 l 1
664 1360 l 1
498 1360 l 1
498 850 l 1
830 850 l 1
830 680 l 1
498 680 l 1
498 170 l 1
664 170 l 1
664 0 l 1
0 0 l 1
0 170 l 1
166 170 l 1
166 680 l 1
0 680 l 1
0 850 l 1
166 850 l 1
166 1360 l 1
332 1360 l 1
332 1530 l 1
EndSplineSet
EndChar

StartChar: g
Encoding: 103 103
Width: 1328
Flags: W
LayerCount: 2
Fore
SplineSet
166 1020 m 1
664 1020 l 1
664 850 l 1
830 850 l 1
830 1020 l 1
1162 1020 l 1
1162 850 l 1
996 850 l 1
996 -170 l 1
830 -170 l 1
830 -340 l 1
166 -340 l 1
166 -170 l 1
0 -170 l 1
0 0 l 1
332 0 l 1
332 -170 l 1
664 -170 l 1
664 170 l 1
166 170 l 1
166 340 l 1
0 340 l 1
0 850 l 1
166 850 l 1
166 1020 l 1
663 850 m 1
332 850 l 1
332 340 l 1
664 340 l 1
663 850 l 1
EndSplineSet
EndChar

StartChar: h
Encoding: 104 104
Width: 1328
Flags: W
LayerCount: 2
Fore
SplineSet
0 1530 m 1
498 1530 l 1
498 850 l 1
664 850 l 1
664 680 l 1
498 680 l 1
498 0 l 1
0 0 l 1
0 170 l 1
166 170 l 1
166 1360 l 1
0 1360 l 1
0 1530 l 1
664 1020 m 1
996 1020 l 1
996 850 l 1
1162 850 l 1
1162 0 l 1
830 0 l 1
830 850 l 1
664 851 l 1
664 1020 l 1
EndSplineSet
EndChar

StartChar: i
Encoding: 105 105
Width: 1328
Flags: W
LayerCount: 2
Fore
SplineSet
498 1530 m 1
830 1530 l 1
830 1190 l 1
498 1190 l 1
498 1530 l 1
166 1020 m 1
830 1020 l 1
830 170 l 1
1162 170 l 1
1162 0 l 1
166 0 l 1
166 170 l 1
498 170 l 1
498 850 l 1
166 850 l 1
166 1020 l 1
EndSplineSet
EndChar

StartChar: j
Encoding: 106 106
Width: 1328
Flags: W
LayerCount: 2
Fore
SplineSet
664 1530 m 1
996 1530 l 1
996 1190 l 1
664 1190 l 1
664 1530 l 1
332 1020 m 1
996 1020 l 1
996 -170 l 1
830 -170 l 1
830 -340 l 1
166 -340 l 1
166 -170 l 1
0 -170 l 1
0 170 l 1
332 170 l 1
332 -170 l 1
664 -170 l 1
664 850 l 1
332 850 l 1
332 1020 l 1
EndSplineSet
EndChar

StartChar: k
Encoding: 107 107
Width: 1328
Flags: W
LayerCount: 2
Fore
SplineSet
0 1530 m 1
498 1530 l 1
498 680 l 1
664 680 l 1
664 850 l 1
830 850 l 1
830 1020 l 1
1162 1020 l 1
1162 850 l 1
996 850 l 1
996 680 l 1
830 680 l 1
830 510 l 1
996 510 l 1
996 340 l 1
1162 340 l 1
1162 0 l 1
830 0 l 1
830 340 l 1
664 340 l 1
664 510 l 1
498 510 l 1
498 0 l 1
0 0 l 1
0 170 l 1
166 170 l 1
166 1360 l 1
0 1360 l 1
0 1530 l 1
EndSplineSet
EndChar

StartChar: l
Encoding: 108 108
Width: 1328
Flags: W
LayerCount: 2
Fore
SplineSet
166 1530 m 1
830 1530 l 1
830 170 l 1
1162 170 l 1
1162 0 l 1
166 0 l 1
166 170 l 1
498 170 l 1
498 1360 l 1
166 1360 l 1
166 1530 l 1
EndSplineSet
EndChar

StartChar: m
Encoding: 109 109
Width: 1328
Flags: W
LayerCount: 2
Fore
SplineSet
0 1020 m 1
996 1020 l 1
996 850 l 1
1162 850 l 1
1162 0 l 1
830 0 l 1
830 850 l 1
664 850 l 1
664 170 l 1
498 170 l 1
498 850 l 1
332 850 l 1
332 0 l 1
0 0 l 1
0 1020 l 1
EndSplineSet
EndChar

StartChar: n
Encoding: 110 110
Width: 1328
Flags: W
LayerCount: 2
Fore
SplineSet
0 1020 m 1
830 1020 l 1
830 850 l 1
996 850 l 1
996 0 l 1
664 0 l 1
664 850 l 1
332 850 l 1
332 0 l 1
0 0 l 1
0 1020 l 1
EndSplineSet
EndChar

StartChar: o
Encoding: 111 111
Width: 1328
Flags: W
LayerCount: 2
Fore
SplineSet
166 1020 m 1
830 1020 l 1
830 850 l 1
996 850 l 1
996 170 l 1
830 170 l 1
830 0 l 1
166 0 l 1
166 170 l 1
0 170 l 1
0 850 l 1
166 850 l 1
166 1020 l 1
664 850 m 1
332 850 l 1
332 170 l 1
664 170 l 1
664 850 l 1
EndSplineSet
EndChar

StartChar: p
Encoding: 112 112
Width: 1328
Flags: W
LayerCount: 2
Fore
SplineSet
0 1020 m 1
332 1020 l 1
332 850 l 1
498 850 l 1
498 1020 l 1
996 1020 l 1
996 850 l 1
1162 850 l 1
1162 170 l 1
996 170 l 1
996 0 l 1
498 0 l 1
498 -170 l 1
664 -170 l 1
664 -340 l 1
0 -340 l 1
0 -170 l 1
166 -170 l 1
166 850 l 1
0 850 l 1
0 1020 l 1
830 850 m 1
498 849 l 1
498 170 l 1
830 170 l 1
830 850 l 1
EndSplineSet
EndChar

StartChar: q
Encoding: 113 113
Width: 1328
Flags: W
LayerCount: 2
Fore
SplineSet
166 1020 m 1
664 1020 l 1
664 850 l 1
830 850 l 1
830 1020 l 1
1162 1020 l 1
1162 850 l 1
996 850 l 1
996 -170 l 1
1162 -170 l 1
1162 -340 l 1
498 -340 l 1
498 -170 l 1
664 -170 l 1
664 0 l 1
166 0 l 1
166 170 l 1
0 170 l 1
0 850 l 1
166 850 l 1
166 1020 l 1
663 850 m 1
332 850 l 1
332 170 l 1
664 170 l 1
663 850 l 1
EndSplineSet
EndChar

StartChar: r
Encoding: 114 114
Width: 1328
Flags: W
LayerCount: 2
Fore
SplineSet
0 1020 m 1
498 1020 l 1
498 680 l 1
664 680 l 1
664 510 l 1
498 510 l 1
498 170 l 1
664 170 l 1
664 0 l 1
0 0 l 1
0 170 l 1
166 170 l 1
166 850 l 1
0 850 l 1
0 1020 l 1
664 1020 m 1
996 1020 l 1
996 850 l 1
1162 850 l 1
1162 510 l 1
830 510 l 1
830 680 l 1
664 681 l 1
664 1020 l 1
EndSplineSet
EndChar

StartChar: s
Encoding: 115 115
Width: 1328
Flags: W
LayerCount: 2
Fore
SplineSet
166 1020 m 1
830 1020 l 1
830 850 l 1
996 850 l 1
996 680 l 1
664 680 l 1
664 850 l 1
332 850 l 1
332 680 l 1
498 680 l 1
498 510 l 1
830 510 l 1
830 340 l 1
996 340 l 1
996 170 l 1
830 170 l 1
830 0 l 1
166 0 l 1
166 170 l 1
0 170 l 1
0 340 l 1
332 340 l 1
332 170 l 1
664 170 l 1
664 340 l 1
498 340 l 1
497 510 l 1
166 510 l 1
166 680 l 1
0 680 l 1
0 850 l 1
166 850 l 1
166 1020 l 1
EndSplineSet
EndChar

StartChar: t
Encoding: 116 116
Width: 1328
Flags: W
LayerCount: 2
Fore
SplineSet
332 1360 m 1
498 1360 l 1
498 1020 l 1
830 1020 l 1
830 850 l 1
498 850 l 1
498 170 l 1
664 170 l 1
664 340 l 1
996 340 l 1
996 170 l 1
830 170 l 1
830 0 l 1
332 0 l 1
332 170 l 1
166 170 l 1
166 850 l 1
0 850 l 1
0 1020 l 1
166 1020 l 1
166 1190 l 1
332 1190 l 1
332 1360 l 1
EndSplineSet
EndChar

StartChar: u
Encoding: 117 117
Width: 1328
Flags: W
LayerCount: 2
Fore
SplineSet
0 1020 m 1
332 1020 l 1
332 170 l 1
664 170 l 1
664 1020 l 1
996 1020 l 1
996 170 l 1
1162 170 l 1
1162 0 l 1
830 0 l 1
830 170 l 1
664 169 l 1
664 0 l 1
166 0 l 1
166 170 l 1
0 170 l 1
0 1020 l 1
EndSplineSet
EndChar

StartChar: v
Encoding: 118 118
Width: 1328
Flags: W
LayerCount: 2
Fore
SplineSet
0 1020 m 1
332 1020 l 1
332 340 l 1
664 340 l 1
664 1020 l 1
996 1020 l 1
996 340 l 1
830 340 l 1
830 170 l 1
664 170 l 1
664 0 l 1
332 0 l 1
332 170 l 1
166 170 l 1
166 340 l 1
0 340 l 1
0 1020 l 1
EndSplineSet
EndChar

StartChar: w
Encoding: 119 119
Width: 1328
Flags: W
LayerCount: 2
Fore
SplineSet
0 1020 m 1
332 1020 l 1
332 340 l 1
498 340 l 1
498 0 l 1
166 0 l 1
166 340 l 1
0 340 l 1
0 1020 l 1
830 1020 m 1
1162 1020 l 1
1162 340 l 1
996 340 l 1
996 0 l 1
664 0 l 1
664 340 l 1
498 341 l 1
498 680 l 1
664 680 l 1
665 340 l 1
830 340 l 1
830 1020 l 1
EndSplineSet
EndChar

StartChar: x
Encoding: 120 120
Width: 1328
Flags: W
LayerCount: 2
Fore
SplineSet
0 1020 m 1
332 1020 l 1
332 850 l 1
498 850 l 1
498 680 l 1
664 680 l 1
664 850 l 1
830 850 l 1
830 1020 l 1
1162 1020 l 1
1162 850 l 1
996 850 l 1
996 680 l 1
830 680 l 1
830 340 l 1
996 340 l 1
996 170 l 1
1162 170 l 1
1162 0 l 1
830 0 l 1
830 170 l 1
664 170 l 1
664 340 l 1
498 340 l 1
498 170 l 1
332 170 l 1
332 0 l 1
0 0 l 1
0 170 l 1
166 170 l 1
166 340 l 1
332 340 l 1
332 680 l 1
166 680 l 1
166 850 l 1
0 850 l 1
0 1020 l 1
EndSplineSet
EndChar

StartChar: y
Encoding: 121 121
Width: 1328
Flags: W
LayerCount: 2
Fore
SplineSet
166 1020 m 1
498 1020 l 1
498 340 l 1
830 340 l 1
830 1020 l 1
1162 1020 l 1
1162 340 l 1
996 340 l 1
996 0 l 1
830 0 l 1
830 -170 l 1
664 -170 l 1
664 -340 l 1
0 -340 l 1
0 -170 l 1
498 -170 l 1
498 0 l 1
664 0 l 1
664 170 l 1
332 170 l 1
332 340 l 1
166 340 l 1
166 1020 l 1
EndSplineSet
EndChar

StartChar: z
Encoding: 122 122
Width: 1328
Flags: W
LayerCount: 2
Fore
SplineSet
0 1020 m 1
996 1020 l 1
996 680 l 1
830 680 l 1
830 510 l 1
498 510 l 1
498 340 l 1
332 340 l 1
332 170 l 1
830 170 l 1
830 340 l 1
996 340 l 1
996 0 l 1
0 0 l 1
0 340 l 1
166 340 l 1
166 510 l 1
498 511 l 1
498 680 l 1
664 680 l 1
664 850 l 1
166 850 l 1
166 680 l 1
0 680 l 1
0 1020 l 1
EndSplineSet
EndChar

StartChar: braceleft
Encoding: 123 123
Width: 1328
Flags: W
LayerCount: 2
Fore
SplineSet
498 1530 m 1
996 1530 l 1
996 1360 l 1
664 1360 l 1
664 1020 l 1
498 1020 l 1
498 850 l 1
332 850 l 1
332 680 l 1
498 680 l 1
498 510 l 1
664 510 l 1
664 170 l 1
996 170 l 1
996 0 l 1
498 0 l 1
498 170 l 1
332 170 l 1
332 510 l 1
166 510 l 1
166 680 l 1
0 680 l 1
0 850 l 1
166 850 l 1
166 1020 l 1
332 1020 l 1
332 1360 l 1
498 1360 l 1
498 1530 l 1
EndSplineSet
EndChar

StartChar: bar
Encoding: 124 124
Width: 1328
Flags: W
LayerCount: 2
Fore
SplineSet
498 1530 m 1
830 1530 l 1
830 0 l 1
498 0 l 1
498 1530 l 1
EndSplineSet
EndChar

StartChar: braceright
Encoding: 125 125
Width: 1328
Flags: W
LayerCount: 2
Fore
SplineSet
0 1530 m 1
498 1530 l 1
498 1360 l 1
664 1360 l 1
664 1020 l 1
830 1020 l 1
830 850 l 1
996 850 l 1
996 680 l 1
830 680 l 1
830 510 l 1
664 510 l 1
664 170 l 1
498 170 l 1
498 0 l 1
0 0 l 1
0 170 l 1
332 170 l 1
332 510 l 1
498 510 l 1
498 680 l 1
664 680 l 1
664 850 l 1
498 850 l 1
498 1020 l 1
332 1020 l 1
332 1360 l 1
0 1360 l 1
0 1530 l 1
EndSplineSet
EndChar

StartChar: asciitilde
Encoding: 126 126
Width: 1328
Flags: W
LayerCount: 2
Fore
SplineSet
166 1530 m 1
664 1530 l 1
664 1360 l 1
830 1360 l 1
830 1190 l 1
996 1190 l 1
996 1530 l 1
1328 1530 l 1
1328 1360 l 1
1162 1360 l 1
1162 1020 l 1
664 1020 l 1
664 1190 l 1
498 1190 l 1
498 1360 l 1
332 1360 l 1
332 1020 l 1
0 1020 l 1
0 1360 l 1
166 1360 l 1
166 1530 l 1
EndSplineSet
EndChar

StartChar: uni007F
Encoding: 127 127
Width: 1328
Flags: W
LayerCount: 2
Fore
SplineSet
498 1190 m 1
664 1190 l 1
664 1020 l 1
830 1020 l 1
830 850 l 1
996 850 l 1
996 680 l 1
1162 680 l 1
1162 170 l 1
0 170 l 1
0 680 l 1
166 680 l 1
166 850 l 1
332 850 l 1
332 1020 l 1
498 1020 l 1
498 1190 l 1
664 850 m 1
498 850 l 1
498 680 l 1
332 680 l 1
332 340 l 1
830 340 l 1
830 680 l 1
664 680 l 1
664 850 l 1
EndSplineSet
EndChar

StartChar: exclamdown
Encoding: 161 161
Width: 1328
Flags: W
LayerCount: 2
Fore
SplineSet
332 1530 m 1
664 1530 l 1
664 1190 l 1
332 1190 l 1
332 1530 l 1
332 1020 m 1
664 1020 l 1
664 680 l 1
830 680 l 1
830 170 l 1
664 170 l 1
664 0 l 1
332 0 l 1
332 170 l 1
166 170 l 1
166 680 l 1
332 680 l 1
332 1020 l 1
EndSplineSet
EndChar

StartChar: cent
Encoding: 162 162
Width: 1328
Flags: W
LayerCount: 2
Fore
SplineSet
332 1530 m 1
664 1530 l 1
664 1190 l 1
830 1190 l 1
830 1020 l 1
996 1020 l 1
996 850 l 1
664 850 l 1
664 1020 l 1
332 1020 l 1
332 340 l 1
664 340 l 1
664 510 l 1
996 510 l 1
996 340 l 1
830 340 l 1
830 170 l 1
664 170 l 1
664 -170 l 1
332 -170 l 1
332 170 l 1
166 170 l 1
166 340 l 1
0 340 l 1
0 1020 l 1
166 1020 l 1
166 1190 l 1
332 1190 l 1
332 1530 l 1
EndSplineSet
EndChar

StartChar: sterling
Encoding: 163 163
Width: 1328
Flags: W
LayerCount: 2
Fore
SplineSet
332 1530 m 1
830 1530 l 1
830 1360 l 1
996 1360 l 1
996 1190 l 1
664 1190 l 1
664 1360 l 1
498 1360 l 1
498 850 l 1
664 850 l 1
664 680 l 1
498 680 l 1
498 340 l 1
664 340 l 1
664 170 l 1
830 170 l 1
830 510 l 1
1162 510 l 1
1162 170 l 1
996 170 l 1
996 0 l 1
664 0 l 1
663 170 l 1
498 170 l 1
498 0 l 1
166 0 l 1
166 170 l 1
0 170 l 1
0 340 l 1
166 340 l 1
166 680 l 1
0 680 l 1
0 850 l 1
166 850 l 1
166 1360 l 1
332 1360 l 1
332 1530 l 1
EndSplineSet
EndChar

StartChar: currency
Encoding: 164 164
Width: 1328
Flags: W
LayerCount: 2
Fore
SplineSet
166 1190 m 1
498 1190 l 1
498 1020 l 1
830 1020 l 1
830 1190 l 1
1162 1190 l 1
1162 1020 l 1
996 1020 l 1
996 510 l 1
1162 510 l 1
1162 340 l 1
830 340 l 1
830 510 l 1
498 510 l 1
498 340 l 1
166 340 l 1
166 510 l 1
332 510 l 1
332 1020 l 1
166 1020 l 1
166 1190 l 1
830 850 m 1
498 850 l 1
498 680 l 1
830 680 l 1
830 850 l 1
EndSplineSet
EndChar

StartChar: yen
Encoding: 165 165
Width: 1328
Flags: W
LayerCount: 2
Fore
SplineSet
0 1700 m 1
332 1700 l 1
332 1020 l 1
664 1020 l 1
664 1700 l 1
996 1700 l 1
996 1020 l 1
830 1020 l 1
830 850 l 1
996 850 l 1
996 680 l 1
664 680 l 1
664 510 l 1
996 510 l 1
996 340 l 1
664 340 l 1
664 0 l 1
332 0 l 1
332 340 l 1
0 340 l 1
0 510 l 1
332 510 l 1
332 680 l 1
0 680 l 1
0 850 l 1
166 850 l 1
166 1020 l 1
0 1020 l 1
0 1700 l 1
EndSplineSet
EndChar

StartChar: brokenbar
Encoding: 166 166
Width: 1328
Flags: W
LayerCount: 2
Fore
SplineSet
498 1530 m 1
830 1530 l 1
830 850 l 1
498 850 l 1
498 1530 l 1
498 680 m 1
830 680 l 1
830 0 l 1
498 0 l 1
498 680 l 1
EndSplineSet
EndChar

StartChar: dieresis
Encoding: 168 168
Width: 1328
Flags: W
LayerCount: 2
Fore
SplineSet
0 1530 m 1
332 1530 l 1
332 1190 l 1
0 1190 l 1
0 1530 l 1
664 1530 m 1
996 1530 l 1
996 1190 l 1
664 1190 l 1
664 1530 l 1
EndSplineSet
EndChar

StartChar: copyright
Encoding: 169 169
Width: 1328
Flags: W
LayerCount: 2
Fore
SplineSet
332 1530 m 1
830 1530 l 1
830 1360 l 1
996 1360 l 1
996 1190 l 1
1162 1190 l 1
1162 340 l 1
996 340 l 1
996 170 l 1
830 170 l 1
830 0 l 1
332 0 l 1
332 170 l 1
166 170 l 1
166 340 l 1
0 340 l 1
0 1190 l 1
166 1190 l 1
166 1360 l 1
332 1360 l 1
332 1530 l 1
829 1360 m 1
332 1359 l 1
332 1190 l 1
166 1189 l 1
167 340 l 1
332 340 l 1
333 170 l 1
830 171 l 1
830 340 l 1
996 341 l 1
995 1190 l 1
830 1190 l 1
829 1360 l 1
333 1190 m 1
830 1189 l 1
830 1020 l 1
498 1020 l 1
498 510 l 1
830 510 l 1
829 340 l 1
332 341 l 1
333 1190 l 1
EndSplineSet
EndChar

StartChar: ordfeminine
Encoding: 170 170
Width: 1328
Flags: W
LayerCount: 2
Fore
SplineSet
166 1700 m 1
830 1700 l 1
830 1530 l 1
996 1530 l 1
996 1020 l 1
1162 1020 l 1
1162 850 l 1
166 850 l 1
166 1020 l 1
0 1020 l 1
0 1190 l 1
166 1190 l 1
166 1360 l 1
664 1360 l 1
664 1530 l 1
166 1530 l 1
166 1700 l 1
664 1190 m 1
332 1190 l 1
332 1020 l 1
664 1020 l 1
664 1190 l 1
0 680 m 1
1162 680 l 1
1162 510 l 1
0 510 l 1
0 680 l 1
EndSplineSet
EndChar

StartChar: guillemotleft
Encoding: 171 171
Width: 1328
Flags: W
LayerCount: 2
Fore
SplineSet
332 1020 m 1
664 1020 l 1
664 850 l 1
498 850 l 1
498 680 l 1
332 680 l 1
332 510 l 1
498 510 l 1
498 340 l 1
664 340 l 1
664 170 l 1
332 170 l 1
332 340 l 1
166 340 l 1
166 510 l 1
0 510 l 1
0 680 l 1
166 680 l 1
166 850 l 1
332 850 l 1
332 1020 l 1
830 1020 m 1
1162 1020 l 1
1162 850 l 1
996 850 l 1
996 680 l 1
830 680 l 1
830 510 l 1
996 510 l 1
996 340 l 1
1162 340 l 1
1162 170 l 1
830 170 l 1
830 340 l 1
664 341 l 1
664 510 l 1
498 511 l 1
499 680 l 1
664 680 l 1
665 850 l 1
830 850 l 1
830 1020 l 1
EndSplineSet
EndChar

StartChar: logicalnot
Encoding: 172 172
Width: 1328
Flags: W
LayerCount: 2
Fore
SplineSet
0 850 m 1
996 850 l 1
996 170 l 1
664 170 l 1
664 680 l 1
0 680 l 1
0 850 l 1
EndSplineSet
EndChar

StartChar: registered
Encoding: 174 174
Width: 1328
Flags: W
LayerCount: 2
Fore
SplineSet
332 1530 m 1
830 1530 l 1
830 1360 l 1
996 1360 l 1
996 1190 l 1
1162 1190 l 1
1162 340 l 1
996 340 l 1
996 170 l 1
830 170 l 1
830 0 l 1
332 0 l 1
332 170 l 1
166 170 l 1
166 340 l 1
0 340 l 1
0 1190 l 1
166 1190 l 1
166 1360 l 1
332 1360 l 1
332 1530 l 1
829 1360 m 1
332 1359 l 1
332 1190 l 1
166 1189 l 1
167 340 l 1
332 340 l 1
333 170 l 1
830 171 l 1
830 340 l 1
996 341 l 1
995 1190 l 1
830 1190 l 1
829 1360 l 1
333 1190 m 1
830 1189 l 1
830 680 l 1
664 680 l 1
664 510 l 1
830 510 l 1
829 340 l 1
664 340 l 1
663 510 l 1
498 510 l 1
498 340 l 1
332 341 l 1
333 1190 l 1
664 1020 m 1
498 1020 l 1
498 850 l 1
664 850 l 1
664 1020 l 1
EndSplineSet
EndChar

StartChar: macron
Encoding: 175 175
Width: 1328
Flags: W
LayerCount: 2
Fore
SplineSet
166 1700 m 1
830 1700 l 1
830 1360 l 1
166 1360 l 1
166 1700 l 1
EndSplineSet
EndChar

StartChar: degree
Encoding: 176 176
Width: 1328
Flags: W
LayerCount: 2
Fore
SplineSet
332 1530 m 1
996 1530 l 1
996 1360 l 1
1162 1360 l 1
1162 850 l 1
996 850 l 1
996 680 l 1
332 680 l 1
332 850 l 1
166 850 l 1
166 1360 l 1
332 1360 l 1
332 1530 l 1
830 1360 m 1
498 1360 l 1
498 850 l 1
830 850 l 1
830 1360 l 1
EndSplineSet
EndChar

StartChar: plusminus
Encoding: 177 177
Width: 1328
Flags: W
LayerCount: 2
Fore
SplineSet
332 1360 m 1
664 1360 l 1
664 1020 l 1
996 1020 l 1
996 850 l 1
664 850 l 1
664 510 l 1
332 510 l 1
332 850 l 1
0 850 l 1
0 1020 l 1
332 1020 l 1
332 1360 l 1
0 340 m 1
996 340 l 1
996 170 l 1
0 170 l 1
0 340 l 1
EndSplineSet
EndChar

StartChar: uni00B2
Encoding: 178 178
Width: 1328
Flags: W
LayerCount: 2
Fore
SplineSet
166 1530 m 1
830 1530 l 1
830 1360 l 1
996 1360 l 1
996 1190 l 1
830 1190 l 1
830 1020 l 1
664 1020 l 1
664 850 l 1
996 850 l 1
996 680 l 1
166 680 l 1
166 850 l 1
332 850 l 1
332 1020 l 1
498 1020 l 1
498 1190 l 1
664 1190 l 1
664 1360 l 1
166 1360 l 1
166 1530 l 1
EndSplineSet
EndChar

StartChar: uni00B3
Encoding: 179 179
Width: 1328
Flags: W
LayerCount: 2
Fore
SplineSet
166 1530 m 1
830 1530 l 1
830 1360 l 1
996 1360 l 1
996 1190 l 1
830 1190 l 1
830 1020 l 1
996 1020 l 1
996 850 l 1
830 850 l 1
830 680 l 1
166 680 l 1
166 850 l 1
664 850 l 1
664 1020 l 1
332 1020 l 1
332 1190 l 1
664 1190 l 1
664 1360 l 1
166 1360 l 1
166 1530 l 1
EndSplineSet
EndChar

StartChar: acute
Encoding: 180 180
Width: 1328
Flags: W
LayerCount: 2
Fore
SplineSet
664 1700 m 1
996 1700 l 1
996 1530 l 1
830 1530 l 1
830 1360 l 1
664 1360 l 1
664 1190 l 1
332 1190 l 1
332 1360 l 1
498 1360 l 1
498 1530 l 1
664 1530 l 1
664 1700 l 1
EndSplineSet
EndChar

StartChar: mu
Encoding: 181 181
Width: 1328
Flags: W
LayerCount: 2
Fore
SplineSet
166 1020 m 1
498 1020 l 1
498 170 l 1
830 170 l 1
830 1020 l 1
1162 1020 l 1
1162 170 l 1
1328 170 l 1
1328 0 l 1
996 0 l 1
996 170 l 1
830 169 l 1
830 0 l 1
498 0 l 1
498 -170 l 1
332 -170 l 1
332 -340 l 1
0 -340 l 1
0 -170 l 1
166 -170 l 1
166 1020 l 1
EndSplineSet
EndChar

StartChar: periodcentered
Encoding: 183 183
Width: 1328
Flags: W
LayerCount: 2
Fore
SplineSet
498 850 m 1
830 850 l 1
830 680 l 1
498 680 l 1
498 850 l 1
EndSplineSet
EndChar

StartChar: cedilla
Encoding: 184 184
Width: 1328
Flags: W
LayerCount: 2
Fore
SplineSet
332 0 m 1
664 0 l 1
664 -340 l 1
166 -340 l 1
166 -170 l 1
332 -170 l 1
332 0 l 1
EndSplineSet
EndChar

StartChar: uni00B9
Encoding: 185 185
Width: 1328
Flags: W
LayerCount: 2
Fore
SplineSet
332 1530 m 1
664 1530 l 1
664 850 l 1
830 850 l 1
830 680 l 1
166 680 l 1
166 850 l 1
332 850 l 1
332 1190 l 1
166 1190 l 1
166 1360 l 1
332 1360 l 1
332 1530 l 1
EndSplineSet
EndChar

StartChar: ordmasculine
Encoding: 186 186
Width: 1328
Flags: W
LayerCount: 2
Fore
SplineSet
166 1530 m 1
830 1530 l 1
830 1360 l 1
996 1360 l 1
996 1020 l 1
830 1020 l 1
830 850 l 1
166 850 l 1
166 1020 l 1
0 1020 l 1
0 1360 l 1
166 1360 l 1
166 1530 l 1
664 1360 m 1
332 1360 l 1
332 1020 l 1
664 1020 l 1
664 1360 l 1
0 680 m 1
996 680 l 1
996 510 l 1
0 510 l 1
0 680 l 1
EndSplineSet
EndChar

StartChar: guillemotright
Encoding: 187 187
Width: 1328
Flags: W
LayerCount: 2
Fore
SplineSet
166 1020 m 1
498 1020 l 1
498 850 l 1
664 850 l 1
664 680 l 1
830 680 l 1
830 510 l 1
664 510 l 1
664 340 l 1
498 340 l 1
498 170 l 1
166 170 l 1
166 340 l 1
332 340 l 1
332 510 l 1
498 510 l 1
498 680 l 1
332 680 l 1
332 850 l 1
166 850 l 1
166 1020 l 1
664 1020 m 1
996 1020 l 1
996 850 l 1
1162 850 l 1
1162 680 l 1
1328 680 l 1
1328 510 l 1
1162 510 l 1
1162 340 l 1
996 340 l 1
996 170 l 1
664 170 l 1
665 340 l 1
830 340 l 1
831 510 l 1
996 510 l 1
996 680 l 1
830 681 l 1
830 850 l 1
664 851 l 1
664 1020 l 1
EndSplineSet
EndChar

StartChar: onequarter
Encoding: 188 188
Width: 1328
Flags: W
LayerCount: 2
Fore
SplineSet
166 1700 m 1
498 1700 l 1
498 1020 l 1
664 1020 l 1
664 1190 l 1
830 1190 l 1
830 1360 l 1
996 1360 l 1
996 1530 l 1
1162 1530 l 1
1162 1190 l 1
996 1190 l 1
996 1020 l 1
830 1020 l 1
830 850 l 1
664 850 l 1
664 680 l 1
498 680 l 1
498 510 l 1
332 510 l 1
332 340 l 1
166 340 l 1
166 170 l 1
0 170 l 1
0 510 l 1
166 510 l 1
166 680 l 1
332 680 l 1
332 850 l 1
166 850 l 1
166 1360 l 1
0 1360 l 1
0 1530 l 1
166 1530 l 1
166 1700 l 1
831 850 m 1
1328 850 l 1
1328 -170 l 1
996 -170 l 1
996 0 l 1
332 0 l 1
333 340 l 1
498 340 l 1
499 510 l 1
664 510 l 1
665 680 l 1
830 680 l 1
831 850 l 1
996 510 m 1
830 510 l 1
830 340 l 1
664 340 l 1
664 170 l 1
996 170 l 1
996 510 l 1
EndSplineSet
EndChar

StartChar: onehalf
Encoding: 189 189
Width: 1328
Flags: W
LayerCount: 2
Fore
SplineSet
166 1700 m 1
498 1700 l 1
498 1020 l 1
664 1020 l 1
664 1190 l 1
830 1190 l 1
830 1360 l 1
996 1360 l 1
996 1530 l 1
1162 1530 l 1
1162 1190 l 1
996 1190 l 1
996 1020 l 1
830 1020 l 1
830 850 l 1
664 850 l 1
664 680 l 1
498 680 l 1
498 510 l 1
332 510 l 1
332 340 l 1
166 340 l 1
166 170 l 1
0 170 l 1
0 510 l 1
166 510 l 1
166 680 l 1
332 680 l 1
332 850 l 1
166 850 l 1
166 1360 l 1
0 1360 l 1
0 1530 l 1
166 1530 l 1
166 1700 l 1
665 680 m 1
1162 680 l 1
1162 510 l 1
1328 510 l 1
1328 340 l 1
1162 340 l 1
1162 170 l 1
996 170 l 1
996 0 l 1
1328 0 l 1
1328 -170 l 1
498 -170 l 1
498 0 l 1
664 0 l 1
664 170 l 1
830 170 l 1
830 340 l 1
996 340 l 1
996 510 l 1
664 510 l 1
665 680 l 1
EndSplineSet
EndChar

StartChar: threequarters
Encoding: 190 190
Width: 1328
Flags: W
LayerCount: 2
Fore
SplineSet
0 1700 m 1
498 1700 l 1
498 1530 l 1
664 1530 l 1
664 1360 l 1
498 1360 l 1
498 1190 l 1
830 1190 l 1
830 1360 l 1
996 1360 l 1
996 1530 l 1
1162 1530 l 1
1162 1190 l 1
996 1190 l 1
996 1020 l 1
830 1020 l 1
830 850 l 1
664 850 l 1
664 680 l 1
498 680 l 1
498 510 l 1
332 510 l 1
332 340 l 1
166 340 l 1
166 170 l 1
0 170 l 1
0 510 l 1
166 510 l 1
166 680 l 1
332 680 l 1
332 850 l 1
0 850 l 1
0 1020 l 1
332 1020 l 1
332 1190 l 1
166 1190 l 1
166 1360 l 1
332 1360 l 1
332 1530 l 1
0 1530 l 1
0 1700 l 1
831 850 m 1
1328 850 l 1
1328 -170 l 1
996 -170 l 1
996 0 l 1
332 0 l 1
333 340 l 1
498 340 l 1
499 510 l 1
664 510 l 1
665 680 l 1
830 680 l 1
831 850 l 1
996 510 m 1
830 510 l 1
830 340 l 1
664 340 l 1
664 170 l 1
996 170 l 1
996 510 l 1
EndSplineSet
EndChar

StartChar: questiondown
Encoding: 191 191
Width: 1328
Flags: W
LayerCount: 2
Fore
SplineSet
332 1530 m 1
664 1530 l 1
664 1190 l 1
332 1190 l 1
332 1530 l 1
332 1020 m 1
664 1020 l 1
664 850 l 1
498 850 l 1
498 680 l 1
332 680 l 1
332 170 l 1
664 170 l 1
664 340 l 1
996 340 l 1
996 170 l 1
830 170 l 1
830 0 l 1
166 0 l 1
166 170 l 1
0 170 l 1
0 680 l 1
166 680 l 1
166 850 l 1
332 850 l 1
332 1020 l 1
EndSplineSet
EndChar

StartChar: Agrave
Encoding: 192 192
Width: 1328
Flags: W
LayerCount: 2
Fore
SplineSet
166 1700 m 1
498 1700 l 1
498 1530 l 1
664 1530 l 1
664 1360 l 1
332 1360 l 1
332 1530 l 1
166 1530 l 1
166 1700 l 1
332 1190 m 1
664 1190 l 1
664 1020 l 1
830 1020 l 1
830 850 l 1
996 850 l 1
996 0 l 1
664 0 l 1
664 340 l 1
332 340 l 1
332 0 l 1
0 0 l 1
0 850 l 1
166 850 l 1
166 1020 l 1
332 1020 l 1
332 1190 l 1
664 850 m 1
332 850 l 1
332 510 l 1
664 510 l 1
664 850 l 1
EndSplineSet
EndChar

StartChar: Aacute
Encoding: 193 193
Width: 1328
Flags: W
LayerCount: 2
Fore
SplineSet
498 1700 m 1
830 1700 l 1
830 1530 l 1
664 1530 l 1
664 1360 l 1
332 1360 l 1
332 1530 l 1
498 1530 l 1
498 1700 l 1
332 1190 m 1
664 1190 l 1
664 1020 l 1
830 1020 l 1
830 850 l 1
996 850 l 1
996 0 l 1
664 0 l 1
664 340 l 1
332 340 l 1
332 0 l 1
0 0 l 1
0 850 l 1
166 850 l 1
166 1020 l 1
332 1020 l 1
332 1190 l 1
664 850 m 1
332 850 l 1
332 510 l 1
664 510 l 1
664 850 l 1
EndSplineSet
EndChar

StartChar: Acircumflex
Encoding: 194 194
Width: 1328
Flags: W
LayerCount: 2
Fore
SplineSet
166 1700 m 1
830 1700 l 1
830 1530 l 1
996 1530 l 1
996 1360 l 1
664 1360 l 1
664 1530 l 1
332 1530 l 1
332 1360 l 1
0 1360 l 1
0 1530 l 1
166 1530 l 1
166 1700 l 1
332 1190 m 1
664 1190 l 1
664 1020 l 1
830 1020 l 1
830 850 l 1
996 850 l 1
996 0 l 1
664 0 l 1
664 340 l 1
332 340 l 1
332 0 l 1
0 0 l 1
0 850 l 1
166 850 l 1
166 1020 l 1
332 1020 l 1
332 1190 l 1
664 850 m 1
332 850 l 1
332 510 l 1
664 510 l 1
664 850 l 1
EndSplineSet
EndChar

StartChar: Atilde
Encoding: 195 195
Width: 1328
Flags: W
LayerCount: 2
Fore
SplineSet
166 1700 m 1
664 1700 l 1
664 1530 l 1
830 1530 l 1
830 1700 l 1
1162 1700 l 1
1162 1530 l 1
996 1530 l 1
996 1360 l 1
498 1360 l 1
498 1530 l 1
332 1530 l 1
332 1360 l 1
0 1360 l 1
0 1530 l 1
166 1530 l 1
166 1700 l 1
332 1190 m 1
664 1190 l 1
664 1020 l 1
830 1020 l 1
830 850 l 1
996 850 l 1
996 0 l 1
664 0 l 1
664 340 l 1
332 340 l 1
332 0 l 1
0 0 l 1
0 850 l 1
166 850 l 1
166 1020 l 1
332 1020 l 1
332 1190 l 1
664 850 m 1
332 850 l 1
332 510 l 1
664 510 l 1
664 850 l 1
EndSplineSet
EndChar

StartChar: Adieresis
Encoding: 196 196
Width: 1328
Flags: W
LayerCount: 2
Fore
SplineSet
0 1700 m 1
332 1700 l 1
332 1360 l 1
0 1360 l 1
0 1700 l 1
664 1700 m 1
996 1700 l 1
996 1360 l 1
664 1360 l 1
664 1700 l 1
332 1190 m 1
664 1190 l 1
664 1020 l 1
830 1020 l 1
830 850 l 1
996 850 l 1
996 0 l 1
664 0 l 1
664 340 l 1
332 340 l 1
332 0 l 1
0 0 l 1
0 850 l 1
166 850 l 1
166 1020 l 1
332 1020 l 1
332 1190 l 1
664 850 m 1
332 850 l 1
332 510 l 1
664 510 l 1
664 850 l 1
EndSplineSet
EndChar

StartChar: Aring
Encoding: 197 197
Width: 1328
Flags: W
LayerCount: 2
Fore
SplineSet
166 1700 m 1
830 1700 l 1
830 1530 l 1
996 1530 l 1
996 1190 l 1
830 1190 l 1
830 850 l 1
996 850 l 1
996 0 l 1
664 0 l 1
664 340 l 1
332 340 l 1
332 0 l 1
0 0 l 1
0 850 l 1
166 850 l 1
166 1190 l 1
0 1190 l 1
0 1530 l 1
166 1530 l 1
166 1700 l 1
664 1530 m 1
332 1530 l 1
332 1190 l 1
664 1190 l 1
664 1530 l 1
664 850 m 1
332 850 l 1
332 510 l 1
664 510 l 1
664 850 l 1
EndSplineSet
EndChar

StartChar: AE
Encoding: 198 198
Width: 1328
Flags: W
LayerCount: 2
Fore
SplineSet
332 1530 m 1
1162 1530 l 1
1162 1360 l 1
830 1360 l 1
830 850 l 1
1162 850 l 1
1162 680 l 1
830 680 l 1
830 170 l 1
1162 170 l 1
1162 0 l 1
498 0 l 1
498 680 l 1
332 680 l 1
332 0 l 1
0 0 l 1
0 1190 l 1
166 1190 l 1
166 1360 l 1
332 1360 l 1
332 1530 l 1
498 1190 m 1
332 1190 l 1
332 850 l 1
498 850 l 1
498 1190 l 1
EndSplineSet
EndChar

StartChar: Ccedilla
Encoding: 199 199
Width: 1328
Flags: W
LayerCount: 2
Fore
SplineSet
332 1530 m 1
996 1530 l 1
996 1360 l 1
1162 1360 l 1
1162 1020 l 1
830 1020 l 1
830 1360 l 1
498 1360 l 1
498 1190 l 1
332 1190 l 1
332 340 l 1
498 340 l 1
498 170 l 1
830 170 l 1
830 510 l 1
1162 510 l 1
1162 170 l 1
996 170 l 1
996 0 l 1
830 0 l 1
830 -170 l 1
664 -170 l 1
664 -340 l 1
332 -340 l 1
332 -170 l 1
498 -170 l 1
498 0 l 1
332 0 l 1
332 170 l 1
166 170 l 1
166 340 l 1
0 340 l 1
0 1190 l 1
166 1190 l 1
166 1360 l 1
332 1360 l 1
332 1530 l 1
EndSplineSet
EndChar

StartChar: Egrave
Encoding: 200 200
Width: 1328
Flags: W
LayerCount: 2
Fore
SplineSet
332 1700 m 1
664 1700 l 1
664 1530 l 1
830 1530 l 1
830 1360 l 1
498 1360 l 1
498 1530 l 1
332 1530 l 1
332 1700 l 1
0 1190 m 1
1162 1190 l 1
1162 850 l 1
996 850 l 1
996 1020 l 1
498 1020 l 1
498 680 l 1
664 680 l 1
664 850 l 1
830 850 l 1
830 340 l 1
664 340 l 1
664 510 l 1
498 510 l 1
498 170 l 1
996 170 l 1
996 340 l 1
1162 340 l 1
1162 0 l 1
0 0 l 1
0 170 l 1
166 170 l 1
166 1020 l 1
0 1020 l 1
0 1190 l 1
EndSplineSet
EndChar

StartChar: Eacute
Encoding: 201 201
Width: 1328
Flags: W
LayerCount: 2
Fore
SplineSet
664 1700 m 1
996 1700 l 1
996 1530 l 1
830 1530 l 1
830 1360 l 1
498 1360 l 1
498 1530 l 1
664 1530 l 1
664 1700 l 1
0 1190 m 1
1162 1190 l 1
1162 850 l 1
996 850 l 1
996 1020 l 1
498 1020 l 1
498 680 l 1
664 680 l 1
664 850 l 1
830 850 l 1
830 340 l 1
664 340 l 1
664 510 l 1
498 510 l 1
498 170 l 1
996 170 l 1
996 340 l 1
1162 340 l 1
1162 0 l 1
0 0 l 1
0 170 l 1
166 170 l 1
166 1020 l 1
0 1020 l 1
0 1190 l 1
EndSplineSet
EndChar

StartChar: Ecircumflex
Encoding: 202 202
Width: 1328
Flags: W
LayerCount: 2
Fore
SplineSet
332 1700 m 1
996 1700 l 1
996 1530 l 1
1162 1530 l 1
1162 1360 l 1
830 1360 l 1
830 1530 l 1
498 1530 l 1
498 1360 l 1
166 1360 l 1
166 1530 l 1
332 1530 l 1
332 1700 l 1
0 1190 m 1
1162 1190 l 1
1162 850 l 1
996 850 l 1
996 1020 l 1
498 1020 l 1
498 680 l 1
664 680 l 1
664 850 l 1
830 850 l 1
830 340 l 1
664 340 l 1
664 510 l 1
498 510 l 1
498 170 l 1
996 170 l 1
996 340 l 1
1162 340 l 1
1162 0 l 1
0 0 l 1
0 170 l 1
166 170 l 1
166 1020 l 1
0 1020 l 1
0 1190 l 1
EndSplineSet
EndChar

StartChar: Edieresis
Encoding: 203 203
Width: 1328
Flags: W
LayerCount: 2
Fore
SplineSet
166 1700 m 1
498 1700 l 1
498 1360 l 1
166 1360 l 1
166 1700 l 1
830 1700 m 1
1162 1700 l 1
1162 1360 l 1
830 1360 l 1
830 1700 l 1
0 1190 m 1
1162 1190 l 1
1162 850 l 1
996 850 l 1
996 1020 l 1
498 1020 l 1
498 680 l 1
664 680 l 1
664 850 l 1
830 850 l 1
830 340 l 1
664 340 l 1
664 510 l 1
498 510 l 1
498 170 l 1
996 170 l 1
996 340 l 1
1162 340 l 1
1162 0 l 1
0 0 l 1
0 170 l 1
166 170 l 1
166 1020 l 1
0 1020 l 1
0 1190 l 1
EndSplineSet
EndChar

StartChar: Igrave
Encoding: 204 204
Width: 1328
Flags: W
LayerCount: 2
Fore
SplineSet
166 1700 m 1
498 1700 l 1
498 1530 l 1
664 1530 l 1
664 1360 l 1
332 1360 l 1
332 1530 l 1
166 1530 l 1
166 1700 l 1
166 1190 m 1
830 1190 l 1
830 1020 l 1
664 1020 l 1
664 170 l 1
830 170 l 1
830 0 l 1
166 0 l 1
166 170 l 1
332 170 l 1
332 1020 l 1
166 1020 l 1
166 1190 l 1
EndSplineSet
EndChar

StartChar: Iacute
Encoding: 205 205
Width: 1328
Flags: W
LayerCount: 2
Fore
SplineSet
498 1700 m 1
830 1700 l 1
830 1530 l 1
664 1530 l 1
664 1360 l 1
332 1360 l 1
332 1530 l 1
498 1530 l 1
498 1700 l 1
166 1190 m 1
830 1190 l 1
830 1020 l 1
664 1020 l 1
664 170 l 1
830 170 l 1
830 0 l 1
166 0 l 1
166 170 l 1
332 170 l 1
332 1020 l 1
166 1020 l 1
166 1190 l 1
EndSplineSet
EndChar

StartChar: Icircumflex
Encoding: 206 206
Width: 1328
Flags: W
LayerCount: 2
Fore
SplineSet
166 1700 m 1
830 1700 l 1
830 1530 l 1
996 1530 l 1
996 1360 l 1
664 1360 l 1
664 1530 l 1
332 1530 l 1
332 1360 l 1
0 1360 l 1
0 1530 l 1
166 1530 l 1
166 1700 l 1
166 1190 m 1
830 1190 l 1
830 1020 l 1
664 1020 l 1
664 170 l 1
830 170 l 1
830 0 l 1
166 0 l 1
166 170 l 1
332 170 l 1
332 1020 l 1
166 1020 l 1
166 1190 l 1
EndSplineSet
EndChar

StartChar: Idieresis
Encoding: 207 207
Width: 1328
Flags: W
LayerCount: 2
Fore
SplineSet
0 1700 m 1
332 1700 l 1
332 1360 l 1
0 1360 l 1
0 1700 l 1
664 1700 m 1
996 1700 l 1
996 1360 l 1
664 1360 l 1
664 1700 l 1
166 1190 m 1
830 1190 l 1
830 1020 l 1
664 1020 l 1
664 170 l 1
830 170 l 1
830 0 l 1
166 0 l 1
166 170 l 1
332 170 l 1
332 1020 l 1
166 1020 l 1
166 1190 l 1
EndSplineSet
EndChar

StartChar: Eth
Encoding: 208 208
Width: 1328
Flags: W
LayerCount: 2
Fore
SplineSet
0 1530 m 1
830 1530 l 1
830 1360 l 1
996 1360 l 1
996 1190 l 1
1162 1190 l 1
1162 340 l 1
996 340 l 1
996 170 l 1
830 170 l 1
830 0 l 1
0 0 l 1
0 170 l 1
166 170 l 1
166 680 l 1
0 680 l 1
0 850 l 1
166 850 l 1
166 1360 l 1
0 1360 l 1
0 1530 l 1
664 1360 m 1
498 1360 l 1
498 850 l 1
664 850 l 1
664 680 l 1
498 680 l 1
498 170 l 1
664 170 l 1
664 340 l 1
830 340 l 1
830 1190 l 1
664 1190 l 1
664 1360 l 1
EndSplineSet
EndChar

StartChar: Ntilde
Encoding: 209 209
Width: 1328
Flags: W
LayerCount: 2
Fore
SplineSet
166 1700 m 1
664 1700 l 1
664 1530 l 1
830 1530 l 1
830 1700 l 1
1162 1700 l 1
1162 1530 l 1
996 1530 l 1
996 1360 l 1
498 1360 l 1
498 1530 l 1
332 1530 l 1
332 1360 l 1
0 1360 l 1
0 1530 l 1
166 1530 l 1
166 1700 l 1
0 1190 m 1
332 1190 l 1
332 1020 l 1
498 1020 l 1
498 850 l 1
664 850 l 1
664 680 l 1
830 680 l 1
830 1190 l 1
1162 1190 l 1
1162 0 l 1
830 0 l 1
830 340 l 1
664 340 l 1
664 510 l 1
498 510 l 1
498 680 l 1
332 680 l 1
332 0 l 1
0 0 l 1
0 1190 l 1
EndSplineSet
EndChar

StartChar: Ograve
Encoding: 210 210
Width: 1328
Flags: W
LayerCount: 2
Fore
SplineSet
166 1700 m 1
498 1700 l 1
498 1530 l 1
664 1530 l 1
664 1360 l 1
332 1360 l 1
332 1530 l 1
166 1530 l 1
166 1700 l 1
166 1190 m 1
830 1190 l 1
830 1020 l 1
996 1020 l 1
996 170 l 1
830 170 l 1
830 0 l 1
166 0 l 1
166 170 l 1
0 170 l 1
0 1020 l 1
166 1020 l 1
166 1190 l 1
664 1020 m 1
332 1020 l 1
332 170 l 1
664 170 l 1
664 1020 l 1
EndSplineSet
EndChar

StartChar: Oacute
Encoding: 211 211
Width: 1328
Flags: W
LayerCount: 2
Fore
SplineSet
498 1700 m 1
830 1700 l 1
830 1530 l 1
664 1530 l 1
664 1360 l 1
332 1360 l 1
332 1530 l 1
498 1530 l 1
498 1700 l 1
166 1190 m 1
830 1190 l 1
830 1020 l 1
996 1020 l 1
996 170 l 1
830 170 l 1
830 0 l 1
166 0 l 1
166 170 l 1
0 170 l 1
0 1020 l 1
166 1020 l 1
166 1190 l 1
664 1020 m 1
332 1020 l 1
332 170 l 1
664 170 l 1
664 1020 l 1
EndSplineSet
EndChar

StartChar: Ocircumflex
Encoding: 212 212
Width: 1328
Flags: W
LayerCount: 2
Fore
SplineSet
166 1700 m 1
830 1700 l 1
830 1530 l 1
996 1530 l 1
996 1360 l 1
664 1360 l 1
664 1530 l 1
332 1530 l 1
332 1360 l 1
0 1360 l 1
0 1530 l 1
166 1530 l 1
166 1700 l 1
166 1190 m 1
830 1190 l 1
830 1020 l 1
996 1020 l 1
996 170 l 1
830 170 l 1
830 0 l 1
166 0 l 1
166 170 l 1
0 170 l 1
0 1020 l 1
166 1020 l 1
166 1190 l 1
664 1020 m 1
332 1020 l 1
332 170 l 1
664 170 l 1
664 1020 l 1
EndSplineSet
EndChar

StartChar: Otilde
Encoding: 213 213
Width: 1328
Flags: W
LayerCount: 2
Fore
SplineSet
166 1700 m 1
664 1700 l 1
664 1530 l 1
830 1530 l 1
830 1700 l 1
1162 1700 l 1
1162 1530 l 1
996 1530 l 1
996 1360 l 1
498 1360 l 1
498 1530 l 1
332 1530 l 1
332 1360 l 1
0 1360 l 1
0 1530 l 1
166 1530 l 1
166 1700 l 1
166 1190 m 1
830 1190 l 1
830 1020 l 1
996 1020 l 1
996 170 l 1
830 170 l 1
830 0 l 1
166 0 l 1
166 170 l 1
0 170 l 1
0 1020 l 1
166 1020 l 1
166 1190 l 1
664 1020 m 1
332 1020 l 1
332 170 l 1
664 170 l 1
664 1020 l 1
EndSplineSet
EndChar

StartChar: Odieresis
Encoding: 214 214
Width: 1328
Flags: W
LayerCount: 2
Fore
SplineSet
0 1700 m 1
332 1700 l 1
332 1360 l 1
0 1360 l 1
0 1700 l 1
664 1700 m 1
996 1700 l 1
996 1360 l 1
664 1360 l 1
664 1700 l 1
166 1190 m 1
830 1190 l 1
830 1020 l 1
996 1020 l 1
996 170 l 1
830 170 l 1
830 0 l 1
166 0 l 1
166 170 l 1
0 170 l 1
0 1020 l 1
166 1020 l 1
166 1190 l 1
664 1020 m 1
332 1020 l 1
332 170 l 1
664 170 l 1
664 1020 l 1
EndSplineSet
EndChar

StartChar: multiply
Encoding: 215 215
Width: 1328
Flags: W
LayerCount: 2
Fore
SplineSet
166 1190 m 1
498 1190 l 1
498 1020 l 1
830 1020 l 1
830 1190 l 1
1162 1190 l 1
1162 1020 l 1
996 1020 l 1
996 850 l 1
830 850 l 1
830 680 l 1
996 680 l 1
996 510 l 1
1162 510 l 1
1162 340 l 1
830 340 l 1
830 510 l 1
498 510 l 1
498 340 l 1
166 340 l 1
166 510 l 1
332 510 l 1
332 680 l 1
498 680 l 1
498 850 l 1
332 850 l 1
332 1020 l 1
166 1020 l 1
166 1190 l 1
EndSplineSet
EndChar

StartChar: Oslash
Encoding: 216 216
Width: 1328
Flags: W
LayerCount: 2
Fore
SplineSet
332 1530 m 1
830 1530 l 1
830 1360 l 1
996 1360 l 1
996 1530 l 1
1162 1530 l 1
1162 1360 l 1
996 1359 l 1
996 1190 l 1
1162 1190 l 1
1162 340 l 1
996 340 l 1
996 170 l 1
830 170 l 1
830 0 l 1
332 0 l 1
332 170 l 1
166 170 l 1
166 0 l 1
0 0 l 1
0 170 l 1
166 171 l 1
166 340 l 1
0 340 l 1
0 1190 l 1
166 1190 l 1
166 1360 l 1
332 1360 l 1
332 1530 l 1
664 1360 m 1
498 1360 l 1
498 1190 l 1
332 1190 l 1
332 510 l 1
498 510 l 1
498 170 l 1
664 170 l 1
664 340 l 1
830 340 l 1
830 1020 l 1
664 1020 l 1
664 1360 l 1
498 1020 m 1
664 1019 l 1
664 510 l 1
498 511 l 1
498 1020 l 1
EndSplineSet
EndChar

StartChar: Ugrave
Encoding: 217 217
Width: 1328
Flags: W
LayerCount: 2
Fore
SplineSet
166 1700 m 1
498 1700 l 1
498 1530 l 1
664 1530 l 1
664 1360 l 1
332 1360 l 1
332 1530 l 1
166 1530 l 1
166 1700 l 1
0 1190 m 1
332 1190 l 1
332 170 l 1
664 170 l 1
664 1190 l 1
996 1190 l 1
996 170 l 1
830 170 l 1
830 0 l 1
166 0 l 1
166 170 l 1
0 170 l 1
0 1190 l 1
EndSplineSet
EndChar

StartChar: Uacute
Encoding: 218 218
Width: 1328
Flags: W
LayerCount: 2
Fore
SplineSet
498 1700 m 1
830 1700 l 1
830 1530 l 1
664 1530 l 1
664 1360 l 1
332 1360 l 1
332 1530 l 1
498 1530 l 1
498 1700 l 1
0 1190 m 1
332 1190 l 1
332 170 l 1
664 170 l 1
664 1190 l 1
996 1190 l 1
996 170 l 1
830 170 l 1
830 0 l 1
166 0 l 1
166 170 l 1
0 170 l 1
0 1190 l 1
EndSplineSet
EndChar

StartChar: Ucircumflex
Encoding: 219 219
Width: 1328
Flags: W
LayerCount: 2
Fore
SplineSet
166 1700 m 1
830 1700 l 1
830 1530 l 1
996 1530 l 1
996 1360 l 1
664 1360 l 1
664 1530 l 1
332 1530 l 1
332 1360 l 1
0 1360 l 1
0 1530 l 1
166 1530 l 1
166 1700 l 1
0 1190 m 1
332 1190 l 1
332 170 l 1
664 170 l 1
664 1190 l 1
996 1190 l 1
996 170 l 1
830 170 l 1
830 0 l 1
166 0 l 1
166 170 l 1
0 170 l 1
0 1190 l 1
EndSplineSet
EndChar

StartChar: Udieresis
Encoding: 220 220
Width: 1328
Flags: W
LayerCount: 2
Fore
SplineSet
0 1700 m 1
332 1700 l 1
332 1360 l 1
0 1360 l 1
0 1700 l 1
664 1700 m 1
996 1700 l 1
996 1360 l 1
664 1360 l 1
664 1700 l 1
0 1190 m 1
332 1190 l 1
332 170 l 1
664 170 l 1
664 1190 l 1
996 1190 l 1
996 170 l 1
830 170 l 1
830 0 l 1
166 0 l 1
166 170 l 1
0 170 l 1
0 1190 l 1
EndSplineSet
EndChar

StartChar: Yacute
Encoding: 221 221
Width: 1328
Flags: W
LayerCount: 2
Fore
SplineSet
498 1700 m 1
830 1700 l 1
830 1530 l 1
664 1530 l 1
664 1360 l 1
332 1360 l 1
332 1530 l 1
498 1530 l 1
498 1700 l 1
0 1190 m 1
332 1190 l 1
332 680 l 1
664 680 l 1
664 1190 l 1
996 1190 l 1
996 680 l 1
830 680 l 1
830 510 l 1
664 510 l 1
664 170 l 1
830 170 l 1
830 0 l 1
166 0 l 1
166 170 l 1
332 170 l 1
332 510 l 1
166 510 l 1
166 680 l 1
0 680 l 1
0 1190 l 1
EndSplineSet
EndChar

StartChar: Thorn
Encoding: 222 222
Width: 1328
Flags: W
LayerCount: 2
Fore
SplineSet
0 1530 m 1
664 1530 l 1
664 1360 l 1
498 1360 l 1
498 1190 l 1
996 1190 l 1
996 1020 l 1
1162 1020 l 1
1162 510 l 1
996 510 l 1
996 340 l 1
498 340 l 1
498 170 l 1
664 170 l 1
664 0 l 1
0 0 l 1
0 170 l 1
166 170 l 1
166 1360 l 1
0 1360 l 1
0 1530 l 1
830 1020 m 1
498 1020 l 1
498 510 l 1
830 510 l 1
830 1020 l 1
EndSplineSet
EndChar

StartChar: germandbls
Encoding: 223 223
Width: 1328
Flags: W
LayerCount: 2
Fore
SplineSet
166 1360 m 1
830 1360 l 1
830 1190 l 1
996 1190 l 1
996 850 l 1
830 850 l 1
830 680 l 1
996 680 l 1
996 170 l 1
830 170 l 1
830 0 l 1
498 0 l 1
498 170 l 1
664 170 l 1
664 680 l 1
498 680 l 1
498 850 l 1
664 850 l 1
664 1190 l 1
332 1190 l 1
332 -170 l 1
0 -170 l 1
0 1190 l 1
166 1190 l 1
166 1360 l 1
EndSplineSet
EndChar

StartChar: agrave
Encoding: 224 224
Width: 1328
Flags: W
LayerCount: 2
Fore
SplineSet
0 1700 m 1
332 1700 l 1
332 1530 l 1
498 1530 l 1
498 1360 l 1
664 1360 l 1
664 1190 l 1
332 1190 l 1
332 1360 l 1
166 1360 l 1
166 1530 l 1
0 1530 l 1
0 1700 l 1
166 1020 m 1
830 1020 l 1
830 850 l 1
996 850 l 1
996 170 l 1
1162 170 l 1
1162 0 l 1
830 0 l 1
830 170 l 1
664 170 l 1
664 0 l 1
166 0 l 1
166 170 l 1
0 170 l 1
0 510 l 1
166 510 l 1
166 680 l 1
664 680 l 1
664 850 l 1
166 850 l 1
166 1020 l 1
664 510 m 1
332 510 l 1
332 170 l 1
664 171 l 1
664 510 l 1
EndSplineSet
EndChar

StartChar: aacute
Encoding: 225 225
Width: 1328
Flags: W
LayerCount: 2
Fore
SplineSet
664 1700 m 1
996 1700 l 1
996 1530 l 1
830 1530 l 1
830 1360 l 1
664 1360 l 1
664 1190 l 1
332 1190 l 1
332 1360 l 1
498 1360 l 1
498 1530 l 1
664 1530 l 1
664 1700 l 1
166 1020 m 1
830 1020 l 1
830 850 l 1
996 850 l 1
996 170 l 1
1162 170 l 1
1162 0 l 1
830 0 l 1
830 170 l 1
664 170 l 1
664 0 l 1
166 0 l 1
166 170 l 1
0 170 l 1
0 510 l 1
166 510 l 1
166 680 l 1
664 680 l 1
664 850 l 1
166 850 l 1
166 1020 l 1
664 510 m 1
332 510 l 1
332 170 l 1
664 171 l 1
664 510 l 1
EndSplineSet
EndChar

StartChar: acircumflex
Encoding: 226 226
Width: 1328
Flags: W
LayerCount: 2
Fore
SplineSet
332 1700 m 1
664 1700 l 1
664 1530 l 1
830 1530 l 1
830 1360 l 1
996 1360 l 1
996 1190 l 1
664 1190 l 1
664 1360 l 1
332 1360 l 1
332 1190 l 1
0 1190 l 1
0 1360 l 1
166 1360 l 1
166 1530 l 1
332 1530 l 1
332 1700 l 1
166 1020 m 1
830 1020 l 1
830 850 l 1
996 850 l 1
996 170 l 1
1162 170 l 1
1162 0 l 1
830 0 l 1
830 170 l 1
664 170 l 1
664 0 l 1
166 0 l 1
166 170 l 1
0 170 l 1
0 510 l 1
166 510 l 1
166 680 l 1
664 680 l 1
664 850 l 1
166 850 l 1
166 1020 l 1
664 510 m 1
332 510 l 1
332 170 l 1
664 171 l 1
664 510 l 1
EndSplineSet
EndChar

StartChar: atilde
Encoding: 227 227
Width: 1328
Flags: W
LayerCount: 2
Fore
SplineSet
166 1530 m 1
664 1530 l 1
664 1360 l 1
830 1360 l 1
830 1530 l 1
1162 1530 l 1
1162 1360 l 1
996 1360 l 1
996 1190 l 1
498 1190 l 1
498 1360 l 1
332 1360 l 1
332 1190 l 1
0 1190 l 1
0 1360 l 1
166 1360 l 1
166 1530 l 1
166 1020 m 1
830 1020 l 1
830 850 l 1
996 850 l 1
996 170 l 1
1162 170 l 1
1162 0 l 1
830 0 l 1
830 170 l 1
664 170 l 1
664 0 l 1
166 0 l 1
166 170 l 1
0 170 l 1
0 510 l 1
166 510 l 1
166 680 l 1
664 680 l 1
664 850 l 1
166 850 l 1
166 1020 l 1
664 510 m 1
332 510 l 1
332 170 l 1
664 171 l 1
664 510 l 1
EndSplineSet
EndChar

StartChar: adieresis
Encoding: 228 228
Width: 1328
Flags: W
LayerCount: 2
Fore
SplineSet
0 1530 m 1
332 1530 l 1
332 1190 l 1
0 1190 l 1
0 1530 l 1
664 1530 m 1
996 1530 l 1
996 1190 l 1
664 1190 l 1
664 1530 l 1
166 1020 m 1
830 1020 l 1
830 850 l 1
996 850 l 1
996 170 l 1
1162 170 l 1
1162 0 l 1
830 0 l 1
830 170 l 1
664 170 l 1
664 0 l 1
166 0 l 1
166 170 l 1
0 170 l 1
0 510 l 1
166 510 l 1
166 680 l 1
664 680 l 1
664 850 l 1
166 850 l 1
166 1020 l 1
664 510 m 1
332 510 l 1
332 170 l 1
664 171 l 1
664 510 l 1
EndSplineSet
EndChar

StartChar: aring
Encoding: 229 229
Width: 1328
Flags: W
LayerCount: 2
Fore
SplineSet
332 1700 m 1
830 1700 l 1
830 1530 l 1
996 1530 l 1
996 1190 l 1
830 1190 l 1
830 850 l 1
996 850 l 1
996 170 l 1
1162 170 l 1
1162 0 l 1
830 0 l 1
830 170 l 1
664 170 l 1
664 0 l 1
166 0 l 1
166 170 l 1
0 170 l 1
0 510 l 1
166 510 l 1
166 680 l 1
664 680 l 1
664 850 l 1
166 850 l 1
166 1020 l 1
332 1020 l 1
332 1190 l 1
166 1190 l 1
166 1530 l 1
332 1530 l 1
332 1700 l 1
664 1530 m 1
498 1530 l 1
498 1190 l 1
664 1190 l 1
664 1530 l 1
664 510 m 1
332 510 l 1
332 170 l 1
664 171 l 1
664 510 l 1
EndSplineSet
EndChar

StartChar: ae
Encoding: 230 230
Width: 1328
Flags: W
LayerCount: 2
Fore
SplineSet
0 1020 m 1
1162 1020 l 1
1162 850 l 1
1328 850 l 1
1328 510 l 1
830 510 l 1
830 170 l 1
1328 170 l 1
1328 0 l 1
664 0 l 1
664 170 l 1
498 170 l 1
498 510 l 1
332 510 l 1
332 170 l 1
498 169 l 1
498 0 l 1
0 0 l 1
0 510 l 1
166 510 l 1
166 680 l 1
498 680 l 1
498 850 l 1
0 850 l 1
0 1020 l 1
996 850 m 1
830 850 l 1
830 680 l 1
996 680 l 1
996 850 l 1
EndSplineSet
EndChar

StartChar: ccedilla
Encoding: 231 231
Width: 1328
Flags: W
LayerCount: 2
Fore
SplineSet
166 1020 m 1
830 1020 l 1
830 850 l 1
996 850 l 1
996 680 l 1
664 680 l 1
664 850 l 1
332 850 l 1
332 170 l 1
664 170 l 1
664 340 l 1
996 340 l 1
996 170 l 1
830 170 l 1
830 0 l 1
664 0 l 1
664 -170 l 1
498 -170 l 1
498 -340 l 1
166 -340 l 1
166 -170 l 1
332 -170 l 1
332 0 l 1
166 0 l 1
166 170 l 1
0 170 l 1
0 850 l 1
166 850 l 1
166 1020 l 1
EndSplineSet
EndChar

StartChar: egrave
Encoding: 232 232
Width: 1328
Flags: W
LayerCount: 2
Fore
SplineSet
0 1700 m 1
332 1700 l 1
332 1530 l 1
498 1530 l 1
498 1360 l 1
664 1360 l 1
664 1190 l 1
332 1190 l 1
332 1360 l 1
166 1360 l 1
166 1530 l 1
0 1530 l 1
0 1700 l 1
166 1020 m 1
830 1020 l 1
830 850 l 1
996 850 l 1
996 510 l 1
332 510 l 1
332 170 l 1
664 170 l 1
664 340 l 1
996 340 l 1
996 170 l 1
830 170 l 1
830 0 l 1
166 0 l 1
166 170 l 1
0 170 l 1
0 850 l 1
166 850 l 1
166 1020 l 1
664 850 m 1
332 850 l 1
332 680 l 1
664 680 l 1
664 850 l 1
EndSplineSet
EndChar

StartChar: eacute
Encoding: 233 233
Width: 1328
Flags: W
LayerCount: 2
Fore
SplineSet
664 1700 m 1
996 1700 l 1
996 1530 l 1
830 1530 l 1
830 1360 l 1
664 1360 l 1
664 1190 l 1
332 1190 l 1
332 1360 l 1
498 1360 l 1
498 1530 l 1
664 1530 l 1
664 1700 l 1
166 1020 m 1
830 1020 l 1
830 850 l 1
996 850 l 1
996 510 l 1
332 510 l 1
332 170 l 1
664 170 l 1
664 340 l 1
996 340 l 1
996 170 l 1
830 170 l 1
830 0 l 1
166 0 l 1
166 170 l 1
0 170 l 1
0 850 l 1
166 850 l 1
166 1020 l 1
664 850 m 1
332 850 l 1
332 680 l 1
664 680 l 1
664 850 l 1
EndSplineSet
EndChar

StartChar: ecircumflex
Encoding: 234 234
Width: 1328
Flags: W
LayerCount: 2
Fore
SplineSet
332 1700 m 1
664 1700 l 1
664 1530 l 1
830 1530 l 1
830 1360 l 1
996 1360 l 1
996 1190 l 1
664 1190 l 1
664 1360 l 1
332 1360 l 1
332 1190 l 1
0 1190 l 1
0 1360 l 1
166 1360 l 1
166 1530 l 1
332 1530 l 1
332 1700 l 1
166 1020 m 1
830 1020 l 1
830 850 l 1
996 850 l 1
996 510 l 1
332 510 l 1
332 170 l 1
664 170 l 1
664 340 l 1
996 340 l 1
996 170 l 1
830 170 l 1
830 0 l 1
166 0 l 1
166 170 l 1
0 170 l 1
0 850 l 1
166 850 l 1
166 1020 l 1
664 850 m 1
332 850 l 1
332 680 l 1
664 680 l 1
664 850 l 1
EndSplineSet
EndChar

StartChar: edieresis
Encoding: 235 235
Width: 1328
Flags: W
LayerCount: 2
Fore
SplineSet
0 1530 m 1
332 1530 l 1
332 1190 l 1
0 1190 l 1
0 1530 l 1
664 1530 m 1
996 1530 l 1
996 1190 l 1
664 1190 l 1
664 1530 l 1
166 1020 m 1
830 1020 l 1
830 850 l 1
996 850 l 1
996 510 l 1
332 510 l 1
332 170 l 1
664 170 l 1
664 340 l 1
996 340 l 1
996 170 l 1
830 170 l 1
830 0 l 1
166 0 l 1
166 170 l 1
0 170 l 1
0 850 l 1
166 850 l 1
166 1020 l 1
664 850 m 1
332 850 l 1
332 680 l 1
664 680 l 1
664 850 l 1
EndSplineSet
EndChar

StartChar: igrave
Encoding: 236 236
Width: 1328
Flags: W
LayerCount: 2
Fore
SplineSet
166 1700 m 1
498 1700 l 1
498 1530 l 1
664 1530 l 1
664 1360 l 1
830 1360 l 1
830 1190 l 1
498 1190 l 1
498 1360 l 1
332 1360 l 1
332 1530 l 1
166 1530 l 1
166 1700 l 1
166 1020 m 1
830 1020 l 1
830 170 l 1
1162 170 l 1
1162 0 l 1
166 0 l 1
166 170 l 1
498 170 l 1
498 850 l 1
166 850 l 1
166 1020 l 1
EndSplineSet
EndChar

StartChar: iacute
Encoding: 237 237
Width: 1328
Flags: W
LayerCount: 2
Fore
SplineSet
664 1700 m 1
996 1700 l 1
996 1530 l 1
830 1530 l 1
830 1360 l 1
664 1360 l 1
664 1190 l 1
332 1190 l 1
332 1360 l 1
498 1360 l 1
498 1530 l 1
664 1530 l 1
664 1700 l 1
166 1020 m 1
830 1020 l 1
830 170 l 1
1162 170 l 1
1162 0 l 1
166 0 l 1
166 170 l 1
498 170 l 1
498 850 l 1
166 850 l 1
166 1020 l 1
EndSplineSet
EndChar

StartChar: icircumflex
Encoding: 238 238
Width: 1328
Flags: W
LayerCount: 2
Fore
SplineSet
498 1700 m 1
664 1700 l 1
664 1530 l 1
830 1530 l 1
830 1360 l 1
996 1360 l 1
996 1190 l 1
664 1190 l 1
664 1360 l 1
498 1360 l 1
498 1190 l 1
166 1190 l 1
166 1360 l 1
332 1360 l 1
332 1530 l 1
498 1530 l 1
498 1700 l 1
166 1020 m 1
830 1020 l 1
830 170 l 1
1162 170 l 1
1162 0 l 1
166 0 l 1
166 170 l 1
498 170 l 1
498 850 l 1
166 850 l 1
166 1020 l 1
EndSplineSet
EndChar

StartChar: idieresis
Encoding: 239 239
Width: 1328
Flags: W
LayerCount: 2
Fore
SplineSet
166 1530 m 1
498 1530 l 1
498 1190 l 1
166 1190 l 1
166 1530 l 1
664 1530 m 1
996 1530 l 1
996 1190 l 1
664 1190 l 1
664 1530 l 1
166 1020 m 1
830 1020 l 1
830 170 l 1
1162 170 l 1
1162 0 l 1
166 0 l 1
166 170 l 1
498 170 l 1
498 850 l 1
166 850 l 1
166 1020 l 1
EndSplineSet
EndChar

StartChar: eth
Encoding: 240 240
Width: 1328
Flags: W
LayerCount: 2
Fore
SplineSet
0 1700 m 1
332 1700 l 1
332 1530 l 1
664 1530 l 1
664 1700 l 1
996 1700 l 1
996 1530 l 1
664 1529 l 1
664 1360 l 1
830 1360 l 1
830 1190 l 1
996 1190 l 1
996 1020 l 1
1162 1020 l 1
1162 170 l 1
996 170 l 1
996 0 l 1
166 0 l 1
166 170 l 1
0 170 l 1
0 680 l 1
166 680 l 1
166 850 l 1
830 850 l 1
830 1020 l 1
664 1020 l 1
664 1190 l 1
498 1190 l 1
498 1360 l 1
332 1360 l 1
332 1190 l 1
0 1190 l 1
0 1360 l 1
332 1361 l 1
331 1530 l 1
0 1530 l 1
0 1700 l 1
830 680 m 1
332 680 l 1
332 170 l 1
830 170 l 1
830 680 l 1
EndSplineSet
EndChar

StartChar: ntilde
Encoding: 241 241
Width: 1328
Flags: W
LayerCount: 2
Fore
SplineSet
166 1530 m 1
664 1530 l 1
664 1360 l 1
830 1360 l 1
830 1530 l 1
1162 1530 l 1
1162 1360 l 1
996 1360 l 1
996 1190 l 1
498 1190 l 1
498 1360 l 1
332 1360 l 1
332 1190 l 1
0 1190 l 1
0 1360 l 1
166 1360 l 1
166 1530 l 1
0 1020 m 1
830 1020 l 1
830 850 l 1
996 850 l 1
996 0 l 1
664 0 l 1
664 850 l 1
332 850 l 1
332 0 l 1
0 0 l 1
0 1020 l 1
EndSplineSet
EndChar

StartChar: ograve
Encoding: 242 242
Width: 1328
Flags: W
LayerCount: 2
Fore
SplineSet
0 1700 m 1
332 1700 l 1
332 1530 l 1
498 1530 l 1
498 1360 l 1
664 1360 l 1
664 1190 l 1
332 1190 l 1
332 1360 l 1
166 1360 l 1
166 1530 l 1
0 1530 l 1
0 1700 l 1
166 1020 m 1
830 1020 l 1
830 850 l 1
996 850 l 1
996 170 l 1
830 170 l 1
830 0 l 1
166 0 l 1
166 170 l 1
0 170 l 1
0 850 l 1
166 850 l 1
166 1020 l 1
664 850 m 1
332 850 l 1
332 170 l 1
664 170 l 1
664 850 l 1
EndSplineSet
EndChar

StartChar: oacute
Encoding: 243 243
Width: 1328
Flags: W
LayerCount: 2
Fore
SplineSet
664 1700 m 1
996 1700 l 1
996 1530 l 1
830 1530 l 1
830 1360 l 1
664 1360 l 1
664 1190 l 1
332 1190 l 1
332 1360 l 1
498 1360 l 1
498 1530 l 1
664 1530 l 1
664 1700 l 1
166 1020 m 1
830 1020 l 1
830 850 l 1
996 850 l 1
996 170 l 1
830 170 l 1
830 0 l 1
166 0 l 1
166 170 l 1
0 170 l 1
0 850 l 1
166 850 l 1
166 1020 l 1
664 850 m 1
332 850 l 1
332 170 l 1
664 170 l 1
664 850 l 1
EndSplineSet
EndChar

StartChar: ocircumflex
Encoding: 244 244
Width: 1328
Flags: W
LayerCount: 2
Fore
SplineSet
332 1700 m 1
664 1700 l 1
664 1530 l 1
830 1530 l 1
830 1360 l 1
996 1360 l 1
996 1190 l 1
664 1190 l 1
664 1360 l 1
332 1360 l 1
332 1190 l 1
0 1190 l 1
0 1360 l 1
166 1360 l 1
166 1530 l 1
332 1530 l 1
332 1700 l 1
166 1020 m 1
830 1020 l 1
830 850 l 1
996 850 l 1
996 170 l 1
830 170 l 1
830 0 l 1
166 0 l 1
166 170 l 1
0 170 l 1
0 850 l 1
166 850 l 1
166 1020 l 1
664 850 m 1
332 850 l 1
332 170 l 1
664 170 l 1
664 850 l 1
EndSplineSet
EndChar

StartChar: otilde
Encoding: 245 245
Width: 1328
Flags: W
LayerCount: 2
Fore
SplineSet
166 1530 m 1
664 1530 l 1
664 1360 l 1
830 1360 l 1
830 1530 l 1
1162 1530 l 1
1162 1360 l 1
996 1360 l 1
996 1190 l 1
498 1190 l 1
498 1360 l 1
332 1360 l 1
332 1190 l 1
0 1190 l 1
0 1360 l 1
166 1360 l 1
166 1530 l 1
166 1020 m 1
830 1020 l 1
830 850 l 1
996 850 l 1
996 170 l 1
830 170 l 1
830 0 l 1
166 0 l 1
166 170 l 1
0 170 l 1
0 850 l 1
166 850 l 1
166 1020 l 1
664 850 m 1
332 850 l 1
332 170 l 1
664 170 l 1
664 850 l 1
EndSplineSet
EndChar

StartChar: odieresis
Encoding: 246 246
Width: 1328
Flags: W
LayerCount: 2
Fore
SplineSet
0 1530 m 1
332 1530 l 1
332 1190 l 1
0 1190 l 1
0 1530 l 1
664 1530 m 1
996 1530 l 1
996 1190 l 1
664 1190 l 1
664 1530 l 1
166 1020 m 1
830 1020 l 1
830 850 l 1
996 850 l 1
996 170 l 1
830 170 l 1
830 0 l 1
166 0 l 1
166 170 l 1
0 170 l 1
0 850 l 1
166 850 l 1
166 1020 l 1
664 850 m 1
332 850 l 1
332 170 l 1
664 170 l 1
664 850 l 1
EndSplineSet
EndChar

StartChar: divide
Encoding: 247 247
Width: 1328
Flags: W
LayerCount: 2
Fore
SplineSet
332 1360 m 1
664 1360 l 1
664 1020 l 1
332 1020 l 1
332 1360 l 1
0 850 m 1
996 850 l 1
996 680 l 1
0 680 l 1
0 850 l 1
332 510 m 1
664 510 l 1
664 170 l 1
332 170 l 1
332 510 l 1
EndSplineSet
EndChar

StartChar: oslash
Encoding: 248 248
Width: 1328
Flags: W
LayerCount: 2
Fore
SplineSet
166 1020 m 1
830 1020 l 1
830 850 l 1
996 850 l 1
996 170 l 1
830 170 l 1
830 0 l 1
166 0 l 1
166 170 l 1
0 170 l 1
0 850 l 1
166 850 l 1
166 1020 l 1
664 850 m 1
332 850 l 1
332 510 l 1
498 510 l 1
498 340 l 1
332 340 l 1
332 170 l 1
664 170 l 1
664 510 l 1
498 511 l 1
498 680 l 1
664 680 l 1
664 850 l 1
EndSplineSet
EndChar

StartChar: ugrave
Encoding: 249 249
Width: 1328
Flags: W
LayerCount: 2
Fore
SplineSet
0 1700 m 1
332 1700 l 1
332 1530 l 1
498 1530 l 1
498 1360 l 1
664 1360 l 1
664 1190 l 1
332 1190 l 1
332 1360 l 1
166 1360 l 1
166 1530 l 1
0 1530 l 1
0 1700 l 1
0 1020 m 1
332 1020 l 1
332 170 l 1
664 170 l 1
664 1020 l 1
996 1020 l 1
996 170 l 1
1162 170 l 1
1162 0 l 1
830 0 l 1
830 170 l 1
664 169 l 1
664 0 l 1
166 0 l 1
166 170 l 1
0 170 l 1
0 1020 l 1
EndSplineSet
EndChar

StartChar: uacute
Encoding: 250 250
Width: 1328
Flags: W
LayerCount: 2
Fore
SplineSet
664 1700 m 1
996 1700 l 1
996 1530 l 1
830 1530 l 1
830 1360 l 1
664 1360 l 1
664 1190 l 1
332 1190 l 1
332 1360 l 1
498 1360 l 1
498 1530 l 1
664 1530 l 1
664 1700 l 1
0 1020 m 1
332 1020 l 1
332 170 l 1
664 170 l 1
664 1020 l 1
996 1020 l 1
996 170 l 1
1162 170 l 1
1162 0 l 1
830 0 l 1
830 170 l 1
664 169 l 1
664 0 l 1
166 0 l 1
166 170 l 1
0 170 l 1
0 1020 l 1
EndSplineSet
EndChar

StartChar: ucircumflex
Encoding: 251 251
Width: 1328
Flags: W
LayerCount: 2
Fore
SplineSet
332 1700 m 1
664 1700 l 1
664 1530 l 1
830 1530 l 1
830 1360 l 1
996 1360 l 1
996 1190 l 1
664 1190 l 1
664 1360 l 1
332 1360 l 1
332 1190 l 1
0 1190 l 1
0 1360 l 1
166 1360 l 1
166 1530 l 1
332 1530 l 1
332 1700 l 1
0 1020 m 1
332 1020 l 1
332 170 l 1
664 170 l 1
664 1020 l 1
996 1020 l 1
996 170 l 1
1162 170 l 1
1162 0 l 1
830 0 l 1
830 170 l 1
664 169 l 1
664 0 l 1
166 0 l 1
166 170 l 1
0 170 l 1
0 1020 l 1
EndSplineSet
EndChar

StartChar: udieresis
Encoding: 252 252
Width: 1328
Flags: W
LayerCount: 2
Fore
SplineSet
0 1530 m 1
332 1530 l 1
332 1190 l 1
0 1190 l 1
0 1530 l 1
664 1530 m 1
996 1530 l 1
996 1190 l 1
664 1190 l 1
664 1530 l 1
0 1020 m 1
332 1020 l 1
332 170 l 1
664 170 l 1
664 1020 l 1
996 1020 l 1
996 170 l 1
1162 170 l 1
1162 0 l 1
830 0 l 1
830 170 l 1
664 169 l 1
664 0 l 1
166 0 l 1
166 170 l 1
0 170 l 1
0 1020 l 1
EndSplineSet
EndChar

StartChar: yacute
Encoding: 253 253
Width: 1328
Flags: W
LayerCount: 2
Fore
SplineSet
830 1700 m 1
1162 1700 l 1
1162 1530 l 1
996 1530 l 1
996 1360 l 1
830 1360 l 1
830 1190 l 1
498 1190 l 1
498 1360 l 1
664 1360 l 1
664 1530 l 1
830 1530 l 1
830 1700 l 1
166 1020 m 1
498 1020 l 1
498 340 l 1
830 340 l 1
830 1020 l 1
1162 1020 l 1
1162 340 l 1
996 340 l 1
996 0 l 1
830 0 l 1
830 -170 l 1
664 -170 l 1
664 -340 l 1
0 -340 l 1
0 -170 l 1
498 -170 l 1
498 0 l 1
664 0 l 1
664 170 l 1
332 170 l 1
332 340 l 1
166 340 l 1
166 1020 l 1
EndSplineSet
EndChar

StartChar: thorn
Encoding: 254 254
Width: 1328
Flags: W
LayerCount: 2
Fore
SplineSet
0 1360 m 1
498 1360 l 1
498 1020 l 1
996 1020 l 1
996 850 l 1
1162 850 l 1
1162 510 l 1
996 510 l 1
996 340 l 1
498 340 l 1
498 170 l 1
664 170 l 1
664 0 l 1
0 0 l 1
0 170 l 1
166 170 l 1
166 1190 l 1
0 1190 l 1
0 1360 l 1
830 850 m 1
498 850 l 1
498 510 l 1
830 510 l 1
830 850 l 1
EndSplineSet
EndChar

StartChar: ydieresis
Encoding: 255 255
Width: 1328
Flags: W
LayerCount: 2
Fore
SplineSet
166 1530 m 1
498 1530 l 1
498 1190 l 1
166 1190 l 1
166 1530 l 1
830 1530 m 1
1162 1530 l 1
1162 1190 l 1
830 1190 l 1
830 1530 l 1
166 1020 m 1
498 1020 l 1
498 340 l 1
830 340 l 1
830 1020 l 1
1162 1020 l 1
1162 340 l 1
996 340 l 1
996 0 l 1
830 0 l 1
830 -170 l 1
664 -170 l 1
664 -340 l 1
0 -340 l 1
0 -170 l 1
498 -170 l 1
498 0 l 1
664 0 l 1
664 170 l 1
332 170 l 1
332 340 l 1
166 340 l 1
166 1020 l 1
EndSplineSet
EndChar

StartChar: Amacron
Encoding: 256 256
Width: 1328
Flags: W
LayerCount: 2
Fore
SplineSet
166 1700 m 1
830 1700 l 1
830 1360 l 1
166 1360 l 1
166 1700 l 1
332 1190 m 1
664 1190 l 1
664 1020 l 1
830 1020 l 1
830 850 l 1
996 850 l 1
996 0 l 1
664 0 l 1
664 340 l 1
332 340 l 1
332 0 l 1
0 0 l 1
0 850 l 1
166 850 l 1
166 1020 l 1
332 1020 l 1
332 1190 l 1
664 850 m 1
332 850 l 1
332 510 l 1
664 510 l 1
664 850 l 1
EndSplineSet
EndChar

StartChar: amacron
Encoding: 257 257
Width: 1328
Flags: W
LayerCount: 2
Fore
SplineSet
166 1530 m 1
830 1530 l 1
830 1190 l 1
166 1190 l 1
166 1530 l 1
166 1020 m 1
830 1020 l 1
830 850 l 1
996 850 l 1
996 170 l 1
1162 170 l 1
1162 0 l 1
830 0 l 1
830 170 l 1
664 170 l 1
664 0 l 1
166 0 l 1
166 170 l 1
0 170 l 1
0 510 l 1
166 510 l 1
166 680 l 1
664 680 l 1
664 850 l 1
166 850 l 1
166 1020 l 1
664 510 m 1
332 510 l 1
332 170 l 1
664 171 l 1
664 510 l 1
EndSplineSet
EndChar

StartChar: Abreve
Encoding: 258 258
Width: 1328
Flags: W
LayerCount: 2
Fore
SplineSet
0 1700 m 1
166 1700 l 1
166 1530 l 1
830 1530 l 1
830 1700 l 1
996 1700 l 1
996 1530 l 1
830 1529 l 1
830 1360 l 1
166 1360 l 1
165 1530 l 1
0 1530 l 1
0 1700 l 1
332 1190 m 1
664 1190 l 1
664 1020 l 1
830 1020 l 1
830 850 l 1
996 850 l 1
996 0 l 1
664 0 l 1
664 340 l 1
332 340 l 1
332 0 l 1
0 0 l 1
0 850 l 1
166 850 l 1
166 1020 l 1
332 1020 l 1
332 1190 l 1
664 850 m 1
332 850 l 1
332 510 l 1
664 510 l 1
664 850 l 1
EndSplineSet
EndChar

StartChar: abreve
Encoding: 259 259
Width: 1328
Flags: W
LayerCount: 2
Fore
SplineSet
166 1530 m 1
332 1530 l 1
332 1360 l 1
830 1360 l 1
830 1530 l 1
996 1530 l 1
996 1360 l 1
830 1359 l 1
830 1190 l 1
332 1190 l 1
331 1360 l 1
166 1360 l 1
166 1530 l 1
166 1020 m 1
830 1020 l 1
830 850 l 1
996 850 l 1
996 170 l 1
1162 170 l 1
1162 0 l 1
830 0 l 1
830 170 l 1
664 170 l 1
664 0 l 1
166 0 l 1
166 170 l 1
0 170 l 1
0 510 l 1
166 510 l 1
166 680 l 1
664 680 l 1
664 850 l 1
166 850 l 1
166 1020 l 1
664 510 m 1
332 510 l 1
332 170 l 1
664 171 l 1
664 510 l 1
EndSplineSet
EndChar

StartChar: Aogonek
Encoding: 260 260
Width: 1328
Flags: W
LayerCount: 2
Fore
SplineSet
332 1530 m 1
664 1530 l 1
664 1360 l 1
830 1360 l 1
830 1190 l 1
996 1190 l 1
996 0 l 1
830 0 l 1
830 -170 l 1
1162 -170 l 1
1162 -340 l 1
664 -340 l 1
664 -170 l 1
498 -170 l 1
498 0 l 1
664 0 l 1
664 510 l 1
332 510 l 1
332 0 l 1
0 0 l 1
0 1190 l 1
166 1190 l 1
166 1360 l 1
332 1360 l 1
332 1530 l 1
664 1190 m 1
332 1190 l 1
332 680 l 1
664 680 l 1
664 1190 l 1
EndSplineSet
EndChar

StartChar: aogonek
Encoding: 261 261
Width: 1328
Flags: W
LayerCount: 2
Fore
SplineSet
166 1020 m 1
830 1020 l 1
830 850 l 1
996 850 l 1
996 170 l 1
1162 170 l 1
1162 0 l 1
996 0 l 1
996 -170 l 1
1328 -170 l 1
1328 -340 l 1
830 -340 l 1
830 -170 l 1
664 -170 l 1
664 0 l 1
166 0 l 1
166 170 l 1
0 170 l 1
0 510 l 1
166 510 l 1
166 680 l 1
664 680 l 1
664 850 l 1
166 850 l 1
166 1020 l 1
664 510 m 1
332 510 l 1
332 170 l 1
664 170 l 1
665 0 l 1
830 0 l 1
830 170 l 1
664 171 l 1
664 510 l 1
EndSplineSet
EndChar

StartChar: Cacute
Encoding: 262 262
Width: 1328
Flags: W
LayerCount: 2
Fore
SplineSet
664 1700 m 1
996 1700 l 1
996 1530 l 1
830 1530 l 1
830 1360 l 1
498 1360 l 1
498 1530 l 1
664 1530 l 1
664 1700 l 1
332 1190 m 1
996 1190 l 1
996 1020 l 1
1162 1020 l 1
1162 850 l 1
830 850 l 1
830 1020 l 1
498 1020 l 1
498 850 l 1
332 850 l 1
332 340 l 1
498 340 l 1
498 170 l 1
830 170 l 1
830 340 l 1
1162 340 l 1
1162 170 l 1
996 170 l 1
996 0 l 1
332 0 l 1
332 170 l 1
166 170 l 1
166 340 l 1
0 340 l 1
0 850 l 1
166 850 l 1
166 1020 l 1
332 1020 l 1
332 1190 l 1
EndSplineSet
EndChar

StartChar: cacute
Encoding: 263 263
Width: 1328
Flags: W
LayerCount: 2
Fore
SplineSet
664 1700 m 1
996 1700 l 1
996 1530 l 1
830 1530 l 1
830 1360 l 1
664 1360 l 1
664 1190 l 1
332 1190 l 1
332 1360 l 1
498 1360 l 1
498 1530 l 1
664 1530 l 1
664 1700 l 1
166 1020 m 1
830 1020 l 1
830 850 l 1
996 850 l 1
996 680 l 1
664 680 l 1
664 850 l 1
332 850 l 1
332 170 l 1
664 170 l 1
664 340 l 1
996 340 l 1
996 170 l 1
830 170 l 1
830 0 l 1
166 0 l 1
166 170 l 1
0 170 l 1
0 850 l 1
166 850 l 1
166 1020 l 1
EndSplineSet
EndChar

StartChar: Ccircumflex
Encoding: 264 264
Width: 1328
Flags: W
LayerCount: 2
Fore
SplineSet
332 1700 m 1
996 1700 l 1
996 1530 l 1
1162 1530 l 1
1162 1360 l 1
830 1360 l 1
830 1530 l 1
498 1530 l 1
498 1360 l 1
166 1360 l 1
166 1530 l 1
332 1530 l 1
332 1700 l 1
332 1190 m 1
996 1190 l 1
996 1020 l 1
1162 1020 l 1
1162 850 l 1
830 850 l 1
830 1020 l 1
498 1020 l 1
498 850 l 1
332 850 l 1
332 340 l 1
498 340 l 1
498 170 l 1
830 170 l 1
830 340 l 1
1162 340 l 1
1162 170 l 1
996 170 l 1
996 0 l 1
332 0 l 1
332 170 l 1
166 170 l 1
166 340 l 1
0 340 l 1
0 850 l 1
166 850 l 1
166 1020 l 1
332 1020 l 1
332 1190 l 1
EndSplineSet
EndChar

StartChar: ccircumflex
Encoding: 265 265
Width: 1328
Flags: W
LayerCount: 2
Fore
SplineSet
332 1700 m 1
664 1700 l 1
664 1530 l 1
830 1530 l 1
830 1360 l 1
996 1360 l 1
996 1190 l 1
664 1190 l 1
664 1360 l 1
332 1360 l 1
332 1190 l 1
0 1190 l 1
0 1360 l 1
166 1360 l 1
166 1530 l 1
332 1530 l 1
332 1700 l 1
166 1020 m 1
830 1020 l 1
830 850 l 1
996 850 l 1
996 680 l 1
664 680 l 1
664 850 l 1
332 850 l 1
332 170 l 1
664 170 l 1
664 340 l 1
996 340 l 1
996 170 l 1
830 170 l 1
830 0 l 1
166 0 l 1
166 170 l 1
0 170 l 1
0 850 l 1
166 850 l 1
166 1020 l 1
EndSplineSet
EndChar

StartChar: Cdotaccent
Encoding: 266 266
Width: 1328
Flags: W
LayerCount: 2
Fore
SplineSet
498 1700 m 1
830 1700 l 1
830 1360 l 1
498 1360 l 1
498 1700 l 1
332 1190 m 1
996 1190 l 1
996 1020 l 1
1162 1020 l 1
1162 850 l 1
830 850 l 1
830 1020 l 1
498 1020 l 1
498 850 l 1
332 850 l 1
332 340 l 1
498 340 l 1
498 170 l 1
830 170 l 1
830 340 l 1
1162 340 l 1
1162 170 l 1
996 170 l 1
996 0 l 1
332 0 l 1
332 170 l 1
166 170 l 1
166 340 l 1
0 340 l 1
0 850 l 1
166 850 l 1
166 1020 l 1
332 1020 l 1
332 1190 l 1
EndSplineSet
EndChar

StartChar: cdotaccent
Encoding: 267 267
Width: 1328
Flags: W
LayerCount: 2
Fore
SplineSet
332 1530 m 1
664 1530 l 1
664 1190 l 1
332 1190 l 1
332 1530 l 1
166 1020 m 1
830 1020 l 1
830 850 l 1
996 850 l 1
996 680 l 1
664 680 l 1
664 850 l 1
332 850 l 1
332 170 l 1
664 170 l 1
664 340 l 1
996 340 l 1
996 170 l 1
830 170 l 1
830 0 l 1
166 0 l 1
166 170 l 1
0 170 l 1
0 850 l 1
166 850 l 1
166 1020 l 1
EndSplineSet
EndChar

StartChar: Ccaron
Encoding: 268 268
Width: 1328
Flags: W
LayerCount: 2
Fore
SplineSet
332 1700 m 1
664 1700 l 1
664 1530 l 1
830 1530 l 1
830 1700 l 1
1162 1700 l 1
1162 1530 l 1
996 1530 l 1
996 1360 l 1
498 1360 l 1
498 1530 l 1
332 1530 l 1
332 1700 l 1
332 1190 m 1
996 1190 l 1
996 1020 l 1
1162 1020 l 1
1162 850 l 1
830 850 l 1
830 1020 l 1
498 1020 l 1
498 850 l 1
332 850 l 1
332 340 l 1
498 340 l 1
498 170 l 1
830 170 l 1
830 340 l 1
1162 340 l 1
1162 170 l 1
996 170 l 1
996 0 l 1
332 0 l 1
332 170 l 1
166 170 l 1
166 340 l 1
0 340 l 1
0 850 l 1
166 850 l 1
166 1020 l 1
332 1020 l 1
332 1190 l 1
EndSplineSet
EndChar

StartChar: ccaron
Encoding: 269 269
Width: 1328
Flags: W
LayerCount: 2
Fore
SplineSet
166 1530 m 1
498 1530 l 1
498 1360 l 1
664 1360 l 1
664 1530 l 1
996 1530 l 1
996 1360 l 1
830 1360 l 1
830 1190 l 1
332 1190 l 1
332 1360 l 1
166 1360 l 1
166 1530 l 1
166 1020 m 1
830 1020 l 1
830 850 l 1
996 850 l 1
996 680 l 1
664 680 l 1
664 850 l 1
332 850 l 1
332 170 l 1
664 170 l 1
664 340 l 1
996 340 l 1
996 170 l 1
830 170 l 1
830 0 l 1
166 0 l 1
166 170 l 1
0 170 l 1
0 850 l 1
166 850 l 1
166 1020 l 1
EndSplineSet
EndChar

StartChar: Dcaron
Encoding: 270 270
Width: 1328
Flags: W
LayerCount: 2
Fore
SplineSet
166 1700 m 1
498 1700 l 1
498 1530 l 1
664 1530 l 1
664 1700 l 1
996 1700 l 1
996 1530 l 1
830 1530 l 1
830 1360 l 1
332 1360 l 1
332 1530 l 1
166 1530 l 1
166 1700 l 1
0 1190 m 1
830 1190 l 1
830 1020 l 1
996 1020 l 1
996 850 l 1
1162 850 l 1
1162 340 l 1
996 340 l 1
996 170 l 1
830 170 l 1
830 0 l 1
0 0 l 1
0 170 l 1
166 170 l 1
166 1020 l 1
0 1020 l 1
0 1190 l 1
664 1020 m 1
498 1020 l 1
498 170 l 1
664 170 l 1
664 340 l 1
830 340 l 1
830 850 l 1
664 850 l 1
664 1020 l 1
EndSplineSet
EndChar

StartChar: dcaron
Encoding: 271 271
Width: 1328
Flags: W
LayerCount: 2
Fore
SplineSet
498 1530 m 1
996 1530 l 1
996 1020 l 1
1162 1020 l 1
1162 1360 l 1
1328 1360 l 1
1328 1020 l 1
1162 1019 l 1
1162 850 l 1
996 850 l 1
996 170 l 1
1162 170 l 1
1162 0 l 1
830 0 l 1
830 170 l 1
664 170 l 1
664 0 l 1
166 0 l 1
166 170 l 1
0 170 l 1
0 850 l 1
166 850 l 1
166 1020 l 1
664 1020 l 1
664 1360 l 1
498 1360 l 1
498 1530 l 1
664 850 m 1
332 850 l 1
332 170 l 1
664 171 l 1
664 850 l 1
EndSplineSet
EndChar

StartChar: dcroat
Encoding: 273 273
Width: 1328
Flags: W
LayerCount: 2
Fore
SplineSet
664 1530 m 1
996 1530 l 1
996 1360 l 1
1162 1360 l 1
1162 1190 l 1
996 1190 l 1
996 170 l 1
1162 170 l 1
1162 0 l 1
830 0 l 1
830 170 l 1
664 170 l 1
664 0 l 1
166 0 l 1
166 170 l 1
0 170 l 1
0 850 l 1
166 850 l 1
166 1020 l 1
664 1020 l 1
664 1190 l 1
332 1190 l 1
332 1360 l 1
664 1360 l 1
664 1530 l 1
664 850 m 1
332 850 l 1
332 170 l 1
664 171 l 1
664 850 l 1
EndSplineSet
EndChar

StartChar: Emacron
Encoding: 274 274
Width: 1328
Flags: W
LayerCount: 2
Fore
SplineSet
166 1700 m 1
996 1700 l 1
996 1360 l 1
166 1360 l 1
166 1700 l 1
0 1190 m 1
1162 1190 l 1
1162 850 l 1
996 850 l 1
996 1020 l 1
498 1020 l 1
498 680 l 1
664 680 l 1
664 850 l 1
830 850 l 1
830 340 l 1
664 340 l 1
664 510 l 1
498 510 l 1
498 170 l 1
996 170 l 1
996 340 l 1
1162 340 l 1
1162 0 l 1
0 0 l 1
0 170 l 1
166 170 l 1
166 1020 l 1
0 1020 l 1
0 1190 l 1
EndSplineSet
EndChar

StartChar: emacron
Encoding: 275 275
Width: 1328
Flags: W
LayerCount: 2
Fore
SplineSet
166 1530 m 1
830 1530 l 1
830 1190 l 1
166 1190 l 1
166 1530 l 1
166 1020 m 1
830 1020 l 1
830 850 l 1
996 850 l 1
996 510 l 1
332 510 l 1
332 170 l 1
664 170 l 1
664 340 l 1
996 340 l 1
996 170 l 1
830 170 l 1
830 0 l 1
166 0 l 1
166 170 l 1
0 170 l 1
0 850 l 1
166 850 l 1
166 1020 l 1
664 850 m 1
332 850 l 1
332 680 l 1
664 680 l 1
664 850 l 1
EndSplineSet
EndChar

StartChar: Ebreve
Encoding: 276 276
Width: 1328
Flags: W
LayerCount: 2
Fore
SplineSet
166 1700 m 1
332 1700 l 1
332 1530 l 1
830 1530 l 1
830 1700 l 1
996 1700 l 1
996 1530 l 1
830 1529 l 1
830 1360 l 1
332 1360 l 1
331 1530 l 1
166 1530 l 1
166 1700 l 1
0 1190 m 1
1162 1190 l 1
1162 850 l 1
996 850 l 1
996 1020 l 1
498 1020 l 1
498 680 l 1
664 680 l 1
664 850 l 1
830 850 l 1
830 340 l 1
664 340 l 1
664 510 l 1
498 510 l 1
498 170 l 1
996 170 l 1
996 340 l 1
1162 340 l 1
1162 0 l 1
0 0 l 1
0 170 l 1
166 170 l 1
166 1020 l 1
0 1020 l 1
0 1190 l 1
EndSplineSet
EndChar

StartChar: ebreve
Encoding: 277 277
Width: 1328
Flags: W
LayerCount: 2
Fore
SplineSet
166 1530 m 1
332 1530 l 1
332 1360 l 1
830 1360 l 1
830 1530 l 1
996 1530 l 1
996 1360 l 1
830 1359 l 1
830 1190 l 1
332 1190 l 1
331 1360 l 1
166 1360 l 1
166 1530 l 1
166 1020 m 1
830 1020 l 1
830 850 l 1
996 850 l 1
996 510 l 1
332 510 l 1
332 170 l 1
664 170 l 1
664 340 l 1
996 340 l 1
996 170 l 1
830 170 l 1
830 0 l 1
166 0 l 1
166 170 l 1
0 170 l 1
0 850 l 1
166 850 l 1
166 1020 l 1
664 850 m 1
332 850 l 1
332 680 l 1
664 680 l 1
664 850 l 1
EndSplineSet
EndChar

StartChar: Edotaccent
Encoding: 278 278
Width: 1328
Flags: W
LayerCount: 2
Fore
SplineSet
498 1700 m 1
830 1700 l 1
830 1360 l 1
498 1360 l 1
498 1700 l 1
0 1190 m 1
1162 1190 l 1
1162 850 l 1
996 850 l 1
996 1020 l 1
498 1020 l 1
498 680 l 1
664 680 l 1
664 850 l 1
830 850 l 1
830 340 l 1
664 340 l 1
664 510 l 1
498 510 l 1
498 170 l 1
996 170 l 1
996 340 l 1
1162 340 l 1
1162 0 l 1
0 0 l 1
0 170 l 1
166 170 l 1
166 1020 l 1
0 1020 l 1
0 1190 l 1
EndSplineSet
EndChar

StartChar: edotaccent
Encoding: 279 279
Width: 1328
Flags: W
LayerCount: 2
Fore
SplineSet
332 1530 m 1
664 1530 l 1
664 1190 l 1
332 1190 l 1
332 1530 l 1
166 1020 m 1
830 1020 l 1
830 850 l 1
996 850 l 1
996 510 l 1
332 510 l 1
332 170 l 1
664 170 l 1
664 340 l 1
996 340 l 1
996 170 l 1
830 170 l 1
830 0 l 1
166 0 l 1
166 170 l 1
0 170 l 1
0 850 l 1
166 850 l 1
166 1020 l 1
664 850 m 1
332 850 l 1
332 680 l 1
664 680 l 1
664 850 l 1
EndSplineSet
EndChar

StartChar: Eogonek
Encoding: 280 280
Width: 1328
Flags: W
LayerCount: 2
Fore
SplineSet
0 1530 m 1
1162 1530 l 1
1162 1190 l 1
996 1190 l 1
996 1360 l 1
498 1360 l 1
498 850 l 1
830 850 l 1
830 1020 l 1
996 1020 l 1
996 510 l 1
830 510 l 1
830 680 l 1
498 680 l 1
498 170 l 1
996 170 l 1
996 340 l 1
1162 340 l 1
1162 0 l 1
664 0 l 1
664 -170 l 1
996 -170 l 1
996 -340 l 1
498 -340 l 1
498 -170 l 1
332 -170 l 1
332 0 l 1
0 0 l 1
0 170 l 1
166 170 l 1
166 1360 l 1
0 1360 l 1
0 1530 l 1
EndSplineSet
EndChar

StartChar: eogonek
Encoding: 281 281
Width: 1328
Flags: W
LayerCount: 2
Fore
SplineSet
166 1020 m 1
830 1020 l 1
830 850 l 1
996 850 l 1
996 510 l 1
332 510 l 1
332 170 l 1
664 170 l 1
664 340 l 1
996 340 l 1
996 170 l 1
830 170 l 1
830 0 l 1
498 0 l 1
498 -170 l 1
830 -170 l 1
830 -340 l 1
332 -340 l 1
332 0 l 1
166 0 l 1
166 170 l 1
0 170 l 1
0 850 l 1
166 850 l 1
166 1020 l 1
664 850 m 1
332 850 l 1
332 680 l 1
664 680 l 1
664 850 l 1
EndSplineSet
EndChar

StartChar: Ecaron
Encoding: 282 282
Width: 1328
Flags: W
LayerCount: 2
Fore
SplineSet
166 1700 m 1
498 1700 l 1
498 1530 l 1
664 1530 l 1
664 1700 l 1
996 1700 l 1
996 1530 l 1
830 1530 l 1
830 1360 l 1
332 1360 l 1
332 1530 l 1
166 1530 l 1
166 1700 l 1
0 1190 m 1
1162 1190 l 1
1162 850 l 1
996 850 l 1
996 1020 l 1
498 1020 l 1
498 680 l 1
664 680 l 1
664 850 l 1
830 850 l 1
830 340 l 1
664 340 l 1
664 510 l 1
498 510 l 1
498 170 l 1
996 170 l 1
996 340 l 1
1162 340 l 1
1162 0 l 1
0 0 l 1
0 170 l 1
166 170 l 1
166 1020 l 1
0 1020 l 1
0 1190 l 1
EndSplineSet
EndChar

StartChar: ecaron
Encoding: 283 283
Width: 1328
Flags: W
LayerCount: 2
Fore
SplineSet
166 1530 m 1
498 1530 l 1
498 1360 l 1
664 1360 l 1
664 1530 l 1
996 1530 l 1
996 1360 l 1
830 1360 l 1
830 1190 l 1
332 1190 l 1
332 1360 l 1
166 1360 l 1
166 1530 l 1
166 1020 m 1
830 1020 l 1
830 850 l 1
996 850 l 1
996 510 l 1
332 510 l 1
332 170 l 1
664 170 l 1
664 340 l 1
996 340 l 1
996 170 l 1
830 170 l 1
830 0 l 1
166 0 l 1
166 170 l 1
0 170 l 1
0 850 l 1
166 850 l 1
166 1020 l 1
664 850 m 1
332 850 l 1
332 680 l 1
664 680 l 1
664 850 l 1
EndSplineSet
EndChar

StartChar: Gcircumflex
Encoding: 284 284
Width: 1328
Flags: W
LayerCount: 2
Fore
SplineSet
332 1700 m 1
996 1700 l 1
996 1530 l 1
1162 1530 l 1
1162 1360 l 1
830 1360 l 1
830 1530 l 1
498 1530 l 1
498 1360 l 1
166 1360 l 1
166 1530 l 1
332 1530 l 1
332 1700 l 1
332 1190 m 1
996 1190 l 1
996 1020 l 1
1162 1020 l 1
1162 850 l 1
830 850 l 1
830 1020 l 1
498 1020 l 1
498 850 l 1
332 850 l 1
332 340 l 1
498 340 l 1
498 170 l 1
830 170 l 1
830 340 l 1
664 340 l 1
664 510 l 1
1162 510 l 1
1162 0 l 1
332 0 l 1
332 170 l 1
166 170 l 1
166 340 l 1
0 340 l 1
0 850 l 1
166 850 l 1
166 1020 l 1
332 1020 l 1
332 1190 l 1
EndSplineSet
EndChar

StartChar: gcircumflex
Encoding: 285 285
Width: 1328
Flags: W
LayerCount: 2
Fore
SplineSet
332 1700 m 1
664 1700 l 1
664 1530 l 1
830 1530 l 1
830 1360 l 1
996 1360 l 1
996 1190 l 1
664 1190 l 1
664 1360 l 1
332 1360 l 1
332 1190 l 1
0 1190 l 1
0 1360 l 1
166 1360 l 1
166 1530 l 1
332 1530 l 1
332 1700 l 1
166 1020 m 1
664 1020 l 1
664 850 l 1
830 850 l 1
830 1020 l 1
1162 1020 l 1
1162 850 l 1
996 850 l 1
996 -170 l 1
830 -170 l 1
830 -340 l 1
166 -340 l 1
166 -170 l 1
0 -170 l 1
0 0 l 1
332 0 l 1
332 -170 l 1
664 -170 l 1
664 170 l 1
166 170 l 1
166 340 l 1
0 340 l 1
0 850 l 1
166 850 l 1
166 1020 l 1
663 850 m 1
332 850 l 1
332 340 l 1
664 340 l 1
663 850 l 1
EndSplineSet
EndChar

StartChar: Gbreve
Encoding: 286 286
Width: 1328
Flags: W
LayerCount: 2
Fore
SplineSet
166 1700 m 1
332 1700 l 1
332 1530 l 1
830 1530 l 1
830 1700 l 1
996 1700 l 1
996 1530 l 1
830 1529 l 1
830 1360 l 1
332 1360 l 1
331 1530 l 1
166 1530 l 1
166 1700 l 1
332 1190 m 1
996 1190 l 1
996 1020 l 1
1162 1020 l 1
1162 850 l 1
830 850 l 1
830 1020 l 1
498 1020 l 1
498 850 l 1
332 850 l 1
332 340 l 1
498 340 l 1
498 170 l 1
830 170 l 1
830 340 l 1
664 340 l 1
664 510 l 1
1162 510 l 1
1162 0 l 1
332 0 l 1
332 170 l 1
166 170 l 1
166 340 l 1
0 340 l 1
0 850 l 1
166 850 l 1
166 1020 l 1
332 1020 l 1
332 1190 l 1
EndSplineSet
EndChar

StartChar: gbreve
Encoding: 287 287
Width: 1328
Flags: W
LayerCount: 2
Fore
SplineSet
166 1530 m 1
332 1530 l 1
332 1360 l 1
830 1360 l 1
830 1530 l 1
996 1530 l 1
996 1360 l 1
830 1359 l 1
830 1190 l 1
332 1190 l 1
331 1360 l 1
166 1360 l 1
166 1530 l 1
166 1020 m 1
664 1020 l 1
664 850 l 1
830 850 l 1
830 1020 l 1
1162 1020 l 1
1162 850 l 1
996 850 l 1
996 -170 l 1
830 -170 l 1
830 -340 l 1
166 -340 l 1
166 -170 l 1
0 -170 l 1
0 0 l 1
332 0 l 1
332 -170 l 1
664 -170 l 1
664 170 l 1
166 170 l 1
166 340 l 1
0 340 l 1
0 850 l 1
166 850 l 1
166 1020 l 1
663 850 m 1
332 850 l 1
332 340 l 1
664 340 l 1
663 850 l 1
EndSplineSet
EndChar

StartChar: Gdotaccent
Encoding: 288 288
Width: 1328
Flags: W
LayerCount: 2
Fore
SplineSet
498 1700 m 1
830 1700 l 1
830 1360 l 1
498 1360 l 1
498 1700 l 1
332 1190 m 1
996 1190 l 1
996 1020 l 1
1162 1020 l 1
1162 850 l 1
830 850 l 1
830 1020 l 1
498 1020 l 1
498 850 l 1
332 850 l 1
332 340 l 1
498 340 l 1
498 170 l 1
830 170 l 1
830 340 l 1
664 340 l 1
664 510 l 1
1162 510 l 1
1162 0 l 1
332 0 l 1
332 170 l 1
166 170 l 1
166 340 l 1
0 340 l 1
0 850 l 1
166 850 l 1
166 1020 l 1
332 1020 l 1
332 1190 l 1
EndSplineSet
EndChar

StartChar: gdotaccent
Encoding: 289 289
Width: 1328
Flags: W
LayerCount: 2
Fore
SplineSet
332 1530 m 1
664 1530 l 1
664 1190 l 1
332 1190 l 1
332 1530 l 1
166 1020 m 1
664 1020 l 1
664 850 l 1
830 850 l 1
830 1020 l 1
1162 1020 l 1
1162 850 l 1
996 850 l 1
996 -170 l 1
830 -170 l 1
830 -340 l 1
166 -340 l 1
166 -170 l 1
0 -170 l 1
0 0 l 1
332 0 l 1
332 -170 l 1
664 -170 l 1
664 170 l 1
166 170 l 1
166 340 l 1
0 340 l 1
0 850 l 1
166 850 l 1
166 1020 l 1
663 850 m 1
332 850 l 1
332 340 l 1
664 340 l 1
663 850 l 1
EndSplineSet
EndChar

StartChar: uni0122
Encoding: 290 290
Width: 1328
Flags: W
LayerCount: 2
Fore
SplineSet
332 1530 m 1
996 1530 l 1
996 1360 l 1
1162 1360 l 1
1162 1020 l 1
830 1020 l 1
830 1360 l 1
498 1360 l 1
498 1190 l 1
332 1190 l 1
332 340 l 1
498 340 l 1
498 170 l 1
830 170 l 1
830 510 l 1
664 510 l 1
664 680 l 1
1162 680 l 1
1162 0 l 1
996 0 l 1
996 -170 l 1
830 -170 l 1
830 -340 l 1
498 -340 l 1
498 -170 l 1
664 -170 l 1
664 0 l 1
332 0 l 1
332 170 l 1
166 170 l 1
166 340 l 1
0 340 l 1
0 1190 l 1
166 1190 l 1
166 1360 l 1
332 1360 l 1
332 1530 l 1
EndSplineSet
EndChar

StartChar: uni0123
Encoding: 291 291
Width: 1328
Flags: W
LayerCount: 2
Fore
SplineSet
498 1700 m 1
830 1700 l 1
830 1360 l 1
664 1360 l 1
664 1190 l 1
332 1190 l 1
332 1360 l 1
498 1360 l 1
498 1700 l 1
166 1020 m 1
664 1020 l 1
664 850 l 1
830 850 l 1
830 1020 l 1
1162 1020 l 1
1162 850 l 1
996 850 l 1
996 -170 l 1
830 -170 l 1
830 -340 l 1
166 -340 l 1
166 -170 l 1
0 -170 l 1
0 0 l 1
332 0 l 1
332 -170 l 1
664 -170 l 1
664 170 l 1
166 170 l 1
166 340 l 1
0 340 l 1
0 850 l 1
166 850 l 1
166 1020 l 1
663 850 m 1
332 850 l 1
332 340 l 1
664 340 l 1
663 850 l 1
EndSplineSet
EndChar

StartChar: Hcircumflex
Encoding: 292 292
Width: 1328
Flags: W
LayerCount: 2
Fore
SplineSet
166 1700 m 1
830 1700 l 1
830 1530 l 1
996 1530 l 1
996 1360 l 1
664 1360 l 1
664 1530 l 1
332 1530 l 1
332 1360 l 1
0 1360 l 1
0 1530 l 1
166 1530 l 1
166 1700 l 1
0 1190 m 1
332 1190 l 1
332 680 l 1
664 680 l 1
664 1190 l 1
996 1190 l 1
996 0 l 1
664 0 l 1
664 510 l 1
332 510 l 1
332 0 l 1
0 0 l 1
0 1190 l 1
EndSplineSet
EndChar

StartChar: hcircumflex
Encoding: 293 293
Width: 1328
Flags: W
LayerCount: 2
Fore
SplineSet
166 1700 m 1
830 1700 l 1
830 1530 l 1
996 1530 l 1
996 1360 l 1
664 1360 l 1
664 1530 l 1
332 1530 l 1
332 1360 l 1
0 1360 l 1
0 1530 l 1
166 1530 l 1
166 1700 l 1
0 1190 m 1
498 1190 l 1
498 680 l 1
664 680 l 1
664 510 l 1
498 510 l 1
498 0 l 1
0 0 l 1
0 170 l 1
166 170 l 1
166 1020 l 1
0 1020 l 1
0 1190 l 1
664 850 m 1
996 850 l 1
996 680 l 1
1162 680 l 1
1162 0 l 1
830 0 l 1
830 680 l 1
664 681 l 1
664 850 l 1
EndSplineSet
EndChar

StartChar: Hbar
Encoding: 294 294
Width: 1328
Flags: W
LayerCount: 2
Fore
SplineSet
166 1530 m 1
498 1530 l 1
498 1360 l 1
830 1360 l 1
830 1530 l 1
1162 1530 l 1
1162 1360 l 1
1328 1360 l 1
1328 1190 l 1
1162 1190 l 1
1162 0 l 1
830 0 l 1
830 680 l 1
498 680 l 1
498 0 l 1
166 0 l 1
166 1190 l 1
0 1190 l 1
0 1360 l 1
166 1360 l 1
166 1530 l 1
830 1190 m 1
498 1190 l 1
498 850 l 1
830 850 l 1
830 1190 l 1
EndSplineSet
EndChar

StartChar: hbar
Encoding: 295 295
Width: 1328
Flags: W
LayerCount: 2
Fore
SplineSet
166 1530 m 1
498 1530 l 1
498 1360 l 1
830 1360 l 1
830 1190 l 1
498 1190 l 1
498 850 l 1
664 850 l 1
664 680 l 1
498 680 l 1
498 0 l 1
0 0 l 1
0 170 l 1
166 170 l 1
166 1190 l 1
0 1190 l 1
0 1360 l 1
166 1360 l 1
166 1530 l 1
664 1020 m 1
996 1020 l 1
996 850 l 1
1162 850 l 1
1162 0 l 1
830 0 l 1
830 850 l 1
664 851 l 1
664 1020 l 1
EndSplineSet
EndChar

StartChar: Itilde
Encoding: 296 296
Width: 1328
Flags: W
LayerCount: 2
Fore
SplineSet
166 1700 m 1
664 1700 l 1
664 1530 l 1
830 1530 l 1
830 1700 l 1
1162 1700 l 1
1162 1530 l 1
996 1530 l 1
996 1360 l 1
498 1360 l 1
498 1530 l 1
332 1530 l 1
332 1360 l 1
0 1360 l 1
0 1530 l 1
166 1530 l 1
166 1700 l 1
166 1190 m 1
830 1190 l 1
830 1020 l 1
664 1020 l 1
664 170 l 1
830 170 l 1
830 0 l 1
166 0 l 1
166 170 l 1
332 170 l 1
332 1020 l 1
166 1020 l 1
166 1190 l 1
EndSplineSet
EndChar

StartChar: itilde
Encoding: 297 297
Width: 1328
Flags: W
LayerCount: 2
Fore
SplineSet
166 1530 m 1
664 1530 l 1
664 1360 l 1
830 1360 l 1
830 1530 l 1
1162 1530 l 1
1162 1360 l 1
996 1360 l 1
996 1190 l 1
498 1190 l 1
498 1360 l 1
332 1360 l 1
332 1190 l 1
0 1190 l 1
0 1360 l 1
166 1360 l 1
166 1530 l 1
166 1020 m 1
830 1020 l 1
830 170 l 1
1162 170 l 1
1162 0 l 1
166 0 l 1
166 170 l 1
498 170 l 1
498 850 l 1
166 850 l 1
166 1020 l 1
EndSplineSet
EndChar

StartChar: Imacron
Encoding: 298 298
Width: 1328
Flags: W
LayerCount: 2
Fore
SplineSet
166 1700 m 1
830 1700 l 1
830 1360 l 1
166 1360 l 1
166 1700 l 1
166 1190 m 1
830 1190 l 1
830 1020 l 1
664 1020 l 1
664 170 l 1
830 170 l 1
830 0 l 1
166 0 l 1
166 170 l 1
332 170 l 1
332 1020 l 1
166 1020 l 1
166 1190 l 1
EndSplineSet
EndChar

StartChar: imacron
Encoding: 299 299
Width: 1328
Flags: W
LayerCount: 2
Fore
SplineSet
166 1530 m 1
830 1530 l 1
830 1190 l 1
166 1190 l 1
166 1530 l 1
166 1020 m 1
830 1020 l 1
830 170 l 1
1162 170 l 1
1162 0 l 1
166 0 l 1
166 170 l 1
498 170 l 1
498 850 l 1
166 850 l 1
166 1020 l 1
EndSplineSet
EndChar

StartChar: Ibreve
Encoding: 300 300
Width: 1328
Flags: W
LayerCount: 2
Fore
SplineSet
0 1700 m 1
166 1700 l 1
166 1530 l 1
830 1530 l 1
830 1700 l 1
996 1700 l 1
996 1530 l 1
830 1529 l 1
830 1360 l 1
166 1360 l 1
165 1530 l 1
0 1530 l 1
0 1700 l 1
166 1190 m 1
830 1190 l 1
830 1020 l 1
664 1020 l 1
664 170 l 1
830 170 l 1
830 0 l 1
166 0 l 1
166 170 l 1
332 170 l 1
332 1020 l 1
166 1020 l 1
166 1190 l 1
EndSplineSet
EndChar

StartChar: ibreve
Encoding: 301 301
Width: 1328
Flags: W
LayerCount: 2
Fore
SplineSet
166 1530 m 1
332 1530 l 1
332 1360 l 1
830 1360 l 1
830 1530 l 1
996 1530 l 1
996 1360 l 1
830 1359 l 1
830 1190 l 1
332 1190 l 1
331 1360 l 1
166 1360 l 1
166 1530 l 1
166 1020 m 1
830 1020 l 1
830 170 l 1
1162 170 l 1
1162 0 l 1
166 0 l 1
166 170 l 1
498 170 l 1
498 850 l 1
166 850 l 1
166 1020 l 1
EndSplineSet
EndChar

StartChar: Iogonek
Encoding: 302 302
Width: 1328
Flags: W
LayerCount: 2
Fore
SplineSet
166 1530 m 1
830 1530 l 1
830 1360 l 1
664 1360 l 1
664 170 l 1
830 170 l 1
830 0 l 1
498 0 l 1
498 -170 l 1
830 -170 l 1
830 -340 l 1
332 -340 l 1
332 0 l 1
166 0 l 1
166 170 l 1
332 170 l 1
332 1360 l 1
166 1360 l 1
166 1530 l 1
EndSplineSet
EndChar

StartChar: iogonek
Encoding: 303 303
Width: 1328
Flags: W
LayerCount: 2
Fore
SplineSet
498 1530 m 1
830 1530 l 1
830 1190 l 1
498 1190 l 1
498 1530 l 1
166 1020 m 1
830 1020 l 1
830 170 l 1
1162 170 l 1
1162 0 l 1
664 0 l 1
664 -170 l 1
996 -170 l 1
996 -340 l 1
498 -340 l 1
498 0 l 1
166 0 l 1
166 170 l 1
498 170 l 1
498 850 l 1
166 850 l 1
166 1020 l 1
EndSplineSet
EndChar

StartChar: Idotaccent
Encoding: 304 304
Width: 1328
Flags: W
LayerCount: 2
Fore
SplineSet
332 1700 m 1
664 1700 l 1
664 1360 l 1
332 1360 l 1
332 1700 l 1
166 1190 m 1
830 1190 l 1
830 1020 l 1
664 1020 l 1
664 170 l 1
830 170 l 1
830 0 l 1
166 0 l 1
166 170 l 1
332 170 l 1
332 1020 l 1
166 1020 l 1
166 1190 l 1
EndSplineSet
EndChar

StartChar: dotlessi
Encoding: 305 305
Width: 1328
Flags: W
LayerCount: 2
Fore
SplineSet
166 1020 m 1
830 1020 l 1
830 170 l 1
1162 170 l 1
1162 0 l 1
166 0 l 1
166 170 l 1
498 170 l 1
498 850 l 1
166 850 l 1
166 1020 l 1
EndSplineSet
EndChar

StartChar: IJ
Encoding: 306 306
Width: 1328
Flags: W
LayerCount: 2
Fore
SplineSet
0 1530 m 1
664 1530 l 1
664 1360 l 1
498 1360 l 1
498 680 l 1
830 680 l 1
830 170 l 1
996 170 l 1
996 1360 l 1
830 1360 l 1
830 1530 l 1
1328 1530 l 1
1328 170 l 1
1162 170 l 1
1162 0 l 1
664 0 l 1
664 170 l 1
498 170 l 1
498 0 l 1
0 0 l 1
0 170 l 1
166 170 l 1
166 1360 l 1
0 1360 l 1
0 1530 l 1
EndSplineSet
EndChar

StartChar: ij
Encoding: 307 307
Width: 1328
Flags: W
LayerCount: 2
Fore
SplineSet
166 1530 m 1
498 1530 l 1
498 1190 l 1
166 1190 l 1
166 1530 l 1
996 1530 m 1
1328 1530 l 1
1328 1190 l 1
996 1190 l 1
996 1530 l 1
0 1020 m 1
498 1020 l 1
498 170 l 1
664 170 l 1
664 0 l 1
0 0 l 1
0 170 l 1
166 170 l 1
166 850 l 1
0 850 l 1
0 1020 l 1
664 1020 m 1
1328 1020 l 1
1328 -170 l 1
1162 -170 l 1
1162 -340 l 1
498 -340 l 1
498 -170 l 1
996 -170 l 1
996 850 l 1
664 850 l 1
664 1020 l 1
EndSplineSet
EndChar

StartChar: Jcircumflex
Encoding: 308 308
Width: 1328
Flags: W
LayerCount: 2
Fore
SplineSet
332 1700 m 1
996 1700 l 1
996 1530 l 1
1162 1530 l 1
1162 1360 l 1
830 1360 l 1
830 1530 l 1
498 1530 l 1
498 1360 l 1
166 1360 l 1
166 1530 l 1
332 1530 l 1
332 1700 l 1
498 1190 m 1
1162 1190 l 1
1162 1020 l 1
996 1020 l 1
996 170 l 1
830 170 l 1
830 0 l 1
166 0 l 1
166 170 l 1
0 170 l 1
0 510 l 1
332 510 l 1
332 170 l 1
664 170 l 1
664 1020 l 1
498 1020 l 1
498 1190 l 1
EndSplineSet
EndChar

StartChar: jcircumflex
Encoding: 309 309
Width: 1328
Flags: W
LayerCount: 2
Fore
SplineSet
498 1700 m 1
830 1700 l 1
830 1530 l 1
996 1530 l 1
996 1360 l 1
1162 1360 l 1
1162 1190 l 1
830 1190 l 1
830 1360 l 1
498 1360 l 1
498 1190 l 1
166 1190 l 1
166 1360 l 1
332 1360 l 1
332 1530 l 1
498 1530 l 1
498 1700 l 1
332 1020 m 1
996 1020 l 1
996 -170 l 1
830 -170 l 1
830 -340 l 1
166 -340 l 1
166 -170 l 1
0 -170 l 1
0 170 l 1
332 170 l 1
332 -170 l 1
664 -170 l 1
664 850 l 1
332 850 l 1
332 1020 l 1
EndSplineSet
EndChar

StartChar: uni0136
Encoding: 310 310
Width: 1328
Flags: W
LayerCount: 2
Fore
SplineSet
0 1530 m 1
498 1530 l 1
498 850 l 1
664 850 l 1
664 1190 l 1
830 1190 l 1
830 1530 l 1
1162 1530 l 1
1162 1190 l 1
996 1190 l 1
996 850 l 1
830 850 l 1
830 680 l 1
996 680 l 1
996 340 l 1
1162 340 l 1
1162 0 l 1
830 0 l 1
830 -170 l 1
664 -170 l 1
664 -340 l 1
332 -340 l 1
332 -170 l 1
498 -170 l 1
498 0 l 1
830 1 l 1
830 340 l 1
664 340 l 1
664 680 l 1
498 680 l 1
497 0 l 1
0 0 l 1
0 170 l 1
166 170 l 1
166 1360 l 1
0 1360 l 1
0 1530 l 1
EndSplineSet
EndChar

StartChar: uni0137
Encoding: 311 311
Width: 1328
Flags: W
LayerCount: 2
Fore
SplineSet
0 1530 m 1
498 1530 l 1
498 680 l 1
664 680 l 1
664 850 l 1
830 850 l 1
830 1020 l 1
1162 1020 l 1
1162 850 l 1
996 850 l 1
996 680 l 1
830 680 l 1
830 510 l 1
996 510 l 1
996 340 l 1
1162 340 l 1
1162 0 l 1
830 0 l 1
830 -170 l 1
664 -170 l 1
664 -340 l 1
332 -340 l 1
332 -170 l 1
498 -170 l 1
498 0 l 1
830 1 l 1
830 340 l 1
664 340 l 1
664 510 l 1
498 510 l 1
497 0 l 1
0 0 l 1
0 170 l 1
166 170 l 1
166 1360 l 1
0 1360 l 1
0 1530 l 1
EndSplineSet
EndChar

StartChar: kgreenlandic
Encoding: 312 312
Width: 1328
Flags: W
LayerCount: 2
Fore
SplineSet
0 1020 m 1
498 1020 l 1
498 680 l 1
664 680 l 1
664 850 l 1
830 850 l 1
830 1020 l 1
1162 1020 l 1
1162 850 l 1
996 850 l 1
996 680 l 1
830 680 l 1
830 510 l 1
996 510 l 1
996 340 l 1
1162 340 l 1
1162 0 l 1
830 0 l 1
830 340 l 1
664 340 l 1
664 510 l 1
498 510 l 1
498 0 l 1
0 0 l 1
0 170 l 1
166 170 l 1
166 850 l 1
0 850 l 1
0 1020 l 1
EndSplineSet
EndChar

StartChar: Lacute
Encoding: 313 313
Width: 1328
Flags: W
LayerCount: 2
Fore
SplineSet
332 1700 m 1
664 1700 l 1
664 1530 l 1
498 1530 l 1
498 1360 l 1
166 1360 l 1
166 1530 l 1
332 1530 l 1
332 1700 l 1
0 1190 m 1
664 1190 l 1
664 1020 l 1
498 1020 l 1
498 170 l 1
830 170 l 1
830 340 l 1
996 340 l 1
996 510 l 1
1162 510 l 1
1162 0 l 1
0 0 l 1
0 170 l 1
166 170 l 1
166 1020 l 1
0 1020 l 1
0 1190 l 1
EndSplineSet
EndChar

StartChar: lacute
Encoding: 314 314
Width: 1328
Flags: W
LayerCount: 2
Fore
SplineSet
664 1700 m 1
996 1700 l 1
996 1530 l 1
830 1530 l 1
830 1360 l 1
498 1360 l 1
498 1530 l 1
664 1530 l 1
664 1700 l 1
166 1190 m 1
830 1190 l 1
830 170 l 1
1162 170 l 1
1162 0 l 1
166 0 l 1
166 170 l 1
498 170 l 1
498 1020 l 1
166 1020 l 1
166 1190 l 1
EndSplineSet
EndChar

StartChar: uni013B
Encoding: 315 315
Width: 1328
Flags: W
LayerCount: 2
Fore
SplineSet
0 1530 m 1
664 1530 l 1
664 1360 l 1
498 1360 l 1
498 170 l 1
830 170 l 1
830 510 l 1
996 510 l 1
996 680 l 1
1162 680 l 1
1162 0 l 1
830 0 l 1
830 -170 l 1
664 -170 l 1
664 -340 l 1
332 -340 l 1
332 -170 l 1
498 -170 l 1
498 0 l 1
0 0 l 1
0 170 l 1
166 170 l 1
166 1360 l 1
0 1360 l 1
0 1530 l 1
EndSplineSet
EndChar

StartChar: uni013C
Encoding: 316 316
Width: 1328
Flags: W
LayerCount: 2
Fore
SplineSet
166 1530 m 1
830 1530 l 1
830 170 l 1
1162 170 l 1
1162 0 l 1
830 0 l 1
830 -170 l 1
664 -170 l 1
664 -340 l 1
332 -340 l 1
332 -170 l 1
498 -170 l 1
498 0 l 1
166 0 l 1
166 170 l 1
498 170 l 1
498 1360 l 1
166 1360 l 1
166 1530 l 1
EndSplineSet
EndChar

StartChar: Lcaron
Encoding: 317 317
Width: 1328
Flags: W
LayerCount: 2
Fore
SplineSet
0 1530 m 1
664 1530 l 1
664 1360 l 1
498 1360 l 1
498 170 l 1
830 170 l 1
830 510 l 1
996 510 l 1
996 680 l 1
1162 680 l 1
1162 0 l 1
0 0 l 1
0 170 l 1
166 170 l 1
166 1360 l 1
0 1360 l 1
0 1530 l 1
830 1530 m 1
1162 1530 l 1
1162 1020 l 1
996 1020 l 1
996 850 l 1
830 850 l 1
830 1020 l 1
996 1021 l 1
996 1190 l 1
830 1190 l 1
830 1530 l 1
EndSplineSet
EndChar

StartChar: lcaron
Encoding: 318 318
Width: 1328
Flags: W
LayerCount: 2
Fore
SplineSet
0 1530 m 1
664 1530 l 1
664 170 l 1
996 170 l 1
996 0 l 1
0 0 l 1
0 170 l 1
332 170 l 1
332 1360 l 1
0 1360 l 1
0 1530 l 1
830 1530 m 1
1162 1530 l 1
1162 1020 l 1
996 1020 l 1
996 850 l 1
830 850 l 1
830 1020 l 1
996 1021 l 1
996 1190 l 1
830 1190 l 1
830 1530 l 1
EndSplineSet
EndChar

StartChar: Ldot
Encoding: 319 319
Width: 1328
Flags: W
LayerCount: 2
Fore
SplineSet
0 1530 m 1
664 1530 l 1
664 1360 l 1
498 1360 l 1
498 170 l 1
830 170 l 1
830 510 l 1
996 510 l 1
996 680 l 1
1162 680 l 1
1162 0 l 1
0 0 l 1
0 170 l 1
166 170 l 1
166 1360 l 1
0 1360 l 1
0 1530 l 1
830 1190 m 1
1162 1190 l 1
1162 850 l 1
830 850 l 1
830 1190 l 1
EndSplineSet
EndChar

StartChar: ldot
Encoding: 320 320
Width: 1328
Flags: W
LayerCount: 2
Fore
SplineSet
0 1530 m 1
664 1530 l 1
664 170 l 1
996 170 l 1
996 0 l 1
0 0 l 1
0 170 l 1
332 170 l 1
332 1360 l 1
0 1360 l 1
0 1530 l 1
830 1020 m 1
1162 1020 l 1
1162 680 l 1
830 680 l 1
830 1020 l 1
EndSplineSet
EndChar

StartChar: Lslash
Encoding: 321 321
Width: 1328
Flags: W
LayerCount: 2
Fore
SplineSet
0 1530 m 1
664 1530 l 1
664 1360 l 1
498 1360 l 1
498 1020 l 1
664 1020 l 1
664 1190 l 1
996 1190 l 1
996 1020 l 1
830 1020 l 1
830 850 l 1
664 850 l 1
664 680 l 1
498 680 l 1
498 170 l 1
830 170 l 1
830 510 l 1
996 510 l 1
996 680 l 1
1162 680 l 1
1162 0 l 1
0 0 l 1
0 170 l 1
166 170 l 1
166 510 l 1
0 510 l 1
0 680 l 1
166 680 l 1
166 1360 l 1
0 1360 l 1
0 1530 l 1
EndSplineSet
EndChar

StartChar: lslash
Encoding: 322 322
Width: 1328
Flags: W
LayerCount: 2
Fore
SplineSet
166 1530 m 1
830 1530 l 1
830 1190 l 1
1162 1190 l 1
1162 1020 l 1
996 1020 l 1
996 850 l 1
830 850 l 1
830 170 l 1
1162 170 l 1
1162 0 l 1
166 0 l 1
166 170 l 1
498 170 l 1
498 510 l 1
166 510 l 1
166 680 l 1
332 680 l 1
332 850 l 1
498 850 l 1
498 1360 l 1
166 1360 l 1
166 1530 l 1
EndSplineSet
EndChar

StartChar: Nacute
Encoding: 323 323
Width: 1328
Flags: W
LayerCount: 2
Fore
SplineSet
498 1700 m 1
830 1700 l 1
830 1530 l 1
664 1530 l 1
664 1360 l 1
332 1360 l 1
332 1190 l 1
498 1190 l 1
498 1020 l 1
664 1020 l 1
664 850 l 1
830 850 l 1
830 1360 l 1
1162 1360 l 1
1162 0 l 1
830 0 l 1
830 340 l 1
664 340 l 1
664 510 l 1
498 510 l 1
498 680 l 1
332 680 l 1
332 0 l 1
0 0 l 1
0 1360 l 1
332 1361 l 1
332 1530 l 1
498 1530 l 1
498 1700 l 1
EndSplineSet
EndChar

StartChar: nacute
Encoding: 324 324
Width: 1328
Flags: W
LayerCount: 2
Fore
SplineSet
664 1700 m 1
996 1700 l 1
996 1530 l 1
830 1530 l 1
830 1360 l 1
664 1360 l 1
664 1190 l 1
332 1190 l 1
332 1360 l 1
498 1360 l 1
498 1530 l 1
664 1530 l 1
664 1700 l 1
0 1020 m 1
830 1020 l 1
830 850 l 1
996 850 l 1
996 0 l 1
664 0 l 1
664 850 l 1
332 850 l 1
332 0 l 1
0 0 l 1
0 1020 l 1
EndSplineSet
EndChar

StartChar: uni0145
Encoding: 325 325
Width: 1328
Flags: W
LayerCount: 2
Fore
SplineSet
0 1530 m 1
332 1530 l 1
332 1190 l 1
498 1190 l 1
498 1020 l 1
664 1020 l 1
664 850 l 1
830 850 l 1
830 1530 l 1
1162 1530 l 1
1162 0 l 1
830 0 l 1
830 -170 l 1
664 -170 l 1
664 -340 l 1
332 -340 l 1
332 -170 l 1
498 -170 l 1
498 0 l 1
830 1 l 1
830 340 l 1
664 340 l 1
664 510 l 1
498 510 l 1
498 680 l 1
332 680 l 1
332 0 l 1
0 0 l 1
0 1530 l 1
EndSplineSet
EndChar

StartChar: uni0146
Encoding: 326 326
Width: 1328
Flags: W
LayerCount: 2
Fore
SplineSet
0 1020 m 1
830 1020 l 1
830 850 l 1
996 850 l 1
996 0 l 1
664 0 l 1
664 -170 l 1
498 -170 l 1
498 -340 l 1
166 -340 l 1
166 -170 l 1
332 -170 l 1
332 0 l 1
664 1 l 1
664 850 l 1
332 850 l 1
331 0 l 1
0 0 l 1
0 1020 l 1
EndSplineSet
EndChar

StartChar: Ncaron
Encoding: 327 327
Width: 1328
Flags: W
LayerCount: 2
Fore
SplineSet
166 1700 m 1
498 1700 l 1
498 1530 l 1
664 1530 l 1
664 1700 l 1
996 1700 l 1
996 1530 l 1
830 1530 l 1
830 1360 l 1
332 1360 l 1
332 1530 l 1
166 1530 l 1
166 1700 l 1
0 1360 m 1
332 1359 l 1
332 1190 l 1
498 1190 l 1
498 1020 l 1
664 1020 l 1
664 850 l 1
830 850 l 1
831 1360 l 1
1162 1360 l 1
1162 0 l 1
830 0 l 1
830 340 l 1
664 340 l 1
664 510 l 1
498 510 l 1
498 680 l 1
332 680 l 1
332 0 l 1
0 0 l 1
0 1360 l 1
EndSplineSet
EndChar

StartChar: ncaron
Encoding: 328 328
Width: 1328
Flags: W
LayerCount: 2
Fore
SplineSet
166 1530 m 1
498 1530 l 1
498 1360 l 1
664 1360 l 1
664 1530 l 1
996 1530 l 1
996 1360 l 1
830 1360 l 1
830 1190 l 1
332 1190 l 1
332 1360 l 1
166 1360 l 1
166 1530 l 1
0 1020 m 1
830 1020 l 1
830 850 l 1
996 850 l 1
996 0 l 1
664 0 l 1
664 850 l 1
332 850 l 1
332 0 l 1
0 0 l 1
0 1020 l 1
EndSplineSet
EndChar

StartChar: napostrophe
Encoding: 329 329
Width: 1328
Flags: W
LayerCount: 2
Fore
SplineSet
166 1700 m 1
498 1700 l 1
498 1360 l 1
332 1360 l 1
332 1190 l 1
0 1190 l 1
0 1360 l 1
166 1360 l 1
166 1700 l 1
166 1020 m 1
996 1020 l 1
996 850 l 1
1162 850 l 1
1162 0 l 1
830 0 l 1
830 850 l 1
498 850 l 1
498 0 l 1
166 0 l 1
166 1020 l 1
EndSplineSet
EndChar

StartChar: Eng
Encoding: 330 330
Width: 1328
Flags: W
LayerCount: 2
Fore
SplineSet
0 1530 m 1
332 1530 l 1
332 1190 l 1
498 1190 l 1
498 1020 l 1
664 1020 l 1
664 850 l 1
830 850 l 1
830 1530 l 1
1162 1530 l 1
1162 -170 l 1
996 -170 l 1
996 -340 l 1
498 -340 l 1
498 -170 l 1
830 -170 l 1
830 340 l 1
664 340 l 1
664 510 l 1
498 510 l 1
498 680 l 1
332 680 l 1
332 0 l 1
0 0 l 1
0 1530 l 1
EndSplineSet
EndChar

StartChar: eng
Encoding: 331 331
Width: 1328
Flags: W
LayerCount: 2
Fore
SplineSet
0 1020 m 1
830 1020 l 1
830 850 l 1
996 850 l 1
996 -170 l 1
830 -170 l 1
830 -340 l 1
332 -340 l 1
332 -170 l 1
664 -170 l 1
664 850 l 1
332 850 l 1
332 0 l 1
0 0 l 1
0 1020 l 1
EndSplineSet
EndChar

StartChar: Omacron
Encoding: 332 332
Width: 1328
Flags: W
LayerCount: 2
Fore
SplineSet
166 1700 m 1
830 1700 l 1
830 1360 l 1
166 1360 l 1
166 1700 l 1
166 1190 m 1
830 1190 l 1
830 1020 l 1
996 1020 l 1
996 170 l 1
830 170 l 1
830 0 l 1
166 0 l 1
166 170 l 1
0 170 l 1
0 1020 l 1
166 1020 l 1
166 1190 l 1
664 1020 m 1
332 1020 l 1
332 170 l 1
664 170 l 1
664 1020 l 1
EndSplineSet
EndChar

StartChar: omacron
Encoding: 333 333
Width: 1328
Flags: W
LayerCount: 2
Fore
SplineSet
166 1530 m 1
830 1530 l 1
830 1190 l 1
166 1190 l 1
166 1530 l 1
166 1020 m 1
830 1020 l 1
830 850 l 1
996 850 l 1
996 170 l 1
830 170 l 1
830 0 l 1
166 0 l 1
166 170 l 1
0 170 l 1
0 850 l 1
166 850 l 1
166 1020 l 1
664 850 m 1
332 850 l 1
332 170 l 1
664 170 l 1
664 850 l 1
EndSplineSet
EndChar

StartChar: Obreve
Encoding: 334 334
Width: 1328
Flags: W
LayerCount: 2
Fore
SplineSet
0 1700 m 1
166 1700 l 1
166 1530 l 1
830 1530 l 1
830 1700 l 1
996 1700 l 1
996 1530 l 1
830 1529 l 1
830 1360 l 1
166 1360 l 1
165 1530 l 1
0 1530 l 1
0 1700 l 1
166 1190 m 1
830 1190 l 1
830 1020 l 1
996 1020 l 1
996 170 l 1
830 170 l 1
830 0 l 1
166 0 l 1
166 170 l 1
0 170 l 1
0 1020 l 1
166 1020 l 1
166 1190 l 1
664 1020 m 1
332 1020 l 1
332 170 l 1
664 170 l 1
664 1020 l 1
EndSplineSet
EndChar

StartChar: obreve
Encoding: 335 335
Width: 1328
Flags: W
LayerCount: 2
Fore
SplineSet
0 1530 m 1
166 1530 l 1
166 1360 l 1
830 1360 l 1
830 1530 l 1
996 1530 l 1
996 1360 l 1
830 1359 l 1
830 1190 l 1
166 1190 l 1
165 1360 l 1
0 1360 l 1
0 1530 l 1
166 1020 m 1
830 1020 l 1
830 850 l 1
996 850 l 1
996 170 l 1
830 170 l 1
830 0 l 1
166 0 l 1
166 170 l 1
0 170 l 1
0 850 l 1
166 850 l 1
166 1020 l 1
664 850 m 1
332 850 l 1
332 170 l 1
664 170 l 1
664 850 l 1
EndSplineSet
EndChar

StartChar: Ohungarumlaut
Encoding: 336 336
Width: 1328
Flags: W
LayerCount: 2
Fore
SplineSet
166 1700 m 1
498 1700 l 1
498 1530 l 1
332 1530 l 1
332 1360 l 1
0 1360 l 1
0 1530 l 1
166 1530 l 1
166 1700 l 1
830 1700 m 1
1162 1700 l 1
1162 1530 l 1
996 1530 l 1
996 1360 l 1
664 1360 l 1
664 1530 l 1
830 1530 l 1
830 1700 l 1
166 1190 m 1
830 1190 l 1
830 1020 l 1
996 1020 l 1
996 170 l 1
830 170 l 1
830 0 l 1
166 0 l 1
166 170 l 1
0 170 l 1
0 1020 l 1
166 1020 l 1
166 1190 l 1
664 1020 m 1
332 1020 l 1
332 170 l 1
664 170 l 1
664 1020 l 1
EndSplineSet
EndChar

StartChar: ohungarumlaut
Encoding: 337 337
Width: 1328
Flags: W
LayerCount: 2
Fore
SplineSet
332 1700 m 1
664 1700 l 1
664 1530 l 1
498 1530 l 1
498 1360 l 1
332 1360 l 1
332 1190 l 1
0 1190 l 1
0 1360 l 1
166 1360 l 1
166 1530 l 1
332 1530 l 1
332 1700 l 1
996 1700 m 1
1328 1700 l 1
1328 1530 l 1
1162 1530 l 1
1162 1360 l 1
996 1360 l 1
996 1190 l 1
664 1190 l 1
664 1360 l 1
830 1360 l 1
830 1530 l 1
996 1530 l 1
996 1700 l 1
166 1020 m 1
830 1020 l 1
830 850 l 1
996 850 l 1
996 170 l 1
830 170 l 1
830 0 l 1
166 0 l 1
166 170 l 1
0 170 l 1
0 850 l 1
166 850 l 1
166 1020 l 1
664 850 m 1
332 850 l 1
332 170 l 1
664 170 l 1
664 850 l 1
EndSplineSet
EndChar

StartChar: OE
Encoding: 338 338
Width: 1328
Flags: W
LayerCount: 2
Fore
SplineSet
166 1530 m 1
1162 1530 l 1
1162 1360 l 1
830 1360 l 1
830 850 l 1
1162 850 l 1
1162 680 l 1
830 680 l 1
830 170 l 1
1162 170 l 1
1162 0 l 1
166 0 l 1
166 170 l 1
0 170 l 1
0 1360 l 1
166 1360 l 1
166 1530 l 1
498 1360 m 1
332 1360 l 1
332 170 l 1
498 170 l 1
498 1360 l 1
EndSplineSet
EndChar

StartChar: oe
Encoding: 339 339
Width: 1328
Flags: W
LayerCount: 2
Fore
SplineSet
166 1020 m 1
1162 1020 l 1
1162 850 l 1
1328 850 l 1
1328 510 l 1
830 510 l 1
830 170 l 1
1328 170 l 1
1328 0 l 1
166 0 l 1
166 170 l 1
0 170 l 1
0 850 l 1
166 850 l 1
166 1020 l 1
498 850 m 1
332 850 l 1
332 170 l 1
498 170 l 1
498 850 l 1
996 850 m 1
830 850 l 1
830 680 l 1
996 680 l 1
996 850 l 1
EndSplineSet
EndChar

StartChar: Racute
Encoding: 340 340
Width: 1328
Flags: W
LayerCount: 2
Fore
SplineSet
664 1700 m 1
996 1700 l 1
996 1530 l 1
830 1530 l 1
830 1360 l 1
498 1360 l 1
498 1530 l 1
664 1530 l 1
664 1700 l 1
0 1190 m 1
996 1190 l 1
996 1020 l 1
1162 1020 l 1
1162 680 l 1
996 680 l 1
996 340 l 1
1162 340 l 1
1162 0 l 1
830 0 l 1
830 340 l 1
664 340 l 1
664 510 l 1
498 510 l 1
498 0 l 1
0 0 l 1
0 170 l 1
166 170 l 1
166 1020 l 1
0 1020 l 1
0 1190 l 1
830 1020 m 1
498 1020 l 1
498 680 l 1
830 680 l 1
830 1020 l 1
EndSplineSet
EndChar

StartChar: racute
Encoding: 341 341
Width: 1328
Flags: W
LayerCount: 2
Fore
SplineSet
664 1700 m 1
996 1700 l 1
996 1530 l 1
830 1530 l 1
830 1360 l 1
664 1360 l 1
664 1190 l 1
332 1190 l 1
332 1360 l 1
498 1360 l 1
498 1530 l 1
664 1530 l 1
664 1700 l 1
0 1020 m 1
498 1020 l 1
498 680 l 1
664 680 l 1
664 510 l 1
498 510 l 1
498 170 l 1
664 170 l 1
664 0 l 1
0 0 l 1
0 170 l 1
166 170 l 1
166 850 l 1
0 850 l 1
0 1020 l 1
664 1020 m 1
996 1020 l 1
996 850 l 1
1162 850 l 1
1162 510 l 1
830 510 l 1
830 680 l 1
664 681 l 1
664 1020 l 1
EndSplineSet
EndChar

StartChar: uni0156
Encoding: 342 342
Width: 1328
Flags: W
LayerCount: 2
Fore
SplineSet
0 1530 m 1
996 1530 l 1
996 1360 l 1
1162 1360 l 1
1162 850 l 1
996 850 l 1
996 510 l 1
1162 510 l 1
1162 0 l 1
830 0 l 1
830 -170 l 1
664 -170 l 1
664 -340 l 1
332 -340 l 1
332 -170 l 1
498 -170 l 1
498 0 l 1
830 1 l 1
830 510 l 1
664 510 l 1
664 680 l 1
498 680 l 1
497 0 l 1
0 0 l 1
0 170 l 1
166 170 l 1
166 1360 l 1
0 1360 l 1
0 1530 l 1
830 1360 m 1
498 1360 l 1
498 850 l 1
830 850 l 1
830 1360 l 1
EndSplineSet
EndChar

StartChar: uni0157
Encoding: 343 343
Width: 1328
Flags: W
LayerCount: 2
Fore
SplineSet
0 1020 m 1
498 1020 l 1
498 680 l 1
664 680 l 1
664 510 l 1
498 510 l 1
498 170 l 1
664 170 l 1
664 0 l 1
0 0 l 1
0 170 l 1
166 170 l 1
166 850 l 1
0 850 l 1
0 1020 l 1
664 1020 m 1
996 1020 l 1
996 850 l 1
1162 850 l 1
1162 510 l 1
830 510 l 1
830 680 l 1
664 681 l 1
664 1020 l 1
830 0 m 1
1162 0 l 1
1162 -170 l 1
996 -170 l 1
996 -340 l 1
664 -340 l 1
664 -170 l 1
830 -170 l 1
830 0 l 1
EndSplineSet
EndChar

StartChar: Rcaron
Encoding: 344 344
Width: 1328
Flags: W
LayerCount: 2
Fore
SplineSet
166 1700 m 1
498 1700 l 1
498 1530 l 1
664 1530 l 1
664 1700 l 1
996 1700 l 1
996 1530 l 1
830 1530 l 1
830 1360 l 1
332 1360 l 1
332 1530 l 1
166 1530 l 1
166 1700 l 1
0 1190 m 1
996 1190 l 1
996 1020 l 1
1162 1020 l 1
1162 680 l 1
996 680 l 1
996 340 l 1
1162 340 l 1
1162 0 l 1
830 0 l 1
830 340 l 1
664 340 l 1
664 510 l 1
498 510 l 1
498 0 l 1
0 0 l 1
0 170 l 1
166 170 l 1
166 1020 l 1
0 1020 l 1
0 1190 l 1
830 1020 m 1
498 1020 l 1
498 680 l 1
830 680 l 1
830 1020 l 1
EndSplineSet
EndChar

StartChar: rcaron
Encoding: 345 345
Width: 1328
Flags: W
LayerCount: 2
Fore
SplineSet
166 1530 m 1
498 1530 l 1
498 1360 l 1
664 1360 l 1
664 1530 l 1
996 1530 l 1
996 1360 l 1
830 1360 l 1
830 1190 l 1
332 1190 l 1
332 1360 l 1
166 1360 l 1
166 1530 l 1
0 1020 m 1
498 1020 l 1
498 680 l 1
664 680 l 1
664 510 l 1
498 510 l 1
498 170 l 1
664 170 l 1
664 0 l 1
0 0 l 1
0 170 l 1
166 170 l 1
166 850 l 1
0 850 l 1
0 1020 l 1
664 1020 m 1
996 1020 l 1
996 850 l 1
1162 850 l 1
1162 510 l 1
830 510 l 1
830 680 l 1
664 681 l 1
664 1020 l 1
EndSplineSet
EndChar

StartChar: Sacute
Encoding: 346 346
Width: 1328
Flags: W
LayerCount: 2
Fore
SplineSet
498 1700 m 1
830 1700 l 1
830 1530 l 1
664 1530 l 1
664 1360 l 1
332 1360 l 1
332 1530 l 1
498 1530 l 1
498 1700 l 1
166 1190 m 1
830 1190 l 1
830 1020 l 1
996 1020 l 1
996 850 l 1
664 850 l 1
664 1020 l 1
332 1020 l 1
332 680 l 1
830 680 l 1
830 510 l 1
996 510 l 1
996 170 l 1
830 170 l 1
830 0 l 1
166 0 l 1
166 170 l 1
0 170 l 1
0 340 l 1
332 340 l 1
332 170 l 1
664 170 l 1
664 510 l 1
166 510 l 1
166 680 l 1
0 680 l 1
0 1020 l 1
166 1020 l 1
166 1190 l 1
EndSplineSet
EndChar

StartChar: sacute
Encoding: 347 347
Width: 1328
Flags: W
LayerCount: 2
Fore
SplineSet
664 1700 m 1
996 1700 l 1
996 1530 l 1
830 1530 l 1
830 1360 l 1
664 1360 l 1
664 1190 l 1
332 1190 l 1
332 1360 l 1
498 1360 l 1
498 1530 l 1
664 1530 l 1
664 1700 l 1
166 1020 m 1
830 1020 l 1
830 850 l 1
996 850 l 1
996 680 l 1
664 680 l 1
664 850 l 1
332 850 l 1
332 680 l 1
498 680 l 1
498 510 l 1
830 510 l 1
830 340 l 1
996 340 l 1
996 170 l 1
830 170 l 1
830 0 l 1
166 0 l 1
166 170 l 1
0 170 l 1
0 340 l 1
332 340 l 1
332 170 l 1
664 170 l 1
664 340 l 1
498 340 l 1
497 510 l 1
166 510 l 1
166 680 l 1
0 680 l 1
0 850 l 1
166 850 l 1
166 1020 l 1
EndSplineSet
EndChar

StartChar: Scircumflex
Encoding: 348 348
Width: 1328
Flags: W
LayerCount: 2
Fore
SplineSet
166 1700 m 1
830 1700 l 1
830 1530 l 1
996 1530 l 1
996 1360 l 1
664 1360 l 1
664 1530 l 1
332 1530 l 1
332 1360 l 1
0 1360 l 1
0 1530 l 1
166 1530 l 1
166 1700 l 1
166 1190 m 1
830 1190 l 1
830 1020 l 1
996 1020 l 1
996 850 l 1
664 850 l 1
664 1020 l 1
332 1020 l 1
332 680 l 1
830 680 l 1
830 510 l 1
996 510 l 1
996 170 l 1
830 170 l 1
830 0 l 1
166 0 l 1
166 170 l 1
0 170 l 1
0 340 l 1
332 340 l 1
332 170 l 1
664 170 l 1
664 510 l 1
166 510 l 1
166 680 l 1
0 680 l 1
0 1020 l 1
166 1020 l 1
166 1190 l 1
EndSplineSet
EndChar

StartChar: scircumflex
Encoding: 349 349
Width: 1328
Flags: W
LayerCount: 2
Fore
SplineSet
332 1700 m 1
664 1700 l 1
664 1530 l 1
830 1530 l 1
830 1360 l 1
996 1360 l 1
996 1190 l 1
664 1190 l 1
664 1360 l 1
332 1360 l 1
332 1190 l 1
0 1190 l 1
0 1360 l 1
166 1360 l 1
166 1530 l 1
332 1530 l 1
332 1700 l 1
166 1020 m 1
830 1020 l 1
830 850 l 1
996 850 l 1
996 680 l 1
664 680 l 1
664 850 l 1
332 850 l 1
332 680 l 1
498 680 l 1
498 510 l 1
830 510 l 1
830 340 l 1
996 340 l 1
996 170 l 1
830 170 l 1
830 0 l 1
166 0 l 1
166 170 l 1
0 170 l 1
0 340 l 1
332 340 l 1
332 170 l 1
664 170 l 1
664 340 l 1
498 340 l 1
497 510 l 1
166 510 l 1
166 680 l 1
0 680 l 1
0 850 l 1
166 850 l 1
166 1020 l 1
EndSplineSet
EndChar

StartChar: Scedilla
Encoding: 350 350
Width: 1328
Flags: W
LayerCount: 2
Fore
SplineSet
166 1530 m 1
830 1530 l 1
830 1360 l 1
996 1360 l 1
996 1020 l 1
664 1020 l 1
664 1360 l 1
332 1360 l 1
332 850 l 1
664 850 l 1
664 680 l 1
830 680 l 1
830 510 l 1
996 510 l 1
996 170 l 1
830 170 l 1
830 0 l 1
664 0 l 1
664 -170 l 1
498 -170 l 1
498 -340 l 1
166 -340 l 1
166 -170 l 1
332 -170 l 1
332 0 l 1
166 0 l 1
166 170 l 1
0 170 l 1
0 510 l 1
332 510 l 1
332 170 l 1
664 170 l 1
664 510 l 1
498 510 l 1
498 680 l 1
166 680 l 1
166 850 l 1
0 850 l 1
0 1360 l 1
166 1360 l 1
166 1530 l 1
EndSplineSet
EndChar

StartChar: scedilla
Encoding: 351 351
Width: 1328
Flags: W
LayerCount: 2
Fore
SplineSet
166 1020 m 1
830 1020 l 1
830 850 l 1
996 850 l 1
996 680 l 1
664 680 l 1
664 850 l 1
332 850 l 1
332 680 l 1
498 680 l 1
498 510 l 1
830 510 l 1
830 340 l 1
996 340 l 1
996 170 l 1
830 170 l 1
830 0 l 1
664 0 l 1
664 -170 l 1
498 -170 l 1
498 -340 l 1
166 -340 l 1
166 -170 l 1
332 -170 l 1
332 0 l 1
166 0 l 1
166 170 l 1
0 170 l 1
0 340 l 1
332 340 l 1
332 170 l 1
664 170 l 1
664 340 l 1
498 340 l 1
497 510 l 1
166 510 l 1
166 680 l 1
0 680 l 1
0 850 l 1
166 850 l 1
166 1020 l 1
EndSplineSet
EndChar

StartChar: Scaron
Encoding: 352 352
Width: 1328
Flags: W
LayerCount: 2
Fore
SplineSet
166 1700 m 1
498 1700 l 1
498 1530 l 1
664 1530 l 1
664 1700 l 1
996 1700 l 1
996 1530 l 1
830 1530 l 1
830 1360 l 1
332 1360 l 1
332 1530 l 1
166 1530 l 1
166 1700 l 1
166 1190 m 1
830 1190 l 1
830 1020 l 1
996 1020 l 1
996 850 l 1
664 850 l 1
664 1020 l 1
332 1020 l 1
332 680 l 1
830 680 l 1
830 510 l 1
996 510 l 1
996 170 l 1
830 170 l 1
830 0 l 1
166 0 l 1
166 170 l 1
0 170 l 1
0 340 l 1
332 340 l 1
332 170 l 1
664 170 l 1
664 510 l 1
166 510 l 1
166 680 l 1
0 680 l 1
0 1020 l 1
166 1020 l 1
166 1190 l 1
EndSplineSet
EndChar

StartChar: scaron
Encoding: 353 353
Width: 1328
Flags: W
LayerCount: 2
Fore
SplineSet
166 1530 m 1
498 1530 l 1
498 1360 l 1
664 1360 l 1
664 1530 l 1
996 1530 l 1
996 1360 l 1
830 1360 l 1
830 1190 l 1
332 1190 l 1
332 1360 l 1
166 1360 l 1
166 1530 l 1
166 1020 m 1
830 1020 l 1
830 850 l 1
996 850 l 1
996 680 l 1
664 680 l 1
664 850 l 1
332 850 l 1
332 680 l 1
498 680 l 1
498 510 l 1
830 510 l 1
830 340 l 1
996 340 l 1
996 170 l 1
830 170 l 1
830 0 l 1
166 0 l 1
166 170 l 1
0 170 l 1
0 340 l 1
332 340 l 1
332 170 l 1
664 170 l 1
664 340 l 1
498 340 l 1
497 510 l 1
166 510 l 1
166 680 l 1
0 680 l 1
0 850 l 1
166 850 l 1
166 1020 l 1
EndSplineSet
EndChar

StartChar: uni0162
Encoding: 354 354
Width: 1328
Flags: W
LayerCount: 2
Fore
SplineSet
0 1530 m 1
996 1530 l 1
996 1190 l 1
830 1190 l 1
830 1360 l 1
664 1360 l 1
664 170 l 1
830 170 l 1
830 0 l 1
664 0 l 1
664 -170 l 1
498 -170 l 1
498 -340 l 1
166 -340 l 1
166 -170 l 1
332 -170 l 1
332 0 l 1
166 0 l 1
166 170 l 1
332 170 l 1
332 1360 l 1
166 1360 l 1
166 1190 l 1
0 1190 l 1
0 1530 l 1
EndSplineSet
EndChar

StartChar: uni0163
Encoding: 355 355
Width: 1328
Flags: W
LayerCount: 2
Fore
SplineSet
332 1360 m 1
498 1360 l 1
498 1020 l 1
830 1020 l 1
830 850 l 1
498 850 l 1
498 170 l 1
664 170 l 1
664 340 l 1
996 340 l 1
996 170 l 1
830 170 l 1
830 0 l 1
664 0 l 1
664 -170 l 1
498 -170 l 1
498 -340 l 1
166 -340 l 1
166 -170 l 1
332 -170 l 1
332 170 l 1
166 170 l 1
166 850 l 1
0 850 l 1
0 1020 l 1
166 1020 l 1
166 1190 l 1
332 1190 l 1
332 1360 l 1
EndSplineSet
EndChar

StartChar: Tcaron
Encoding: 356 356
Width: 1328
Flags: W
LayerCount: 2
Fore
SplineSet
0 1700 m 1
332 1700 l 1
332 1530 l 1
498 1530 l 1
498 1700 l 1
830 1700 l 1
830 1530 l 1
664 1530 l 1
664 1360 l 1
166 1360 l 1
166 1530 l 1
0 1530 l 1
0 1700 l 1
0 1190 m 1
996 1190 l 1
996 850 l 1
830 850 l 1
830 1020 l 1
664 1020 l 1
664 170 l 1
830 170 l 1
830 0 l 1
166 0 l 1
166 170 l 1
332 170 l 1
332 1020 l 1
166 1020 l 1
166 850 l 1
0 850 l 1
0 1190 l 1
EndSplineSet
EndChar

StartChar: tcaron
Encoding: 357 357
Width: 1328
Flags: W
LayerCount: 2
Fore
SplineSet
332 1360 m 1
498 1360 l 1
498 1020 l 1
664 1020 l 1
664 850 l 1
498 850 l 1
498 170 l 1
664 170 l 1
664 340 l 1
996 340 l 1
996 170 l 1
830 170 l 1
830 0 l 1
332 0 l 1
332 170 l 1
166 170 l 1
166 850 l 1
0 850 l 1
0 1020 l 1
166 1020 l 1
166 1190 l 1
332 1190 l 1
332 1360 l 1
830 1360 m 1
1162 1360 l 1
1162 850 l 1
996 850 l 1
996 680 l 1
830 680 l 1
830 850 l 1
996 851 l 1
996 1020 l 1
830 1020 l 1
830 1360 l 1
EndSplineSet
EndChar

StartChar: Tbar
Encoding: 358 358
Width: 1328
Flags: W
LayerCount: 2
Fore
SplineSet
0 1530 m 1
996 1530 l 1
996 1190 l 1
830 1190 l 1
830 1360 l 1
664 1360 l 1
664 850 l 1
996 850 l 1
996 680 l 1
664 680 l 1
664 170 l 1
830 170 l 1
830 0 l 1
166 0 l 1
166 170 l 1
332 170 l 1
332 680 l 1
0 680 l 1
0 850 l 1
332 850 l 1
332 1360 l 1
166 1360 l 1
166 1190 l 1
0 1190 l 1
0 1530 l 1
EndSplineSet
EndChar

StartChar: tbar
Encoding: 359 359
Width: 1328
Flags: W
LayerCount: 2
Fore
SplineSet
332 1360 m 1
498 1360 l 1
498 1020 l 1
664 1020 l 1
664 850 l 1
498 850 l 1
498 680 l 1
830 680 l 1
830 510 l 1
498 510 l 1
498 170 l 1
664 170 l 1
664 340 l 1
996 340 l 1
996 170 l 1
830 170 l 1
830 0 l 1
332 0 l 1
332 170 l 1
166 170 l 1
166 510 l 1
0 510 l 1
0 680 l 1
166 680 l 1
166 850 l 1
0 850 l 1
0 1020 l 1
166 1020 l 1
166 1190 l 1
332 1190 l 1
332 1360 l 1
EndSplineSet
EndChar

StartChar: Utilde
Encoding: 360 360
Width: 1328
Flags: W
LayerCount: 2
Fore
SplineSet
166 1700 m 1
664 1700 l 1
664 1530 l 1
830 1530 l 1
830 1700 l 1
1162 1700 l 1
1162 1530 l 1
996 1530 l 1
996 1360 l 1
498 1360 l 1
498 1530 l 1
332 1530 l 1
332 1360 l 1
0 1360 l 1
0 1530 l 1
166 1530 l 1
166 1700 l 1
0 1190 m 1
332 1190 l 1
332 170 l 1
664 170 l 1
664 1190 l 1
996 1190 l 1
996 170 l 1
830 170 l 1
830 0 l 1
166 0 l 1
166 170 l 1
0 170 l 1
0 1190 l 1
EndSplineSet
EndChar

StartChar: utilde
Encoding: 361 361
Width: 1328
Flags: W
LayerCount: 2
Fore
SplineSet
166 1530 m 1
664 1530 l 1
664 1360 l 1
830 1360 l 1
830 1530 l 1
1162 1530 l 1
1162 1360 l 1
996 1360 l 1
996 1190 l 1
498 1190 l 1
498 1360 l 1
332 1360 l 1
332 1190 l 1
0 1190 l 1
0 1360 l 1
166 1360 l 1
166 1530 l 1
0 1020 m 1
332 1020 l 1
332 170 l 1
664 170 l 1
664 1020 l 1
996 1020 l 1
996 170 l 1
1162 170 l 1
1162 0 l 1
830 0 l 1
830 170 l 1
664 169 l 1
664 0 l 1
166 0 l 1
166 170 l 1
0 170 l 1
0 1020 l 1
EndSplineSet
EndChar

StartChar: Umacron
Encoding: 362 362
Width: 1328
Flags: W
LayerCount: 2
Fore
SplineSet
166 1700 m 1
830 1700 l 1
830 1360 l 1
166 1360 l 1
166 1700 l 1
0 1190 m 1
332 1190 l 1
332 170 l 1
664 170 l 1
664 1190 l 1
996 1190 l 1
996 170 l 1
830 170 l 1
830 0 l 1
166 0 l 1
166 170 l 1
0 170 l 1
0 1190 l 1
EndSplineSet
EndChar

StartChar: umacron
Encoding: 363 363
Width: 1328
Flags: W
LayerCount: 2
Fore
SplineSet
166 1530 m 1
830 1530 l 1
830 1190 l 1
166 1190 l 1
166 1530 l 1
0 1020 m 1
332 1020 l 1
332 170 l 1
664 170 l 1
664 1020 l 1
996 1020 l 1
996 170 l 1
1162 170 l 1
1162 0 l 1
830 0 l 1
830 170 l 1
664 169 l 1
664 0 l 1
166 0 l 1
166 170 l 1
0 170 l 1
0 1020 l 1
EndSplineSet
EndChar

StartChar: Ubreve
Encoding: 364 364
Width: 1328
Flags: W
LayerCount: 2
Fore
SplineSet
0 1700 m 1
166 1700 l 1
166 1530 l 1
830 1530 l 1
830 1700 l 1
996 1700 l 1
996 1530 l 1
830 1529 l 1
830 1360 l 1
166 1360 l 1
165 1530 l 1
0 1530 l 1
0 1700 l 1
0 1190 m 1
332 1190 l 1
332 170 l 1
664 170 l 1
664 1190 l 1
996 1190 l 1
996 170 l 1
830 170 l 1
830 0 l 1
166 0 l 1
166 170 l 1
0 170 l 1
0 1190 l 1
EndSplineSet
EndChar

StartChar: ubreve
Encoding: 365 365
Width: 1328
Flags: W
LayerCount: 2
Fore
SplineSet
0 1530 m 1
166 1530 l 1
166 1360 l 1
830 1360 l 1
830 1530 l 1
996 1530 l 1
996 1360 l 1
830 1359 l 1
830 1190 l 1
166 1190 l 1
165 1360 l 1
0 1360 l 1
0 1530 l 1
0 1020 m 1
332 1020 l 1
332 170 l 1
664 170 l 1
664 1020 l 1
996 1020 l 1
996 170 l 1
1162 170 l 1
1162 0 l 1
830 0 l 1
830 170 l 1
664 169 l 1
664 0 l 1
166 0 l 1
166 170 l 1
0 170 l 1
0 1020 l 1
EndSplineSet
EndChar

StartChar: Uring
Encoding: 366 366
Width: 1328
Flags: W
LayerCount: 2
Fore
SplineSet
332 1700 m 1
664 1700 l 1
664 1530 l 1
830 1530 l 1
830 1360 l 1
664 1360 l 1
664 1190 l 1
996 1190 l 1
996 170 l 1
830 170 l 1
830 0 l 1
166 0 l 1
166 170 l 1
0 170 l 1
0 1190 l 1
332 1190 l 1
332 1360 l 1
166 1360 l 1
166 1530 l 1
332 1530 l 1
332 1700 l 1
663 1530 m 1
332 1529 l 1
333 1360 l 1
664 1361 l 1
663 1530 l 1
663 1190 m 1
332 1189 l 1
332 170 l 1
664 170 l 1
663 1190 l 1
EndSplineSet
EndChar

StartChar: uring
Encoding: 367 367
Width: 1328
Flags: W
LayerCount: 2
Fore
SplineSet
332 1700 m 1
664 1700 l 1
664 1530 l 1
830 1530 l 1
830 1190 l 1
664 1190 l 1
664 1020 l 1
996 1020 l 1
996 170 l 1
1162 170 l 1
1162 0 l 1
830 0 l 1
830 170 l 1
664 170 l 1
664 0 l 1
166 0 l 1
166 170 l 1
0 170 l 1
0 1020 l 1
332 1020 l 1
332 1190 l 1
166 1190 l 1
166 1530 l 1
332 1530 l 1
332 1700 l 1
663 1530 m 1
332 1529 l 1
333 1190 l 1
664 1191 l 1
663 1530 l 1
663 1020 m 1
332 1019 l 1
332 170 l 1
664 171 l 1
663 1020 l 1
EndSplineSet
EndChar

StartChar: Uhungarumlaut
Encoding: 368 368
Width: 1328
Flags: W
LayerCount: 2
Fore
SplineSet
166 1700 m 1
498 1700 l 1
498 1530 l 1
332 1530 l 1
332 1360 l 1
0 1360 l 1
0 1530 l 1
166 1530 l 1
166 1700 l 1
830 1700 m 1
1162 1700 l 1
1162 1530 l 1
996 1530 l 1
996 1360 l 1
664 1360 l 1
664 1530 l 1
830 1530 l 1
830 1700 l 1
0 1190 m 1
332 1190 l 1
332 170 l 1
664 170 l 1
664 1190 l 1
996 1190 l 1
996 170 l 1
830 170 l 1
830 0 l 1
166 0 l 1
166 170 l 1
0 170 l 1
0 1190 l 1
EndSplineSet
EndChar

StartChar: uhungarumlaut
Encoding: 369 369
Width: 1328
Flags: W
LayerCount: 2
Fore
SplineSet
332 1700 m 1
664 1700 l 1
664 1530 l 1
498 1530 l 1
498 1360 l 1
332 1360 l 1
332 1190 l 1
0 1190 l 1
0 1360 l 1
166 1360 l 1
166 1530 l 1
332 1530 l 1
332 1700 l 1
996 1700 m 1
1328 1700 l 1
1328 1530 l 1
1162 1530 l 1
1162 1360 l 1
996 1360 l 1
996 1190 l 1
664 1190 l 1
664 1360 l 1
830 1360 l 1
830 1530 l 1
996 1530 l 1
996 1700 l 1
0 1020 m 1
332 1020 l 1
332 170 l 1
664 170 l 1
664 1020 l 1
996 1020 l 1
996 170 l 1
1162 170 l 1
1162 0 l 1
830 0 l 1
830 170 l 1
664 169 l 1
664 0 l 1
166 0 l 1
166 170 l 1
0 170 l 1
0 1020 l 1
EndSplineSet
EndChar

StartChar: Uogonek
Encoding: 370 370
Width: 1328
Flags: W
LayerCount: 2
Fore
SplineSet
0 1530 m 1
332 1530 l 1
332 170 l 1
664 170 l 1
664 1530 l 1
996 1530 l 1
996 170 l 1
830 170 l 1
830 0 l 1
498 0 l 1
498 -170 l 1
830 -170 l 1
830 -340 l 1
332 -340 l 1
332 0 l 1
166 0 l 1
166 170 l 1
0 170 l 1
0 1530 l 1
EndSplineSet
EndChar

StartChar: uogonek
Encoding: 371 371
Width: 1328
Flags: W
LayerCount: 2
Fore
SplineSet
0 1020 m 1
332 1020 l 1
332 170 l 1
664 170 l 1
664 1020 l 1
996 1020 l 1
996 170 l 1
1162 170 l 1
1162 0 l 1
996 0 l 1
996 -170 l 1
1328 -170 l 1
1328 -340 l 1
830 -340 l 1
830 170 l 1
664 169 l 1
664 0 l 1
166 0 l 1
166 170 l 1
0 170 l 1
0 1020 l 1
EndSplineSet
EndChar

StartChar: Wcircumflex
Encoding: 372 372
Width: 1328
Flags: W
LayerCount: 2
Fore
SplineSet
332 1700 m 1
830 1700 l 1
830 1530 l 1
996 1530 l 1
996 1360 l 1
664 1360 l 1
664 1530 l 1
498 1530 l 1
498 1360 l 1
166 1360 l 1
166 1530 l 1
332 1530 l 1
332 1700 l 1
0 1190 m 1
332 1190 l 1
332 340 l 1
498 340 l 1
498 0 l 1
166 0 l 1
166 340 l 1
0 340 l 1
0 1190 l 1
830 1190 m 1
1162 1190 l 1
1162 340 l 1
996 340 l 1
996 0 l 1
664 0 l 1
664 340 l 1
498 341 l 1
498 680 l 1
664 680 l 1
665 340 l 1
830 340 l 1
830 1190 l 1
EndSplineSet
EndChar

StartChar: wcircumflex
Encoding: 373 373
Width: 1328
Flags: W
LayerCount: 2
Fore
SplineSet
498 1700 m 1
664 1700 l 1
664 1530 l 1
830 1530 l 1
830 1360 l 1
996 1360 l 1
996 1190 l 1
664 1190 l 1
664 1360 l 1
498 1360 l 1
498 1190 l 1
166 1190 l 1
166 1360 l 1
332 1360 l 1
332 1530 l 1
498 1530 l 1
498 1700 l 1
0 1020 m 1
332 1020 l 1
332 340 l 1
498 340 l 1
498 0 l 1
166 0 l 1
166 340 l 1
0 340 l 1
0 1020 l 1
830 1020 m 1
1162 1020 l 1
1162 340 l 1
996 340 l 1
996 0 l 1
664 0 l 1
664 340 l 1
498 341 l 1
498 680 l 1
664 680 l 1
665 340 l 1
830 340 l 1
830 1020 l 1
EndSplineSet
EndChar

StartChar: Ycircumflex
Encoding: 374 374
Width: 1328
Flags: W
LayerCount: 2
Fore
SplineSet
166 1700 m 1
830 1700 l 1
830 1530 l 1
996 1530 l 1
996 1360 l 1
664 1360 l 1
664 1530 l 1
332 1530 l 1
332 1360 l 1
0 1360 l 1
0 1530 l 1
166 1530 l 1
166 1700 l 1
0 1190 m 1
332 1190 l 1
332 680 l 1
664 680 l 1
664 1190 l 1
996 1190 l 1
996 680 l 1
830 680 l 1
830 510 l 1
664 510 l 1
664 170 l 1
830 170 l 1
830 0 l 1
166 0 l 1
166 170 l 1
332 170 l 1
332 510 l 1
166 510 l 1
166 680 l 1
0 680 l 1
0 1190 l 1
EndSplineSet
EndChar

StartChar: ycircumflex
Encoding: 375 375
Width: 1328
Flags: W
LayerCount: 2
Fore
SplineSet
498 1700 m 1
830 1700 l 1
830 1530 l 1
996 1530 l 1
996 1360 l 1
1162 1360 l 1
1162 1190 l 1
830 1190 l 1
830 1360 l 1
498 1360 l 1
498 1190 l 1
166 1190 l 1
166 1360 l 1
332 1360 l 1
332 1530 l 1
498 1530 l 1
498 1700 l 1
166 1020 m 1
498 1020 l 1
498 340 l 1
830 340 l 1
830 1020 l 1
1162 1020 l 1
1162 340 l 1
996 340 l 1
996 0 l 1
830 0 l 1
830 -170 l 1
664 -170 l 1
664 -340 l 1
0 -340 l 1
0 -170 l 1
498 -170 l 1
498 0 l 1
664 0 l 1
664 170 l 1
332 170 l 1
332 340 l 1
166 340 l 1
166 1020 l 1
EndSplineSet
EndChar

StartChar: Ydieresis
Encoding: 376 376
Width: 1328
Flags: W
LayerCount: 2
Fore
SplineSet
0 1700 m 1
332 1700 l 1
332 1360 l 1
0 1360 l 1
0 1700 l 1
664 1700 m 1
996 1700 l 1
996 1360 l 1
664 1360 l 1
664 1700 l 1
0 1190 m 1
332 1190 l 1
332 680 l 1
664 680 l 1
664 1190 l 1
996 1190 l 1
996 680 l 1
830 680 l 1
830 510 l 1
664 510 l 1
664 170 l 1
830 170 l 1
830 0 l 1
166 0 l 1
166 170 l 1
332 170 l 1
332 510 l 1
166 510 l 1
166 680 l 1
0 680 l 1
0 1190 l 1
EndSplineSet
EndChar

StartChar: Zacute
Encoding: 377 377
Width: 1328
Flags: W
LayerCount: 2
Fore
SplineSet
498 1700 m 1
830 1700 l 1
830 1530 l 1
664 1530 l 1
664 1360 l 1
332 1360 l 1
332 1530 l 1
498 1530 l 1
498 1700 l 1
0 1190 m 1
1162 1190 l 1
1162 1020 l 1
996 1020 l 1
996 850 l 1
830 850 l 1
830 680 l 1
664 680 l 1
664 510 l 1
498 510 l 1
498 340 l 1
332 340 l 1
332 170 l 1
830 170 l 1
830 340 l 1
996 340 l 1
996 510 l 1
1162 510 l 1
1162 0 l 1
0 0 l 1
0 340 l 1
166 340 l 1
166 510 l 1
332 510 l 1
332 680 l 1
498 680 l 1
498 850 l 1
664 850 l 1
664 1020 l 1
332 1020 l 1
332 850 l 1
166 850 l 1
166 680 l 1
0 680 l 1
0 1190 l 1
EndSplineSet
EndChar

StartChar: zacute
Encoding: 378 378
Width: 1328
Flags: W
LayerCount: 2
Fore
SplineSet
664 1700 m 1
996 1700 l 1
996 1530 l 1
830 1530 l 1
830 1360 l 1
664 1360 l 1
664 1190 l 1
332 1190 l 1
332 1360 l 1
498 1360 l 1
498 1530 l 1
664 1530 l 1
664 1700 l 1
0 1020 m 1
996 1020 l 1
996 680 l 1
830 680 l 1
830 510 l 1
498 510 l 1
498 340 l 1
332 340 l 1
332 170 l 1
830 170 l 1
830 340 l 1
996 340 l 1
996 0 l 1
0 0 l 1
0 340 l 1
166 340 l 1
166 510 l 1
498 511 l 1
498 680 l 1
664 680 l 1
664 850 l 1
166 850 l 1
166 680 l 1
0 680 l 1
0 1020 l 1
EndSplineSet
EndChar

StartChar: Zdotaccent
Encoding: 379 379
Width: 1328
Flags: W
LayerCount: 2
Fore
SplineSet
498 1700 m 1
830 1700 l 1
830 1360 l 1
498 1360 l 1
498 1700 l 1
0 1190 m 1
1162 1190 l 1
1162 1020 l 1
996 1020 l 1
996 850 l 1
830 850 l 1
830 680 l 1
664 680 l 1
664 510 l 1
498 510 l 1
498 340 l 1
332 340 l 1
332 170 l 1
830 170 l 1
830 340 l 1
996 340 l 1
996 510 l 1
1162 510 l 1
1162 0 l 1
0 0 l 1
0 340 l 1
166 340 l 1
166 510 l 1
332 510 l 1
332 680 l 1
498 680 l 1
498 850 l 1
664 850 l 1
664 1020 l 1
332 1020 l 1
332 850 l 1
166 850 l 1
166 680 l 1
0 680 l 1
0 1190 l 1
EndSplineSet
EndChar

StartChar: zdotaccent
Encoding: 380 380
Width: 1328
Flags: W
LayerCount: 2
Fore
SplineSet
332 1530 m 1
664 1530 l 1
664 1190 l 1
332 1190 l 1
332 1530 l 1
0 1020 m 1
996 1020 l 1
996 680 l 1
830 680 l 1
830 510 l 1
498 510 l 1
498 340 l 1
332 340 l 1
332 170 l 1
830 170 l 1
830 340 l 1
996 340 l 1
996 0 l 1
0 0 l 1
0 340 l 1
166 340 l 1
166 510 l 1
498 511 l 1
498 680 l 1
664 680 l 1
664 850 l 1
166 850 l 1
166 680 l 1
0 680 l 1
0 1020 l 1
EndSplineSet
EndChar

StartChar: Zcaron
Encoding: 381 381
Width: 1328
Flags: W
LayerCount: 2
Fore
SplineSet
166 1700 m 1
498 1700 l 1
498 1530 l 1
664 1530 l 1
664 1700 l 1
996 1700 l 1
996 1530 l 1
830 1530 l 1
830 1360 l 1
332 1360 l 1
332 1530 l 1
166 1530 l 1
166 1700 l 1
0 1190 m 1
1162 1190 l 1
1162 1020 l 1
996 1020 l 1
996 850 l 1
830 850 l 1
830 680 l 1
664 680 l 1
664 510 l 1
498 510 l 1
498 340 l 1
332 340 l 1
332 170 l 1
830 170 l 1
830 340 l 1
996 340 l 1
996 510 l 1
1162 510 l 1
1162 0 l 1
0 0 l 1
0 340 l 1
166 340 l 1
166 510 l 1
332 510 l 1
332 680 l 1
498 680 l 1
498 850 l 1
664 850 l 1
664 1020 l 1
332 1020 l 1
332 850 l 1
166 850 l 1
166 680 l 1
0 680 l 1
0 1190 l 1
EndSplineSet
EndChar

StartChar: zcaron
Encoding: 382 382
Width: 1328
Flags: W
LayerCount: 2
Fore
SplineSet
166 1530 m 1
498 1530 l 1
498 1360 l 1
664 1360 l 1
664 1530 l 1
996 1530 l 1
996 1360 l 1
830 1360 l 1
830 1190 l 1
332 1190 l 1
332 1360 l 1
166 1360 l 1
166 1530 l 1
0 1020 m 1
996 1020 l 1
996 680 l 1
830 680 l 1
830 510 l 1
498 510 l 1
498 340 l 1
332 340 l 1
332 170 l 1
830 170 l 1
830 340 l 1
996 340 l 1
996 0 l 1
0 0 l 1
0 340 l 1
166 340 l 1
166 510 l 1
498 511 l 1
498 680 l 1
664 680 l 1
664 850 l 1
166 850 l 1
166 680 l 1
0 680 l 1
0 1020 l 1
EndSplineSet
EndChar

StartChar: longs
Encoding: 383 383
Width: 1328
Flags: W
LayerCount: 2
Fore
SplineSet
332 1530 m 1
830 1530 l 1
830 1360 l 1
996 1360 l 1
996 1190 l 1
664 1190 l 1
664 1360 l 1
498 1360 l 1
498 170 l 1
664 170 l 1
664 0 l 1
0 0 l 1
0 170 l 1
166 170 l 1
166 680 l 1
0 680 l 1
0 850 l 1
166 850 l 1
166 1360 l 1
332 1360 l 1
332 1530 l 1
EndSplineSet
EndChar

StartChar: florin
Encoding: 402 402
Width: 1328
Flags: W
LayerCount: 2
Fore
SplineSet
664 1700 m 1
1162 1700 l 1
1162 1530 l 1
1328 1530 l 1
1328 1360 l 1
996 1360 l 1
996 1530 l 1
830 1530 l 1
830 1020 l 1
1162 1020 l 1
1162 850 l 1
830 850 l 1
830 170 l 1
664 170 l 1
664 0 l 1
166 0 l 1
166 170 l 1
0 170 l 1
0 340 l 1
332 340 l 1
332 170 l 1
498 170 l 1
498 850 l 1
166 850 l 1
166 1020 l 1
498 1020 l 1
498 1530 l 1
664 1530 l 1
664 1700 l 1
EndSplineSet
EndChar

StartChar: Ohorn
Encoding: 416 416
Width: 1328
Flags: W
LayerCount: 2
Fore
SplineSet
996 1700 m 1
1328 1700 l 1
1328 1190 l 1
1162 1190 l 1
1162 340 l 1
996 340 l 1
996 170 l 1
830 170 l 1
830 0 l 1
332 0 l 1
332 170 l 1
166 170 l 1
166 340 l 1
0 340 l 1
0 1190 l 1
166 1190 l 1
166 1360 l 1
332 1360 l 1
332 1530 l 1
830 1530 l 1
830 1360 l 1
996 1360 l 1
996 1700 l 1
664 1360 m 1
498 1360 l 1
498 1190 l 1
332 1190 l 1
332 340 l 1
498 340 l 1
498 170 l 1
664 170 l 1
664 340 l 1
830 340 l 1
830 1190 l 1
664 1190 l 1
664 1360 l 1
EndSplineSet
EndChar

StartChar: ohorn
Encoding: 417 417
Width: 1328
Flags: W
LayerCount: 2
Fore
SplineSet
996 1190 m 1
1328 1190 l 1
1328 850 l 1
1162 850 l 1
1162 680 l 1
996 680 l 1
996 170 l 1
830 170 l 1
830 0 l 1
166 0 l 1
166 170 l 1
0 170 l 1
0 850 l 1
166 850 l 1
166 1020 l 1
830 1020 l 1
830 850 l 1
996 850 l 1
996 1190 l 1
664 850 m 1
332 850 l 1
332 170 l 1
664 170 l 1
664 850 l 1
EndSplineSet
EndChar

StartChar: Uhorn
Encoding: 431 431
Width: 1328
Flags: W
LayerCount: 2
Fore
SplineSet
996 1700 m 1
1328 1700 l 1
1328 1190 l 1
996 1190 l 1
996 170 l 1
830 170 l 1
830 0 l 1
166 0 l 1
166 170 l 1
0 170 l 1
0 1530 l 1
332 1530 l 1
332 170 l 1
664 170 l 1
664 1530 l 1
996 1530 l 1
996 1700 l 1
EndSplineSet
EndChar

StartChar: uhorn
Encoding: 432 432
Width: 1328
Flags: W
LayerCount: 2
Fore
SplineSet
996 1360 m 1
1328 1360 l 1
1328 1020 l 1
1162 1020 l 1
1162 850 l 1
996 850 l 1
996 170 l 1
1162 170 l 1
1162 0 l 1
830 0 l 1
830 170 l 1
664 170 l 1
664 0 l 1
166 0 l 1
166 170 l 1
0 170 l 1
0 1020 l 1
332 1020 l 1
332 170 l 1
664 171 l 1
664 1020 l 1
996 1020 l 1
996 1360 l 1
EndSplineSet
EndChar

StartChar: uni01C0
Encoding: 448 448
Width: 1328
Flags: W
LayerCount: 2
Fore
SplineSet
498 1530 m 1
830 1530 l 1
830 -170 l 1
498 -170 l 1
498 1530 l 1
EndSplineSet
EndChar

StartChar: uni01C1
Encoding: 449 449
Width: 1328
Flags: W
LayerCount: 2
Fore
SplineSet
166 1530 m 1
498 1530 l 1
498 -170 l 1
166 -170 l 1
166 1530 l 1
830 1530 m 1
1162 1530 l 1
1162 -170 l 1
830 -170 l 1
830 1530 l 1
EndSplineSet
EndChar

StartChar: uni01C2
Encoding: 450 450
Width: 1328
Flags: W
LayerCount: 2
Fore
SplineSet
498 1530 m 1
830 1530 l 1
830 1020 l 1
1162 1020 l 1
1162 850 l 1
830 850 l 1
830 680 l 1
1162 680 l 1
1162 510 l 1
830 510 l 1
830 -170 l 1
498 -170 l 1
498 510 l 1
166 510 l 1
166 680 l 1
498 680 l 1
498 850 l 1
166 850 l 1
166 1020 l 1
498 1020 l 1
498 1530 l 1
EndSplineSet
EndChar

StartChar: uni01C3
Encoding: 451 451
Width: 1328
Flags: W
LayerCount: 2
Fore
SplineSet
498 1530 m 1
830 1530 l 1
830 1360 l 1
996 1360 l 1
996 850 l 1
830 850 l 1
830 510 l 1
498 510 l 1
498 850 l 1
332 850 l 1
332 1360 l 1
498 1360 l 1
498 1530 l 1
498 340 m 1
830 340 l 1
830 0 l 1
498 0 l 1
498 340 l 1
EndSplineSet
EndChar

StartChar: Gcaron
Encoding: 486 486
Width: 1328
Flags: W
LayerCount: 2
Fore
SplineSet
166 1700 m 1
498 1700 l 1
498 1530 l 1
664 1530 l 1
664 1700 l 1
996 1700 l 1
996 1530 l 1
830 1530 l 1
830 1360 l 1
332 1360 l 1
332 1530 l 1
166 1530 l 1
166 1700 l 1
332 1190 m 1
996 1190 l 1
996 1020 l 1
1162 1020 l 1
1162 850 l 1
830 850 l 1
830 1020 l 1
498 1020 l 1
498 850 l 1
332 850 l 1
332 340 l 1
498 340 l 1
498 170 l 1
830 170 l 1
830 340 l 1
664 340 l 1
664 510 l 1
1162 510 l 1
1162 0 l 1
332 0 l 1
332 170 l 1
166 170 l 1
166 340 l 1
0 340 l 1
0 850 l 1
166 850 l 1
166 1020 l 1
332 1020 l 1
332 1190 l 1
EndSplineSet
EndChar

StartChar: gcaron
Encoding: 487 487
Width: 1328
Flags: W
LayerCount: 2
Fore
SplineSet
166 1530 m 1
498 1530 l 1
498 1360 l 1
664 1360 l 1
664 1530 l 1
996 1530 l 1
996 1360 l 1
830 1360 l 1
830 1190 l 1
332 1190 l 1
332 1360 l 1
166 1360 l 1
166 1530 l 1
166 1020 m 1
664 1020 l 1
664 850 l 1
830 850 l 1
830 1020 l 1
1162 1020 l 1
1162 850 l 1
996 850 l 1
996 -170 l 1
830 -170 l 1
830 -340 l 1
166 -340 l 1
166 -170 l 1
0 -170 l 1
0 0 l 1
332 0 l 1
332 -170 l 1
664 -170 l 1
664 170 l 1
166 170 l 1
166 340 l 1
0 340 l 1
0 850 l 1
166 850 l 1
166 1020 l 1
663 850 m 1
332 850 l 1
332 340 l 1
664 340 l 1
663 850 l 1
EndSplineSet
EndChar

StartChar: Aringacute
Encoding: 506 506
Width: 1328
Flags: W
LayerCount: 2
Fore
SplineSet
166 1700 m 1
830 1700 l 1
830 1530 l 1
996 1530 l 1
996 1700 l 1
1328 1700 l 1
1328 1530 l 1
1162 1530 l 1
1162 1360 l 1
996 1360 l 1
996 1190 l 1
830 1190 l 1
830 850 l 1
996 850 l 1
996 0 l 1
664 0 l 1
664 340 l 1
332 340 l 1
332 0 l 1
0 0 l 1
0 850 l 1
166 850 l 1
166 1190 l 1
0 1190 l 1
0 1530 l 1
166 1530 l 1
166 1700 l 1
664 1530 m 1
332 1530 l 1
332 1190 l 1
664 1190 l 1
664 1530 l 1
664 850 m 1
332 850 l 1
332 510 l 1
664 510 l 1
664 850 l 1
EndSplineSet
EndChar

StartChar: aringacute
Encoding: 507 507
Width: 1328
Flags: W
LayerCount: 2
Fore
SplineSet
332 1700 m 1
830 1700 l 1
830 1530 l 1
996 1530 l 1
996 1700 l 1
1328 1700 l 1
1328 1530 l 1
1162 1530 l 1
1162 1360 l 1
996 1360 l 1
996 1190 l 1
830 1190 l 1
830 850 l 1
996 850 l 1
996 170 l 1
1162 170 l 1
1162 0 l 1
830 0 l 1
830 170 l 1
664 170 l 1
664 0 l 1
166 0 l 1
166 170 l 1
0 170 l 1
0 510 l 1
166 510 l 1
166 680 l 1
664 680 l 1
664 850 l 1
166 850 l 1
166 1020 l 1
332 1020 l 1
332 1190 l 1
166 1190 l 1
166 1530 l 1
332 1530 l 1
332 1700 l 1
664 1530 m 1
498 1530 l 1
498 1190 l 1
664 1190 l 1
664 1530 l 1
664 510 m 1
332 510 l 1
332 170 l 1
664 171 l 1
664 510 l 1
EndSplineSet
EndChar

StartChar: AEacute
Encoding: 508 508
Width: 1328
Flags: W
LayerCount: 2
Fore
SplineSet
664 1700 m 1
996 1700 l 1
996 1530 l 1
830 1530 l 1
830 1360 l 1
498 1360 l 1
498 1530 l 1
664 1530 l 1
664 1700 l 1
332 1190 m 1
1162 1190 l 1
1162 1020 l 1
830 1020 l 1
830 680 l 1
1162 680 l 1
1162 510 l 1
830 510 l 1
830 170 l 1
1162 170 l 1
1162 0 l 1
498 0 l 1
498 510 l 1
332 510 l 1
332 0 l 1
0 0 l 1
0 850 l 1
166 850 l 1
166 1020 l 1
332 1020 l 1
332 1190 l 1
498 850 m 1
332 850 l 1
332 680 l 1
498 680 l 1
498 850 l 1
EndSplineSet
EndChar

StartChar: aeacute
Encoding: 509 509
Width: 1328
Flags: W
LayerCount: 2
Fore
SplineSet
664 1700 m 1
996 1700 l 1
996 1530 l 1
830 1530 l 1
830 1360 l 1
664 1360 l 1
664 1190 l 1
332 1190 l 1
332 1360 l 1
498 1360 l 1
498 1530 l 1
664 1530 l 1
664 1700 l 1
0 1020 m 1
1162 1020 l 1
1162 850 l 1
1328 850 l 1
1328 510 l 1
830 510 l 1
830 170 l 1
1328 170 l 1
1328 0 l 1
664 0 l 1
664 170 l 1
498 170 l 1
498 510 l 1
332 510 l 1
332 170 l 1
498 169 l 1
498 0 l 1
0 0 l 1
0 510 l 1
166 510 l 1
166 680 l 1
498 680 l 1
498 850 l 1
0 850 l 1
0 1020 l 1
996 850 m 1
830 850 l 1
830 680 l 1
996 680 l 1
996 850 l 1
EndSplineSet
EndChar

StartChar: Oslashacute
Encoding: 510 510
Width: 1328
Flags: W
LayerCount: 2
Fore
SplineSet
664 1700 m 1
996 1700 l 1
996 1530 l 1
830 1530 l 1
830 1360 l 1
498 1360 l 1
498 1530 l 1
664 1530 l 1
664 1700 l 1
332 1190 m 1
830 1190 l 1
830 1020 l 1
996 1020 l 1
996 1190 l 1
1162 1190 l 1
1162 1020 l 1
996 1019 l 1
996 850 l 1
1162 850 l 1
1162 340 l 1
996 340 l 1
996 170 l 1
830 170 l 1
830 0 l 1
332 0 l 1
332 170 l 1
166 170 l 1
166 0 l 1
0 0 l 1
0 170 l 1
166 171 l 1
166 340 l 1
0 340 l 1
0 850 l 1
166 850 l 1
166 1020 l 1
332 1020 l 1
332 1190 l 1
664 1020 m 1
498 1020 l 1
498 850 l 1
332 850 l 1
332 510 l 1
498 510 l 1
498 680 l 1
664 680 l 1
664 1020 l 1
830 680 m 1
664 679 l 1
664 510 l 1
498 509 l 1
498 170 l 1
664 170 l 1
664 340 l 1
830 340 l 1
830 680 l 1
EndSplineSet
EndChar

StartChar: oslashacute
Encoding: 511 511
Width: 1328
Flags: W
LayerCount: 2
Fore
SplineSet
664 1700 m 1
996 1700 l 1
996 1530 l 1
830 1530 l 1
830 1360 l 1
664 1360 l 1
664 1190 l 1
332 1190 l 1
332 1360 l 1
498 1360 l 1
498 1530 l 1
664 1530 l 1
664 1700 l 1
166 1020 m 1
830 1020 l 1
830 850 l 1
996 850 l 1
996 170 l 1
830 170 l 1
830 0 l 1
166 0 l 1
166 170 l 1
0 170 l 1
0 850 l 1
166 850 l 1
166 1020 l 1
664 850 m 1
332 850 l 1
332 510 l 1
498 510 l 1
498 340 l 1
332 340 l 1
332 170 l 1
664 170 l 1
664 510 l 1
498 511 l 1
498 680 l 1
664 680 l 1
664 850 l 1
EndSplineSet
EndChar

StartChar: uni0250
Encoding: 592 592
Width: 1328
Flags: W
LayerCount: 2
Fore
SplineSet
0 1020 m 1
332 1020 l 1
332 850 l 1
498 850 l 1
498 1020 l 1
996 1020 l 1
996 850 l 1
1162 850 l 1
1162 510 l 1
996 510 l 1
996 340 l 1
498 340 l 1
498 170 l 1
996 170 l 1
996 0 l 1
332 0 l 1
332 170 l 1
166 170 l 1
166 850 l 1
0 850 l 1
0 1020 l 1
830 850 m 1
498 849 l 1
498 510 l 1
830 510 l 1
830 850 l 1
EndSplineSet
EndChar

StartChar: uni0251
Encoding: 593 593
Width: 1328
Flags: W
LayerCount: 2
Fore
SplineSet
166 1020 m 1
664 1020 l 1
664 850 l 1
830 850 l 1
830 1020 l 1
996 1020 l 1
996 0 l 1
830 0 l 1
830 170 l 1
664 170 l 1
664 0 l 1
166 0 l 1
166 170 l 1
0 170 l 1
0 850 l 1
166 850 l 1
166 1020 l 1
498 850 m 1
332 850 l 1
332 170 l 1
498 170 l 1
498 340 l 1
664 340 l 1
664 680 l 1
498 680 l 1
498 850 l 1
EndSplineSet
EndChar

StartChar: uni0252
Encoding: 594 594
Width: 1328
Flags: W
LayerCount: 2
Fore
SplineSet
0 1020 m 1
166 1020 l 1
166 850 l 1
332 850 l 1
332 1020 l 1
830 1020 l 1
830 850 l 1
996 850 l 1
996 170 l 1
830 170 l 1
830 0 l 1
332 0 l 1
332 170 l 1
166 170 l 1
166 0 l 1
0 0 l 1
0 1020 l 1
664 850 m 1
498 850 l 1
498 680 l 1
332 680 l 1
332 340 l 1
498 340 l 1
498 170 l 1
664 170 l 1
664 850 l 1
EndSplineSet
EndChar

StartChar: uni0253
Encoding: 595 595
Width: 1328
Flags: W
LayerCount: 2
Fore
SplineSet
332 1530 m 1
996 1530 l 1
996 1360 l 1
1162 1360 l 1
1162 1190 l 1
830 1190 l 1
830 1360 l 1
498 1360 l 1
498 1020 l 1
996 1020 l 1
996 850 l 1
1162 850 l 1
1162 170 l 1
996 170 l 1
996 0 l 1
498 0 l 1
498 170 l 1
332 170 l 1
332 0 l 1
0 0 l 1
0 170 l 1
166 170 l 1
166 1360 l 1
332 1360 l 1
332 1530 l 1
830 850 m 1
498 850 l 1
499 170 l 1
830 170 l 1
830 850 l 1
EndSplineSet
EndChar

StartChar: uni0254
Encoding: 596 596
Width: 1328
Flags: W
LayerCount: 2
Fore
SplineSet
166 1020 m 1
830 1020 l 1
830 850 l 1
996 850 l 1
996 170 l 1
830 170 l 1
830 0 l 1
166 0 l 1
166 170 l 1
0 170 l 1
0 340 l 1
332 340 l 1
332 170 l 1
664 170 l 1
664 850 l 1
332 850 l 1
332 680 l 1
0 680 l 1
0 850 l 1
166 850 l 1
166 1020 l 1
EndSplineSet
EndChar

StartChar: uni0255
Encoding: 597 597
Width: 1328
Flags: W
LayerCount: 2
Fore
SplineSet
166 1020 m 1
830 1020 l 1
830 850 l 1
996 850 l 1
996 680 l 1
664 680 l 1
664 850 l 1
332 850 l 1
332 340 l 1
498 340 l 1
498 510 l 1
830 510 l 1
830 340 l 1
996 340 l 1
996 170 l 1
830 170 l 1
830 0 l 1
332 0 l 1
332 -170 l 1
0 -170 l 1
0 0 l 1
166 0 l 1
166 170 l 1
0 170 l 1
0 850 l 1
166 850 l 1
166 1020 l 1
829 340 m 1
664 340 l 1
664 170 l 1
830 171 l 1
829 340 l 1
EndSplineSet
EndChar

StartChar: uni0256
Encoding: 598 598
Width: 1328
Flags: W
LayerCount: 2
Fore
SplineSet
498 1530 m 1
996 1530 l 1
996 -170 l 1
1162 -170 l 1
1162 0 l 1
1328 0 l 1
1328 -170 l 1
1162 -171 l 1
1162 -340 l 1
830 -340 l 1
830 -170 l 1
664 -170 l 1
664 0 l 1
166 0 l 1
166 170 l 1
0 170 l 1
0 850 l 1
166 850 l 1
166 1020 l 1
664 1020 l 1
664 1360 l 1
498 1360 l 1
498 1530 l 1
664 850 m 1
332 850 l 1
332 170 l 1
664 170 l 1
664 850 l 1
EndSplineSet
EndChar

StartChar: uni0257
Encoding: 599 599
Width: 1328
Flags: W
LayerCount: 2
Fore
SplineSet
830 1530 m 1
1162 1530 l 1
1162 1360 l 1
1328 1360 l 1
1328 1190 l 1
1162 1190 l 1
1161 1360 l 1
996 1360 l 1
996 170 l 1
1162 170 l 1
1162 0 l 1
830 0 l 1
830 170 l 1
664 170 l 1
664 0 l 1
166 0 l 1
166 170 l 1
0 170 l 1
0 850 l 1
166 850 l 1
166 1020 l 1
664 1020 l 1
664 1360 l 1
830 1360 l 1
830 1530 l 1
664 850 m 1
332 850 l 1
332 170 l 1
664 171 l 1
664 850 l 1
EndSplineSet
EndChar

StartChar: uni0258
Encoding: 600 600
Width: 1328
Flags: W
LayerCount: 2
Fore
SplineSet
166 1020 m 1
830 1020 l 1
830 850 l 1
996 850 l 1
996 170 l 1
830 170 l 1
830 0 l 1
166 0 l 1
166 170 l 1
0 170 l 1
0 340 l 1
332 340 l 1
332 170 l 1
664 170 l 1
664 510 l 1
0 510 l 1
0 850 l 1
166 850 l 1
166 1020 l 1
664 850 m 1
332 850 l 1
332 680 l 1
664 680 l 1
664 850 l 1
EndSplineSet
EndChar

StartChar: uni0259
Encoding: 601 601
Width: 1328
Flags: W
LayerCount: 2
Fore
SplineSet
166 1020 m 1
830 1020 l 1
830 850 l 1
996 850 l 1
996 170 l 1
830 170 l 1
830 0 l 1
166 0 l 1
166 170 l 1
0 170 l 1
0 510 l 1
664 510 l 1
664 850 l 1
332 850 l 1
332 680 l 1
0 680 l 1
0 850 l 1
166 850 l 1
166 1020 l 1
664 340 m 1
332 340 l 1
332 170 l 1
664 170 l 1
664 340 l 1
EndSplineSet
EndChar

StartChar: uni025A
Encoding: 602 602
Width: 1328
Flags: W
LayerCount: 2
Fore
SplineSet
166 1020 m 1
830 1020 l 1
830 850 l 1
996 850 l 1
996 1020 l 1
1162 1020 l 1
1162 680 l 1
1328 680 l 1
1328 510 l 1
1162 510 l 1
1161 680 l 1
996 680 l 1
996 170 l 1
830 170 l 1
830 0 l 1
166 0 l 1
166 170 l 1
0 170 l 1
0 340 l 1
166 340 l 1
166 510 l 1
498 510 l 1
498 680 l 1
664 680 l 1
664 850 l 1
332 850 l 1
332 680 l 1
0 680 l 1
0 850 l 1
166 850 l 1
166 1020 l 1
830 510 m 1
664 510 l 1
664 340 l 1
332 340 l 1
332 170 l 1
664 170 l 1
665 340 l 1
830 340 l 1
830 510 l 1
EndSplineSet
EndChar

StartChar: uni025B
Encoding: 603 603
Width: 1328
Flags: W
LayerCount: 2
Fore
SplineSet
166 1020 m 1
830 1020 l 1
830 850 l 1
332 850 l 1
332 680 l 1
664 680 l 1
664 510 l 1
332 510 l 1
332 170 l 1
664 170 l 1
664 340 l 1
996 340 l 1
996 170 l 1
830 170 l 1
830 0 l 1
166 0 l 1
166 170 l 1
0 170 l 1
0 510 l 1
166 510 l 1
166 680 l 1
0 680 l 1
0 850 l 1
166 850 l 1
166 1020 l 1
EndSplineSet
EndChar

StartChar: uni025C
Encoding: 604 604
Width: 1328
Flags: W
LayerCount: 2
Fore
SplineSet
166 1020 m 1
830 1020 l 1
830 850 l 1
996 850 l 1
996 680 l 1
830 680 l 1
830 510 l 1
996 510 l 1
996 170 l 1
830 170 l 1
830 0 l 1
166 0 l 1
166 170 l 1
0 170 l 1
0 340 l 1
332 340 l 1
332 170 l 1
664 170 l 1
664 510 l 1
332 510 l 1
332 680 l 1
664 680 l 1
664 850 l 1
166 850 l 1
166 1020 l 1
EndSplineSet
EndChar

StartChar: uni025D
Encoding: 605 605
Width: 1328
Flags: W
LayerCount: 2
Fore
SplineSet
166 1020 m 1
830 1020 l 1
830 850 l 1
996 850 l 1
996 1020 l 1
1162 1020 l 1
1162 680 l 1
1328 680 l 1
1328 510 l 1
1162 510 l 1
1161 680 l 1
830 680 l 1
830 510 l 1
996 510 l 1
996 170 l 1
830 170 l 1
830 0 l 1
166 0 l 1
166 170 l 1
0 170 l 1
0 340 l 1
332 340 l 1
332 170 l 1
664 170 l 1
664 510 l 1
332 510 l 1
332 680 l 1
664 680 l 1
664 850 l 1
166 850 l 1
166 1020 l 1
EndSplineSet
EndChar

StartChar: uni025E
Encoding: 606 606
Width: 1328
Flags: W
LayerCount: 2
Fore
SplineSet
166 1020 m 1
830 1020 l 1
830 850 l 1
996 850 l 1
996 680 l 1
830 680 l 1
830 510 l 1
996 510 l 1
996 170 l 1
830 170 l 1
830 0 l 1
166 0 l 1
166 170 l 1
0 170 l 1
0 850 l 1
166 850 l 1
166 1020 l 1
664 850 m 1
332 850 l 1
332 680 l 1
166 680 l 1
166 340 l 1
332 340 l 1
332 170 l 1
664 170 l 1
664 510 l 1
332 510 l 1
333 680 l 1
664 680 l 1
664 850 l 1
EndSplineSet
EndChar

StartChar: uni025F
Encoding: 607 607
Width: 1328
Flags: W
LayerCount: 2
Fore
SplineSet
332 1020 m 1
996 1020 l 1
996 510 l 1
1328 510 l 1
1328 340 l 1
996 340 l 1
996 -170 l 1
830 -170 l 1
830 -340 l 1
166 -340 l 1
166 -170 l 1
0 -170 l 1
0 170 l 1
332 170 l 1
332 -170 l 1
664 -170 l 1
664 340 l 1
332 340 l 1
332 510 l 1
664 510 l 1
664 850 l 1
332 850 l 1
332 1020 l 1
EndSplineSet
EndChar

StartChar: uni0260
Encoding: 608 608
Width: 1328
Flags: W
LayerCount: 2
Fore
SplineSet
830 1530 m 1
1162 1530 l 1
1162 1360 l 1
1328 1360 l 1
1328 1190 l 1
1162 1190 l 1
1161 1360 l 1
996 1360 l 1
996 -170 l 1
830 -170 l 1
830 -340 l 1
166 -340 l 1
166 -170 l 1
0 -170 l 1
0 0 l 1
332 0 l 1
332 -170 l 1
664 -170 l 1
664 170 l 1
166 170 l 1
166 340 l 1
0 340 l 1
0 850 l 1
166 850 l 1
166 1020 l 1
664 1020 l 1
664 1360 l 1
830 1360 l 1
830 1530 l 1
664 850 m 1
332 850 l 1
332 340 l 1
664 340 l 1
664 850 l 1
EndSplineSet
EndChar

StartChar: uni0262
Encoding: 610 610
Width: 1328
Flags: W
LayerCount: 2
Fore
SplineSet
332 1190 m 1
996 1190 l 1
996 1020 l 1
1162 1020 l 1
1162 680 l 1
830 680 l 1
830 1020 l 1
498 1020 l 1
498 850 l 1
332 850 l 1
332 340 l 1
498 340 l 1
498 170 l 1
830 170 l 1
830 340 l 1
664 340 l 1
664 510 l 1
1162 510 l 1
1162 0 l 1
332 0 l 1
332 170 l 1
166 170 l 1
166 340 l 1
0 340 l 1
0 850 l 1
166 850 l 1
166 1020 l 1
332 1020 l 1
332 1190 l 1
EndSplineSet
EndChar

StartChar: uni0263
Encoding: 611 611
Width: 1328
Flags: W
LayerCount: 2
Fore
SplineSet
0 1190 m 1
332 1190 l 1
332 510 l 1
498 510 l 1
498 340 l 1
664 340 l 1
664 510 l 1
830 510 l 1
830 1190 l 1
1162 1190 l 1
1162 510 l 1
996 510 l 1
996 340 l 1
830 340 l 1
830 170 l 1
996 170 l 1
996 -170 l 1
830 -170 l 1
830 -340 l 1
332 -340 l 1
332 -170 l 1
166 -170 l 1
166 170 l 1
332 170 l 1
332 340 l 1
166 340 l 1
166 510 l 1
0 510 l 1
0 1190 l 1
664 170 m 1
498 170 l 1
498 -170 l 1
664 -170 l 1
664 170 l 1
EndSplineSet
EndChar

StartChar: uni0264
Encoding: 612 612
Width: 1328
Flags: W
LayerCount: 2
Fore
SplineSet
166 1020 m 1
332 1020 l 1
332 850 l 1
498 850 l 1
498 680 l 1
664 680 l 1
664 850 l 1
830 850 l 1
830 1020 l 1
996 1020 l 1
996 850 l 1
1162 850 l 1
1162 510 l 1
996 510 l 1
996 680 l 1
830 680 l 1
830 340 l 1
996 340 l 1
996 170 l 1
830 170 l 1
830 0 l 1
332 0 l 1
332 170 l 1
166 170 l 1
166 340 l 1
332 340 l 1
332 680 l 1
166 680 l 1
166 510 l 1
0 510 l 1
0 850 l 1
166 850 l 1
166 1020 l 1
664 340 m 1
498 340 l 1
498 170 l 1
664 170 l 1
664 340 l 1
EndSplineSet
EndChar

StartChar: uni0265
Encoding: 613 613
Width: 1328
Flags: W
LayerCount: 2
Fore
SplineSet
0 1190 m 1
332 1190 l 1
332 340 l 1
498 340 l 1
498 170 l 1
166 170 l 1
166 340 l 1
0 340 l 1
0 1190 l 1
664 1190 m 1
1162 1190 l 1
1162 1020 l 1
996 1020 l 1
996 -170 l 1
1162 -170 l 1
1162 -340 l 1
664 -340 l 1
664 340 l 1
498 341 l 1
498 510 l 1
664 510 l 1
664 1190 l 1
EndSplineSet
EndChar

StartChar: uni0266
Encoding: 614 614
Width: 1328
Flags: W
LayerCount: 2
Fore
SplineSet
332 1530 m 1
996 1530 l 1
996 1360 l 1
1162 1360 l 1
1162 1190 l 1
830 1190 l 1
830 1360 l 1
498 1360 l 1
498 850 l 1
664 850 l 1
664 680 l 1
498 680 l 1
498 0 l 1
0 0 l 1
0 170 l 1
166 170 l 1
166 1360 l 1
332 1360 l 1
332 1530 l 1
664 1020 m 1
996 1020 l 1
996 850 l 1
1162 850 l 1
1162 0 l 1
830 0 l 1
830 850 l 1
664 851 l 1
664 1020 l 1
EndSplineSet
EndChar

StartChar: uni0267
Encoding: 615 615
Width: 1328
Flags: W
LayerCount: 2
Fore
SplineSet
332 1530 m 1
996 1530 l 1
996 1360 l 1
1162 1360 l 1
1162 1190 l 1
830 1190 l 1
830 1360 l 1
498 1360 l 1
498 850 l 1
664 850 l 1
664 680 l 1
498 680 l 1
498 0 l 1
0 0 l 1
0 170 l 1
166 170 l 1
166 1360 l 1
332 1360 l 1
332 1530 l 1
664 1020 m 1
996 1020 l 1
996 850 l 1
1162 850 l 1
1162 -170 l 1
996 -170 l 1
996 -340 l 1
498 -340 l 1
498 -170 l 1
830 -170 l 1
830 850 l 1
664 851 l 1
664 1020 l 1
EndSplineSet
EndChar

StartChar: uni0268
Encoding: 616 616
Width: 1328
Flags: W
LayerCount: 2
Fore
SplineSet
498 1530 m 1
830 1530 l 1
830 1190 l 1
498 1190 l 1
498 1530 l 1
166 1020 m 1
830 1020 l 1
830 680 l 1
1162 680 l 1
1162 510 l 1
830 510 l 1
830 170 l 1
1162 170 l 1
1162 0 l 1
166 0 l 1
166 170 l 1
498 170 l 1
498 510 l 1
166 510 l 1
166 680 l 1
498 680 l 1
498 850 l 1
166 850 l 1
166 1020 l 1
EndSplineSet
EndChar

StartChar: uni0269
Encoding: 617 617
Width: 1328
Flags: W
LayerCount: 2
Fore
SplineSet
166 1020 m 1
498 1020 l 1
498 170 l 1
664 170 l 1
664 340 l 1
996 340 l 1
996 170 l 1
830 170 l 1
830 0 l 1
332 0 l 1
332 170 l 1
166 170 l 1
166 1020 l 1
EndSplineSet
EndChar

StartChar: uni026A
Encoding: 618 618
Width: 1328
Flags: W
LayerCount: 2
Fore
SplineSet
166 1190 m 1
830 1190 l 1
830 1020 l 1
664 1020 l 1
664 170 l 1
830 170 l 1
830 0 l 1
166 0 l 1
166 170 l 1
332 170 l 1
332 1020 l 1
166 1020 l 1
166 1190 l 1
EndSplineSet
EndChar

StartChar: uni026B
Encoding: 619 619
Width: 1328
Flags: W
LayerCount: 2
Fore
SplineSet
166 1530 m 1
830 1530 l 1
830 680 l 1
996 680 l 1
996 850 l 1
1162 850 l 1
1162 680 l 1
996 679 l 1
996 510 l 1
830 510 l 1
830 170 l 1
1162 170 l 1
1162 0 l 1
166 0 l 1
166 170 l 1
498 170 l 1
498 680 l 1
332 680 l 1
332 510 l 1
166 510 l 1
166 680 l 1
332 681 l 1
332 850 l 1
498 850 l 1
498 1360 l 1
166 1360 l 1
166 1530 l 1
EndSplineSet
EndChar

StartChar: uni026C
Encoding: 620 620
Width: 1328
Flags: W
LayerCount: 2
Fore
SplineSet
166 1530 m 1
830 1530 l 1
830 680 l 1
996 680 l 1
996 850 l 1
1162 850 l 1
1162 680 l 1
996 679 l 1
996 510 l 1
830 510 l 1
830 170 l 1
1162 170 l 1
1162 0 l 1
166 0 l 1
166 170 l 1
498 170 l 1
498 510 l 1
332 510 l 1
332 680 l 1
166 680 l 1
166 850 l 1
332 850 l 1
332 1020 l 1
498 1020 l 1
498 1360 l 1
166 1360 l 1
166 1530 l 1
498 850 m 1
332 849 l 1
333 680 l 1
498 680 l 1
498 850 l 1
EndSplineSet
EndChar

StartChar: uni026D
Encoding: 621 621
Width: 1328
Flags: W
LayerCount: 2
Fore
SplineSet
166 1530 m 1
830 1530 l 1
830 -170 l 1
996 -170 l 1
996 0 l 1
1328 0 l 1
1328 -170 l 1
1162 -170 l 1
1162 -340 l 1
664 -340 l 1
664 -170 l 1
498 -170 l 1
498 1360 l 1
166 1360 l 1
166 1530 l 1
EndSplineSet
EndChar

StartChar: uni026E
Encoding: 622 622
Width: 1328
Flags: W
LayerCount: 2
Fore
SplineSet
0 1530 m 1
498 1530 l 1
498 1020 l 1
1328 1020 l 1
1328 680 l 1
1162 680 l 1
1162 340 l 1
1328 340 l 1
1328 -170 l 1
1162 -170 l 1
1162 -340 l 1
332 -340 l 1
332 -170 l 1
996 -170 l 1
996 340 l 1
664 340 l 1
664 510 l 1
830 510 l 1
830 680 l 1
996 680 l 1
996 850 l 1
498 850 l 1
498 170 l 1
664 170 l 1
664 0 l 1
0 0 l 1
0 170 l 1
166 170 l 1
166 1360 l 1
0 1360 l 1
0 1530 l 1
EndSplineSet
EndChar

StartChar: uni026F
Encoding: 623 623
Width: 1328
Flags: W
LayerCount: 2
Fore
SplineSet
0 1020 m 1
332 1020 l 1
332 170 l 1
498 170 l 1
498 850 l 1
664 850 l 1
664 170 l 1
830 170 l 1
830 1020 l 1
1162 1020 l 1
1162 0 l 1
166 0 l 1
166 170 l 1
0 170 l 1
0 1020 l 1
EndSplineSet
EndChar

StartChar: uni0270
Encoding: 624 624
Width: 1328
Flags: W
LayerCount: 2
Fore
SplineSet
0 1020 m 1
332 1020 l 1
332 170 l 1
498 170 l 1
498 850 l 1
664 850 l 1
664 170 l 1
830 170 l 1
830 1020 l 1
1162 1020 l 1
1162 -340 l 1
830 -340 l 1
830 0 l 1
166 0 l 1
166 170 l 1
0 170 l 1
0 1020 l 1
EndSplineSet
EndChar

StartChar: uni0271
Encoding: 625 625
Width: 1328
Flags: W
LayerCount: 2
Fore
SplineSet
0 1020 m 1
996 1020 l 1
996 850 l 1
1162 850 l 1
1162 -170 l 1
996 -170 l 1
996 -340 l 1
498 -340 l 1
498 -170 l 1
830 -170 l 1
830 850 l 1
664 850 l 1
664 170 l 1
498 170 l 1
498 850 l 1
332 850 l 1
332 0 l 1
0 0 l 1
0 1020 l 1
EndSplineSet
EndChar

StartChar: uni0272
Encoding: 626 626
Width: 1328
Flags: W
LayerCount: 2
Fore
SplineSet
166 1020 m 1
996 1020 l 1
996 850 l 1
1162 850 l 1
1162 0 l 1
830 0 l 1
830 850 l 1
498 850 l 1
498 -170 l 1
332 -170 l 1
332 -340 l 1
0 -340 l 1
0 -170 l 1
166 -170 l 1
166 1020 l 1
EndSplineSet
EndChar

StartChar: uni0273
Encoding: 627 627
Width: 1328
Flags: W
LayerCount: 2
Fore
SplineSet
0 1020 m 1
830 1020 l 1
830 850 l 1
996 850 l 1
996 -170 l 1
1162 -170 l 1
1162 0 l 1
1328 0 l 1
1328 -170 l 1
1162 -171 l 1
1162 -340 l 1
830 -340 l 1
830 -170 l 1
664 -170 l 1
664 850 l 1
332 850 l 1
332 0 l 1
0 0 l 1
0 1020 l 1
EndSplineSet
EndChar

StartChar: uni0274
Encoding: 628 628
Width: 1328
Flags: W
LayerCount: 2
Fore
SplineSet
0 1190 m 1
332 1190 l 1
332 1020 l 1
498 1020 l 1
498 850 l 1
664 850 l 1
664 680 l 1
830 680 l 1
830 1190 l 1
1162 1190 l 1
1162 0 l 1
830 0 l 1
830 340 l 1
664 340 l 1
664 510 l 1
498 510 l 1
498 680 l 1
332 680 l 1
332 0 l 1
0 0 l 1
0 1190 l 1
EndSplineSet
EndChar

StartChar: uni0275
Encoding: 629 629
Width: 1328
Flags: W
LayerCount: 2
Fore
SplineSet
166 1020 m 1
830 1020 l 1
830 850 l 1
996 850 l 1
996 170 l 1
830 170 l 1
830 0 l 1
166 0 l 1
166 170 l 1
0 170 l 1
0 850 l 1
166 850 l 1
166 1020 l 1
664 850 m 1
332 850 l 1
332 680 l 1
664 680 l 1
664 850 l 1
664 510 m 1
332 510 l 1
332 170 l 1
664 170 l 1
664 510 l 1
EndSplineSet
EndChar

StartChar: uni0276
Encoding: 630 630
Width: 1328
Flags: W
LayerCount: 2
Fore
SplineSet
166 1190 m 1
1162 1190 l 1
1162 1020 l 1
830 1020 l 1
830 680 l 1
1162 680 l 1
1162 510 l 1
830 510 l 1
830 170 l 1
1162 170 l 1
1162 0 l 1
166 0 l 1
166 170 l 1
0 170 l 1
0 1020 l 1
166 1020 l 1
166 1190 l 1
498 1020 m 1
332 1020 l 1
332 170 l 1
498 170 l 1
498 1020 l 1
EndSplineSet
EndChar

StartChar: uni0277
Encoding: 631 631
Width: 1328
Flags: W
LayerCount: 2
Fore
SplineSet
166 1020 m 1
996 1020 l 1
996 850 l 1
1162 850 l 1
1162 170 l 1
996 170 l 1
996 0 l 1
664 0 l 1
664 170 l 1
498 170 l 1
498 0 l 1
166 0 l 1
166 170 l 1
0 170 l 1
0 850 l 1
166 850 l 1
166 1020 l 1
830 850 m 1
332 850 l 1
332 170 l 1
498 171 l 1
498 680 l 1
664 680 l 1
665 170 l 1
830 170 l 1
830 850 l 1
EndSplineSet
EndChar

StartChar: uni0278
Encoding: 632 632
Width: 1328
Flags: W
LayerCount: 2
Fore
SplineSet
498 1360 m 1
664 1360 l 1
664 1020 l 1
996 1020 l 1
996 850 l 1
1162 850 l 1
1162 170 l 1
996 170 l 1
996 0 l 1
664 0 l 1
664 -340 l 1
498 -340 l 1
498 0 l 1
166 0 l 1
166 170 l 1
0 170 l 1
0 850 l 1
166 850 l 1
166 1020 l 1
498 1020 l 1
498 1360 l 1
498 850 m 1
332 850 l 1
332 170 l 1
498 170 l 1
498 850 l 1
830 850 m 1
664 850 l 1
664 170 l 1
830 170 l 1
830 850 l 1
EndSplineSet
EndChar

StartChar: uni0279
Encoding: 633 633
Width: 1328
Flags: W
LayerCount: 2
Fore
SplineSet
498 1020 m 1
1162 1020 l 1
1162 850 l 1
996 850 l 1
996 170 l 1
1162 170 l 1
1162 0 l 1
664 0 l 1
664 340 l 1
498 340 l 1
498 510 l 1
664 510 l 1
664 850 l 1
498 850 l 1
498 1020 l 1
0 510 m 1
332 510 l 1
332 340 l 1
498 339 l 1
498 0 l 1
166 0 l 1
166 170 l 1
0 170 l 1
0 510 l 1
EndSplineSet
EndChar

StartChar: uni027A
Encoding: 634 634
Width: 1328
Flags: W
LayerCount: 2
Fore
SplineSet
498 1530 m 1
1162 1530 l 1
1162 1360 l 1
996 1360 l 1
996 170 l 1
1162 170 l 1
1162 0 l 1
664 0 l 1
664 340 l 1
498 340 l 1
498 510 l 1
664 510 l 1
664 1360 l 1
498 1360 l 1
498 1530 l 1
0 510 m 1
332 510 l 1
332 340 l 1
498 339 l 1
498 0 l 1
166 0 l 1
166 170 l 1
0 170 l 1
0 510 l 1
EndSplineSet
EndChar

StartChar: uni027B
Encoding: 635 635
Width: 1328
Flags: W
LayerCount: 2
Fore
SplineSet
498 1020 m 1
1162 1020 l 1
1162 850 l 1
996 850 l 1
996 -170 l 1
1162 -170 l 1
1162 0 l 1
1328 0 l 1
1328 -170 l 1
1162 -171 l 1
1162 -340 l 1
830 -340 l 1
830 -170 l 1
664 -170 l 1
664 340 l 1
498 340 l 1
498 510 l 1
664 510 l 1
664 850 l 1
498 850 l 1
498 1020 l 1
0 510 m 1
332 510 l 1
332 340 l 1
498 339 l 1
498 0 l 1
166 0 l 1
166 170 l 1
0 170 l 1
0 510 l 1
EndSplineSet
EndChar

StartChar: uni027C
Encoding: 636 636
Width: 1328
Flags: W
LayerCount: 2
Fore
SplineSet
0 1020 m 1
498 1020 l 1
498 680 l 1
664 680 l 1
664 510 l 1
498 510 l 1
498 -170 l 1
664 -170 l 1
664 -340 l 1
0 -340 l 1
0 -170 l 1
166 -170 l 1
166 850 l 1
0 850 l 1
0 1020 l 1
664 1020 m 1
996 1020 l 1
996 850 l 1
1162 850 l 1
1162 510 l 1
830 510 l 1
830 680 l 1
664 681 l 1
664 1020 l 1
EndSplineSet
EndChar

StartChar: uni027D
Encoding: 637 637
Width: 1328
Flags: W
LayerCount: 2
Fore
SplineSet
0 1020 m 1
498 1020 l 1
498 680 l 1
664 680 l 1
664 510 l 1
498 510 l 1
498 -170 l 1
664 -170 l 1
664 0 l 1
996 0 l 1
996 -170 l 1
830 -170 l 1
830 -340 l 1
332 -340 l 1
332 -170 l 1
166 -170 l 1
166 850 l 1
0 850 l 1
0 1020 l 1
664 1020 m 1
996 1020 l 1
996 850 l 1
1162 850 l 1
1162 510 l 1
830 510 l 1
830 680 l 1
664 681 l 1
664 1020 l 1
EndSplineSet
EndChar

StartChar: uni027E
Encoding: 638 638
Width: 1328
Flags: W
LayerCount: 2
Fore
SplineSet
332 1020 m 1
996 1020 l 1
996 850 l 1
1162 850 l 1
1162 510 l 1
830 510 l 1
830 850 l 1
498 850 l 1
498 170 l 1
664 170 l 1
664 0 l 1
0 0 l 1
0 170 l 1
166 170 l 1
166 850 l 1
332 850 l 1
332 1020 l 1
EndSplineSet
EndChar

StartChar: uni027F
Encoding: 639 639
Width: 1328
Flags: W
LayerCount: 2
Fore
SplineSet
166 1020 m 1
830 1020 l 1
830 850 l 1
996 850 l 1
996 170 l 1
1162 170 l 1
1162 0 l 1
498 0 l 1
498 170 l 1
664 170 l 1
664 850 l 1
332 850 l 1
332 510 l 1
0 510 l 1
0 850 l 1
166 850 l 1
166 1020 l 1
EndSplineSet
EndChar

StartChar: uni0280
Encoding: 640 640
Width: 1328
Flags: W
LayerCount: 2
Fore
SplineSet
0 1190 m 1
996 1190 l 1
996 1020 l 1
1162 1020 l 1
1162 680 l 1
996 680 l 1
996 340 l 1
1162 340 l 1
1162 0 l 1
830 0 l 1
830 340 l 1
664 340 l 1
664 510 l 1
498 510 l 1
498 0 l 1
0 0 l 1
0 170 l 1
166 170 l 1
166 1020 l 1
0 1020 l 1
0 1190 l 1
830 1020 m 1
498 1020 l 1
498 680 l 1
830 680 l 1
830 1020 l 1
EndSplineSet
EndChar

StartChar: uni0281
Encoding: 641 641
Width: 1328
Flags: W
LayerCount: 2
Fore
SplineSet
0 1190 m 1
498 1190 l 1
498 680 l 1
664 680 l 1
664 850 l 1
830 850 l 1
830 1190 l 1
1162 1190 l 1
1162 850 l 1
996 850 l 1
996 510 l 1
1162 510 l 1
1162 170 l 1
996 170 l 1
996 0 l 1
0 0 l 1
0 170 l 1
166 170 l 1
166 1020 l 1
0 1020 l 1
0 1190 l 1
830 510 m 1
498 510 l 1
498 170 l 1
830 170 l 1
830 510 l 1
EndSplineSet
EndChar

StartChar: uni0282
Encoding: 642 642
Width: 1328
Flags: W
LayerCount: 2
Fore
SplineSet
166 1020 m 1
830 1020 l 1
830 850 l 1
996 850 l 1
996 680 l 1
664 680 l 1
664 850 l 1
332 850 l 1
332 680 l 1
498 680 l 1
498 510 l 1
830 510 l 1
830 340 l 1
996 340 l 1
996 170 l 1
830 170 l 1
830 0 l 1
332 0 l 1
332 -170 l 1
664 -170 l 1
664 -340 l 1
166 -340 l 1
166 -170 l 1
0 -170 l 1
0 340 l 1
332 340 l 1
332 170 l 1
664 170 l 1
664 340 l 1
498 340 l 1
497 510 l 1
166 510 l 1
166 680 l 1
0 680 l 1
0 850 l 1
166 850 l 1
166 1020 l 1
EndSplineSet
EndChar

StartChar: uni0283
Encoding: 643 643
Width: 1328
Flags: W
LayerCount: 2
Fore
SplineSet
664 1530 m 1
1162 1530 l 1
1162 1360 l 1
830 1360 l 1
830 -170 l 1
664 -170 l 1
664 -340 l 1
166 -340 l 1
166 -170 l 1
498 -170 l 1
498 1360 l 1
664 1360 l 1
664 1530 l 1
EndSplineSet
EndChar

StartChar: uni0284
Encoding: 644 644
Width: 1328
Flags: W
LayerCount: 2
Fore
SplineSet
830 1530 m 1
1162 1530 l 1
1162 1360 l 1
1328 1360 l 1
1328 1190 l 1
1162 1190 l 1
1161 1360 l 1
996 1360 l 1
996 510 l 1
1328 510 l 1
1328 340 l 1
996 340 l 1
996 -170 l 1
830 -170 l 1
830 -340 l 1
166 -340 l 1
166 -170 l 1
0 -170 l 1
0 170 l 1
332 170 l 1
332 -170 l 1
664 -170 l 1
664 340 l 1
332 340 l 1
332 510 l 1
664 510 l 1
664 1360 l 1
830 1360 l 1
830 1530 l 1
EndSplineSet
EndChar

StartChar: uni0285
Encoding: 645 645
Width: 1328
Flags: W
LayerCount: 2
Fore
SplineSet
166 1020 m 1
664 1020 l 1
664 850 l 1
830 850 l 1
830 -170 l 1
1162 -170 l 1
1162 -340 l 1
664 -340 l 1
664 -170 l 1
498 -170 l 1
498 850 l 1
166 850 l 1
166 1020 l 1
EndSplineSet
EndChar

StartChar: uni0286
Encoding: 646 646
Width: 1328
Flags: W
LayerCount: 2
Fore
SplineSet
664 1530 m 1
1162 1530 l 1
1162 1360 l 1
830 1360 l 1
830 340 l 1
996 340 l 1
996 170 l 1
1162 170 l 1
1162 0 l 1
996 0 l 1
995 170 l 1
830 170 l 1
830 -170 l 1
664 -170 l 1
664 -340 l 1
166 -340 l 1
166 -170 l 1
0 -170 l 1
0 170 l 1
166 170 l 1
166 340 l 1
498 340 l 1
498 1360 l 1
664 1360 l 1
664 1530 l 1
498 170 m 1
332 170 l 1
332 -170 l 1
498 -170 l 1
498 170 l 1
EndSplineSet
EndChar

StartChar: uni0287
Encoding: 647 647
Width: 1328
Flags: W
LayerCount: 2
Fore
SplineSet
166 1020 m 1
664 1020 l 1
664 850 l 1
830 850 l 1
830 170 l 1
996 170 l 1
996 0 l 1
830 0 l 1
830 -170 l 1
664 -170 l 1
664 -340 l 1
498 -340 l 1
498 0 l 1
166 0 l 1
166 170 l 1
498 170 l 1
498 850 l 1
332 850 l 1
332 680 l 1
0 680 l 1
0 850 l 1
166 850 l 1
166 1020 l 1
EndSplineSet
EndChar

StartChar: uni0288
Encoding: 648 648
Width: 1328
Flags: W
LayerCount: 2
Fore
SplineSet
332 1360 m 1
498 1360 l 1
498 1020 l 1
830 1020 l 1
830 850 l 1
498 850 l 1
498 -170 l 1
664 -170 l 1
664 0 l 1
996 0 l 1
996 -170 l 1
830 -170 l 1
830 -340 l 1
332 -340 l 1
332 -170 l 1
166 -170 l 1
166 850 l 1
0 850 l 1
0 1020 l 1
166 1020 l 1
166 1190 l 1
332 1190 l 1
332 1360 l 1
EndSplineSet
EndChar

StartChar: uni0289
Encoding: 649 649
Width: 1328
Flags: W
LayerCount: 2
Fore
SplineSet
166 1020 m 1
498 1020 l 1
498 680 l 1
664 680 l 1
664 1020 l 1
996 1020 l 1
996 680 l 1
1162 680 l 1
1162 510 l 1
996 510 l 1
996 170 l 1
1162 170 l 1
1162 0 l 1
830 0 l 1
830 170 l 1
664 170 l 1
664 510 l 1
498 510 l 1
498 170 l 1
664 169 l 1
664 0 l 1
332 0 l 1
332 170 l 1
166 170 l 1
166 510 l 1
0 510 l 1
0 680 l 1
166 680 l 1
166 1020 l 1
EndSplineSet
EndChar

StartChar: uni028A
Encoding: 650 650
Width: 1328
Flags: W
LayerCount: 2
Fore
SplineSet
0 1020 m 1
498 1020 l 1
498 680 l 1
332 680 l 1
332 170 l 1
830 170 l 1
830 680 l 1
664 680 l 1
664 1020 l 1
1162 1020 l 1
1162 850 l 1
996 850 l 1
996 680 l 1
1162 680 l 1
1162 170 l 1
996 170 l 1
996 0 l 1
166 0 l 1
166 170 l 1
0 170 l 1
0 680 l 1
166 680 l 1
166 850 l 1
0 850 l 1
0 1020 l 1
EndSplineSet
EndChar

StartChar: uni028B
Encoding: 651 651
Width: 1328
Flags: W
LayerCount: 2
Fore
SplineSet
0 1020 m 1
332 1020 l 1
332 170 l 1
664 170 l 1
664 340 l 1
830 340 l 1
830 850 l 1
664 850 l 1
664 1020 l 1
996 1020 l 1
996 850 l 1
1162 850 l 1
1162 340 l 1
996 340 l 1
996 170 l 1
830 170 l 1
830 0 l 1
166 0 l 1
166 170 l 1
0 170 l 1
0 1020 l 1
EndSplineSet
EndChar

StartChar: uni028C
Encoding: 652 652
Width: 1328
Flags: W
LayerCount: 2
Fore
SplineSet
332 1020 m 1
664 1020 l 1
664 850 l 1
830 850 l 1
830 680 l 1
996 680 l 1
996 0 l 1
664 0 l 1
664 680 l 1
332 680 l 1
332 0 l 1
0 0 l 1
0 680 l 1
166 680 l 1
166 850 l 1
332 850 l 1
332 1020 l 1
EndSplineSet
EndChar

StartChar: uni028D
Encoding: 653 653
Width: 1328
Flags: W
LayerCount: 2
Fore
SplineSet
166 1020 m 1
498 1020 l 1
498 680 l 1
332 680 l 1
332 0 l 1
0 0 l 1
0 680 l 1
166 680 l 1
166 1020 l 1
664 1020 m 1
996 1020 l 1
996 680 l 1
1162 680 l 1
1162 0 l 1
830 0 l 1
830 680 l 1
664 680 l 1
664 340 l 1
498 340 l 1
499 680 l 1
664 681 l 1
664 1020 l 1
EndSplineSet
EndChar

StartChar: uni028E
Encoding: 654 654
Width: 1328
Flags: W
LayerCount: 2
Fore
SplineSet
498 1360 m 1
1162 1360 l 1
1162 1190 l 1
664 1190 l 1
664 1020 l 1
498 1020 l 1
498 850 l 1
830 850 l 1
830 680 l 1
996 680 l 1
996 0 l 1
664 0 l 1
664 680 l 1
332 680 l 1
332 0 l 1
0 0 l 1
0 680 l 1
166 680 l 1
166 1020 l 1
332 1020 l 1
332 1190 l 1
498 1190 l 1
498 1360 l 1
EndSplineSet
EndChar

StartChar: uni028F
Encoding: 655 655
Width: 1328
Flags: W
LayerCount: 2
Fore
SplineSet
0 1190 m 1
332 1190 l 1
332 680 l 1
664 680 l 1
664 1190 l 1
996 1190 l 1
996 680 l 1
830 680 l 1
830 510 l 1
664 510 l 1
664 170 l 1
830 170 l 1
830 0 l 1
166 0 l 1
166 170 l 1
332 170 l 1
332 510 l 1
166 510 l 1
166 680 l 1
0 680 l 1
0 1190 l 1
EndSplineSet
EndChar

StartChar: uni0290
Encoding: 656 656
Width: 1328
Flags: W
LayerCount: 2
Fore
SplineSet
0 1020 m 1
996 1020 l 1
996 680 l 1
830 680 l 1
830 510 l 1
498 510 l 1
498 340 l 1
332 340 l 1
332 170 l 1
830 170 l 1
830 340 l 1
996 340 l 1
996 -170 l 1
1162 -170 l 1
1162 0 l 1
1328 0 l 1
1328 -170 l 1
1162 -171 l 1
1162 -340 l 1
830 -340 l 1
830 -170 l 1
664 -170 l 1
664 0 l 1
0 0 l 1
0 340 l 1
166 340 l 1
166 510 l 1
498 511 l 1
498 680 l 1
664 680 l 1
664 850 l 1
166 850 l 1
166 680 l 1
0 680 l 1
0 1020 l 1
EndSplineSet
EndChar

StartChar: uni0291
Encoding: 657 657
Width: 1328
Flags: W
LayerCount: 2
Fore
SplineSet
0 1020 m 1
996 1020 l 1
996 680 l 1
830 680 l 1
830 510 l 1
996 510 l 1
996 340 l 1
1162 340 l 1
1162 170 l 1
996 170 l 1
996 0 l 1
664 0 l 1
664 -170 l 1
498 -170 l 1
498 0 l 1
0 0 l 1
0 340 l 1
166 340 l 1
166 510 l 1
498 510 l 1
498 680 l 1
664 680 l 1
664 850 l 1
166 850 l 1
166 680 l 1
0 680 l 1
0 1020 l 1
829 510 m 1
498 509 l 1
498 340 l 1
332 340 l 1
332 170 l 1
664 170 l 1
664 340 l 1
830 340 l 1
830 170 l 1
996 171 l 1
995 340 l 1
830 341 l 1
829 510 l 1
EndSplineSet
EndChar

StartChar: uni0292
Encoding: 658 658
Width: 1328
Flags: W
LayerCount: 2
Fore
SplineSet
0 1190 m 1
1162 1190 l 1
1162 850 l 1
996 850 l 1
996 680 l 1
830 680 l 1
830 510 l 1
996 510 l 1
996 340 l 1
1162 340 l 1
1162 -170 l 1
996 -170 l 1
996 -340 l 1
166 -340 l 1
166 -170 l 1
0 -170 l 1
0 0 l 1
332 0 l 1
332 -170 l 1
830 -170 l 1
830 340 l 1
332 340 l 1
332 510 l 1
498 510 l 1
498 680 l 1
664 680 l 1
664 850 l 1
830 850 l 1
830 1020 l 1
166 1020 l 1
166 850 l 1
0 850 l 1
0 1190 l 1
EndSplineSet
EndChar

StartChar: uni0293
Encoding: 659 659
Width: 1328
Flags: W
LayerCount: 2
Fore
SplineSet
0 1190 m 1
1162 1190 l 1
1162 850 l 1
996 850 l 1
996 680 l 1
830 680 l 1
830 510 l 1
996 510 l 1
996 340 l 1
1162 340 l 1
1162 0 l 1
1328 0 l 1
1328 -170 l 1
996 -170 l 1
996 -340 l 1
166 -340 l 1
166 -170 l 1
0 -170 l 1
0 0 l 1
166 0 l 1
166 170 l 1
830 170 l 1
830 340 l 1
332 340 l 1
332 510 l 1
498 510 l 1
498 680 l 1
664 680 l 1
664 850 l 1
830 850 l 1
830 1020 l 1
166 1020 l 1
166 850 l 1
0 850 l 1
0 1190 l 1
830 0 m 1
332 0 l 1
332 -170 l 1
830 -170 l 1
830 0 l 1
EndSplineSet
EndChar

StartChar: uni0294
Encoding: 660 660
Width: 1328
Flags: W
LayerCount: 2
Fore
SplineSet
166 1530 m 1
830 1530 l 1
830 1360 l 1
996 1360 l 1
996 850 l 1
830 850 l 1
830 680 l 1
664 680 l 1
664 170 l 1
830 170 l 1
830 0 l 1
166 0 l 1
166 170 l 1
332 170 l 1
332 850 l 1
664 850 l 1
664 1360 l 1
332 1360 l 1
332 1190 l 1
0 1190 l 1
0 1360 l 1
166 1360 l 1
166 1530 l 1
EndSplineSet
EndChar

StartChar: uni0295
Encoding: 661 661
Width: 1328
Flags: W
LayerCount: 2
Fore
SplineSet
166 1530 m 1
830 1530 l 1
830 1360 l 1
996 1360 l 1
996 1190 l 1
664 1190 l 1
664 1360 l 1
332 1360 l 1
332 850 l 1
664 850 l 1
664 170 l 1
830 170 l 1
830 0 l 1
166 0 l 1
166 170 l 1
332 170 l 1
332 680 l 1
166 680 l 1
166 850 l 1
0 850 l 1
0 1360 l 1
166 1360 l 1
166 1530 l 1
EndSplineSet
EndChar

StartChar: uni0296
Encoding: 662 662
Width: 1328
Flags: W
LayerCount: 2
Fore
SplineSet
166 1530 m 1
830 1530 l 1
830 1360 l 1
664 1360 l 1
664 850 l 1
830 850 l 1
830 680 l 1
996 680 l 1
996 170 l 1
830 170 l 1
830 0 l 1
166 0 l 1
166 170 l 1
0 170 l 1
0 340 l 1
332 340 l 1
332 170 l 1
664 170 l 1
664 680 l 1
332 680 l 1
332 1360 l 1
166 1360 l 1
166 1530 l 1
EndSplineSet
EndChar

StartChar: uni0297
Encoding: 663 663
Width: 1328
Flags: W
LayerCount: 2
Fore
SplineSet
332 1530 m 1
996 1530 l 1
996 1360 l 1
1162 1360 l 1
1162 1020 l 1
830 1020 l 1
830 1360 l 1
498 1360 l 1
498 1190 l 1
332 1190 l 1
332 0 l 1
498 0 l 1
498 -170 l 1
830 -170 l 1
830 170 l 1
1162 170 l 1
1162 -170 l 1
996 -170 l 1
996 -340 l 1
332 -340 l 1
332 -170 l 1
166 -170 l 1
166 0 l 1
0 0 l 1
0 1190 l 1
166 1190 l 1
166 1360 l 1
332 1360 l 1
332 1530 l 1
EndSplineSet
EndChar

StartChar: uni0298
Encoding: 664 664
Width: 1328
Flags: W
LayerCount: 2
Fore
SplineSet
332 1190 m 1
830 1190 l 1
830 1020 l 1
996 1020 l 1
996 850 l 1
1162 850 l 1
1162 340 l 1
996 340 l 1
996 170 l 1
830 170 l 1
830 0 l 1
332 0 l 1
332 170 l 1
166 170 l 1
166 340 l 1
0 340 l 1
0 850 l 1
166 850 l 1
166 1020 l 1
332 1020 l 1
332 1190 l 1
829 1020 m 1
332 1019 l 1
332 850 l 1
166 849 l 1
167 340 l 1
332 340 l 1
333 170 l 1
830 171 l 1
830 340 l 1
996 341 l 1
995 850 l 1
830 850 l 1
829 1020 l 1
498 680 m 1
664 680 l 1
664 510 l 1
498 510 l 1
498 680 l 1
EndSplineSet
EndChar

StartChar: uni0299
Encoding: 665 665
Width: 1328
Flags: W
LayerCount: 2
Fore
SplineSet
0 1190 m 1
996 1190 l 1
996 1020 l 1
1162 1020 l 1
1162 680 l 1
996 680 l 1
996 510 l 1
1162 510 l 1
1162 170 l 1
996 170 l 1
996 0 l 1
0 0 l 1
0 170 l 1
166 170 l 1
166 1020 l 1
0 1020 l 1
0 1190 l 1
830 1020 m 1
498 1020 l 1
498 680 l 1
830 680 l 1
830 1020 l 1
830 510 m 1
498 510 l 1
498 170 l 1
830 170 l 1
830 510 l 1
EndSplineSet
EndChar

StartChar: uni029A
Encoding: 666 666
Width: 1328
Flags: W
LayerCount: 2
Fore
SplineSet
166 1020 m 1
830 1020 l 1
830 850 l 1
996 850 l 1
996 170 l 1
830 170 l 1
830 0 l 1
166 0 l 1
166 170 l 1
0 170 l 1
0 510 l 1
166 510 l 1
166 680 l 1
0 680 l 1
0 850 l 1
166 850 l 1
166 1020 l 1
664 850 m 1
332 850 l 1
332 680 l 1
664 680 l 1
664 510 l 1
332 510 l 1
332 170 l 1
664 170 l 1
664 340 l 1
830 340 l 1
830 680 l 1
664 681 l 1
664 850 l 1
EndSplineSet
EndChar

StartChar: uni029B
Encoding: 667 667
Width: 1328
Flags: W
LayerCount: 2
Fore
SplineSet
830 1700 m 1
1162 1700 l 1
1162 1530 l 1
1328 1530 l 1
1328 1360 l 1
1162 1360 l 1
1161 1530 l 1
996 1530 l 1
996 1020 l 1
1162 1020 l 1
1162 680 l 1
830 680 l 1
830 1020 l 1
498 1020 l 1
498 850 l 1
332 850 l 1
332 340 l 1
498 340 l 1
498 170 l 1
830 170 l 1
830 340 l 1
664 340 l 1
664 510 l 1
1162 510 l 1
1162 0 l 1
332 0 l 1
332 170 l 1
166 170 l 1
166 340 l 1
0 340 l 1
0 850 l 1
166 850 l 1
166 1020 l 1
332 1020 l 1
332 1190 l 1
664 1190 l 1
664 1530 l 1
830 1530 l 1
830 1700 l 1
EndSplineSet
EndChar

StartChar: uni029C
Encoding: 668 668
Width: 1328
Flags: W
LayerCount: 2
Fore
SplineSet
0 1190 m 1
332 1190 l 1
332 680 l 1
664 680 l 1
664 1190 l 1
996 1190 l 1
996 0 l 1
664 0 l 1
664 510 l 1
332 510 l 1
332 0 l 1
0 0 l 1
0 1190 l 1
EndSplineSet
EndChar

StartChar: uni029D
Encoding: 669 669
Width: 1328
Flags: W
LayerCount: 2
Fore
SplineSet
664 1530 m 1
996 1530 l 1
996 1190 l 1
664 1190 l 1
664 1530 l 1
332 1020 m 1
996 1020 l 1
996 0 l 1
1162 0 l 1
1162 -170 l 1
1328 -170 l 1
1328 -340 l 1
996 -340 l 1
996 -170 l 1
830 -170 l 1
830 -340 l 1
166 -340 l 1
166 -170 l 1
0 -170 l 1
0 0 l 1
166 0 l 1
166 170 l 1
664 170 l 1
664 850 l 1
332 850 l 1
332 1020 l 1
664 0 m 1
332 0 l 1
332 -170 l 1
664 -170 l 1
664 0 l 1
EndSplineSet
EndChar

StartChar: uni029E
Encoding: 670 670
Width: 1328
Flags: W
LayerCount: 2
Fore
SplineSet
0 1190 m 1
332 1190 l 1
332 850 l 1
498 850 l 1
498 680 l 1
664 680 l 1
664 1190 l 1
1162 1190 l 1
1162 1020 l 1
996 1020 l 1
996 -170 l 1
1162 -170 l 1
1162 -340 l 1
664 -340 l 1
664 510 l 1
498 510 l 1
498 340 l 1
332 340 l 1
332 170 l 1
0 170 l 1
0 340 l 1
166 340 l 1
166 510 l 1
332 510 l 1
332 680 l 1
166 680 l 1
166 850 l 1
0 850 l 1
0 1190 l 1
EndSplineSet
EndChar

StartChar: uni029F
Encoding: 671 671
Width: 1328
Flags: W
LayerCount: 2
Fore
SplineSet
0 1190 m 1
664 1190 l 1
664 1020 l 1
498 1020 l 1
498 170 l 1
830 170 l 1
830 340 l 1
996 340 l 1
996 510 l 1
1162 510 l 1
1162 0 l 1
0 0 l 1
0 170 l 1
166 170 l 1
166 1020 l 1
0 1020 l 1
0 1190 l 1
EndSplineSet
EndChar

StartChar: uni02A0
Encoding: 672 672
Width: 1328
Flags: W
LayerCount: 2
Fore
SplineSet
830 1530 m 1
1162 1530 l 1
1162 1360 l 1
1328 1360 l 1
1328 1190 l 1
1162 1190 l 1
1161 1360 l 1
996 1360 l 1
996 -170 l 1
1162 -170 l 1
1162 -340 l 1
498 -340 l 1
498 -170 l 1
664 -170 l 1
664 0 l 1
166 0 l 1
166 170 l 1
0 170 l 1
0 850 l 1
166 850 l 1
166 1020 l 1
664 1020 l 1
664 1360 l 1
830 1360 l 1
830 1530 l 1
664 850 m 1
332 850 l 1
332 170 l 1
664 170 l 1
664 850 l 1
EndSplineSet
EndChar

StartChar: uni02A1
Encoding: 673 673
Width: 1328
Flags: W
LayerCount: 2
Fore
SplineSet
166 1530 m 1
830 1530 l 1
830 1360 l 1
996 1360 l 1
996 850 l 1
830 850 l 1
830 680 l 1
664 680 l 1
664 510 l 1
996 510 l 1
996 340 l 1
664 340 l 1
664 170 l 1
830 170 l 1
830 0 l 1
166 0 l 1
166 170 l 1
332 170 l 1
332 340 l 1
0 340 l 1
0 510 l 1
332 510 l 1
332 850 l 1
664 850 l 1
664 1360 l 1
332 1360 l 1
332 1190 l 1
0 1190 l 1
0 1360 l 1
166 1360 l 1
166 1530 l 1
EndSplineSet
EndChar

StartChar: uni02A2
Encoding: 674 674
Width: 1328
Flags: W
LayerCount: 2
Fore
SplineSet
166 1530 m 1
830 1530 l 1
830 1360 l 1
996 1360 l 1
996 1190 l 1
664 1190 l 1
664 1360 l 1
332 1360 l 1
332 850 l 1
664 850 l 1
664 510 l 1
996 510 l 1
996 340 l 1
664 340 l 1
664 170 l 1
830 170 l 1
830 0 l 1
166 0 l 1
166 170 l 1
332 170 l 1
332 340 l 1
0 340 l 1
0 510 l 1
332 510 l 1
332 680 l 1
166 680 l 1
166 850 l 1
0 850 l 1
0 1360 l 1
166 1360 l 1
166 1530 l 1
EndSplineSet
EndChar

StartChar: uni02A3
Encoding: 675 675
Width: 1328
Flags: W
LayerCount: 2
Fore
SplineSet
332 1530 m 1
830 1530 l 1
830 1020 l 1
1328 1020 l 1
1328 510 l 1
1162 510 l 1
1162 340 l 1
996 340 l 1
996 170 l 1
1328 170 l 1
1328 0 l 1
664 0 l 1
664 170 l 1
498 170 l 1
498 850 l 1
332 850 l 1
332 170 l 1
498 169 l 1
498 0 l 1
166 0 l 1
166 170 l 1
0 170 l 1
0 850 l 1
166 850 l 1
166 1020 l 1
498 1020 l 1
498 1360 l 1
332 1360 l 1
332 1530 l 1
1162 850 m 1
830 850 l 1
830 510 l 1
996 510 l 1
996 680 l 1
1162 680 l 1
1162 850 l 1
EndSplineSet
EndChar

